<?xml version="1.0" encoding="iso-8859-1"?>
<!-- Generator: Adobe Illustrator 19.0.0, SVG Export Plug-In . SVG Version: 6.00 Build 0)  -->
<svg version="1.1" id="Capa_1" xmlns="http://www.w3.org/2000/svg" xmlns:xlink="http://www.w3.org/1999/xlink" x="0px" y="0px"
	 viewBox="0 0 512 512" style="enable-background:new 0 0 512 512;" xml:space="preserve">
<g>
	<g>
		<g>
			<path d="M509.501,377.965c-1.6-1.6-3.771-2.499-6.035-2.499h-25.6v-281.6c-0.015-14.132-11.468-25.585-25.6-25.6H59.733
				c-14.132,0.015-25.585,11.468-25.6,25.6v281.6h-25.6c-2.263-0.001-4.434,0.898-6.035,2.499c-1.6,1.6-2.499,3.771-2.499,6.035
				v25.6c0.02,18.843,15.29,34.113,34.133,34.133h443.733c18.843-0.02,34.113-15.29,34.133-34.133V384
				C512.001,381.737,511.102,379.566,509.501,377.965z M51.2,93.867c0.005-4.711,3.822-8.529,8.533-8.533h392.533
				c4.711,0.005,8.529,3.822,8.533,8.533v281.6H51.2V93.867z M315.733,392.533c-0.005,4.711-3.822,8.529-8.533,8.533H204.8
				c-4.711-0.005-8.529-3.822-8.533-8.533H315.733z M494.933,409.6c-0.011,9.421-7.645,17.056-17.067,17.067H34.133
				c-9.421-0.011-17.056-7.646-17.067-17.067v-17.067H179.2c0.015,14.132,11.468,25.585,25.6,25.6h102.4
				c14.132-0.015,25.585-11.468,25.6-25.6h162.133V409.6z"/>
			<path d="M178.592,240.146c-0.015,4.529,1.786,8.875,5,12.067l12.067,12.075c6.756,6.44,17.38,6.439,24.133-0.004L256,228.079
				l36.2,36.2c6.666,6.665,17.473,6.667,24.142,0.004l12.067-12.067c3.201-3.201,5-7.542,5-12.069s-1.799-8.868-5-12.069
				L292.2,191.875l36.208-36.204c6.658-6.668,6.658-17.469,0-24.137l-12.067-12.066c-3.193-3.212-7.538-5.012-12.067-5h-0.017
				c-4.523-0.011-8.863,1.789-12.05,5L256,155.671l-36.2-36.196c-3.188-3.215-7.531-5.019-12.058-5.008h-0.017
				c-4.528-0.012-8.874,1.788-12.066,5l-12.067,12.067c-6.658,6.668-6.658,17.469,0,24.137l36.208,36.204l-36.208,36.204
				C180.38,231.272,178.579,235.617,178.592,240.146z M231.867,203.942c6.659-6.667,6.659-17.467,0-24.133L195.658,143.6
				l12.067-12.067l36.208,36.204c6.667,6.659,17.467,6.659,24.133,0l36.208-36.204l12.067,12.067l-36.208,36.208
				c-6.659,6.667-6.659,17.467,0,24.133l36.208,36.204l-12.067,12.071l-36.208-36.204c-6.667-6.659-17.467-6.659-24.133,0
				l-36.208,36.204l-12.067-12.071L231.867,203.942z"/>
			<path d="M213.333,307.2c4.713,0,8.533-3.82,8.533-8.533s-3.821-8.533-8.533-8.533h-25.6c-2.263-0.001-4.434,0.898-6.035,2.499
				c-1.6,1.6-2.499,3.771-2.499,6.035v25.6c-0.001,2.263,0.898,4.434,2.499,6.035c1.6,1.6,3.771,2.499,6.035,2.499h12.8
				c2.356,0,4.267,1.91,4.267,4.267c0,2.356-1.91,4.267-4.267,4.267h-12.8c-4.713,0-8.533,3.821-8.533,8.533s3.82,8.533,8.533,8.533
				h12.8c11.782,0,21.333-9.551,21.333-21.333c0-11.782-9.551-21.333-21.333-21.333h-4.267V307.2H213.333z"/>
			<path d="M264.533,290.133h-17.067c-9.421,0.011-17.056,7.645-17.067,17.067v34.133c0.011,9.421,7.645,17.056,17.067,17.067
				h17.067c9.421-0.011,17.056-7.646,17.067-17.067V307.2C281.589,297.779,273.955,290.144,264.533,290.133z M247.467,341.333V307.2
				h17.067l0.009,34.133H247.467z"/>
			<path d="M324.267,290.133H307.2c-9.421,0.011-17.056,7.645-17.067,17.067v34.133c0.011,9.421,7.645,17.056,17.067,17.067h17.067
				c9.421-0.011,17.056-7.646,17.067-17.067V307.2C341.323,297.779,333.688,290.144,324.267,290.133z M307.2,341.333V307.2h17.067
				l0.009,34.133H307.2z"/>
		</g>
	</g>
</g>
<g>
</g>
<g>
</g>
<g>
</g>
<g>
</g>
<g>
</g>
<g>
</g>
<g>
</g>
<g>
</g>
<g>
</g>
<g>
</g>
<g>
</g>
<g>
</g>
<g>
</g>
<g>
</g>
<g>
</g>
</svg>
