<?xml version="1.0" encoding="iso-8859-1"?>
<!-- Generator: Adobe Illustrator 19.0.0, SVG Export Plug-In . SVG Version: 6.00 Build 0)  -->
<svg version="1.1" id="Capa_1" xmlns="http://www.w3.org/2000/svg" xmlns:xlink="http://www.w3.org/1999/xlink" x="0px" y="0px"
	 viewBox="0 0 512 512" style="enable-background:new 0 0 512 512;" xml:space="preserve">
<g>
	<g>
		<g>
			<path d="M509.501,377.965c-1.6-1.6-3.771-2.499-6.035-2.499h-25.6v-281.6c-0.015-14.132-11.468-25.585-25.6-25.6H59.733
				c-14.132,0.015-25.585,11.468-25.6,25.6v281.6h-25.6c-2.263-0.001-4.434,0.898-6.035,2.499c-1.6,1.6-2.499,3.771-2.499,6.035
				v25.6c0.02,18.843,15.29,34.113,34.133,34.133h443.733c18.843-0.02,34.113-15.29,34.133-34.133V384
				C512.001,381.737,511.102,379.566,509.501,377.965z M51.2,93.867c0.005-4.711,3.822-8.529,8.533-8.533h392.533
				c4.711,0.005,8.529,3.822,8.533,8.533v281.6H51.2V93.867z M315.733,392.533c-0.005,4.711-3.822,8.529-8.533,8.533H204.8
				c-4.711-0.005-8.529-3.822-8.533-8.533H315.733z M494.933,409.6c-0.011,9.421-7.645,17.056-17.067,17.067H34.133
				c-9.421-0.011-17.056-7.646-17.067-17.067v-17.067H179.2c0.015,14.132,11.468,25.585,25.6,25.6h102.4
				c14.132-0.015,25.585-11.468,25.6-25.6h162.133V409.6z"/>
			<path d="M351.434,174.13c-19.862-33.862-56.179-54.663-95.436-54.662s-75.573,20.803-95.434,54.665
				c-0.507,0.614-0.922,1.297-1.234,2.029c-19.018,33.659-19.018,74.819,0,108.478c0.312,0.732,0.728,1.416,1.234,2.029
				c19.897,33.826,56.192,54.615,95.435,54.665c39.243-0.049,75.537-20.838,95.434-54.662c0.507-0.615,0.924-1.299,1.236-2.033
				c19.017-33.658,19.017-74.817,0-108.476C352.358,175.429,351.942,174.744,351.434,174.13z M209.158,149.178
				c-4.39,6.756-8.05,13.959-10.919,21.489h-14.59C190.811,162.048,199.449,154.772,209.158,149.178z M172.496,187.733h20.32
				c-2.739,11.189-4.355,22.623-4.826,34.133h-25.424C163.651,209.956,167.022,198.367,172.496,187.733z M172.496,273.067
				c-5.474-10.634-8.845-22.223-9.93-34.133h25.424c0.471,11.51,2.088,22.944,4.826,34.133H172.496z M183.65,290.133h14.59
				c2.869,7.529,6.529,14.732,10.919,21.489C199.449,306.028,190.811,298.752,183.65,290.133z M247.467,322.793
				c-14.214-6.274-25.26-18.066-30.594-32.659h30.594V322.793z M247.467,273.067h-36.822c-3.151-11.129-5.03-22.58-5.601-34.133
				h42.423V273.067z M247.467,221.867h-42.423c0.571-11.553,2.45-23.004,5.601-34.133h36.822V221.867z M247.467,170.667h-30.594
				c5.334-14.593,16.38-26.385,30.594-32.659V170.667z M339.504,187.733c5.474,10.634,8.845,22.223,9.93,34.133h-25.424
				c-0.471-11.51-2.087-22.944-4.825-34.133H339.504z M328.35,170.667h-14.59c-2.869-7.529-6.529-14.732-10.919-21.489
				C312.551,154.772,321.189,162.048,328.35,170.667z M264.533,138.007c14.214,6.274,25.26,18.066,30.594,32.659h-30.594V138.007z
				 M264.533,187.733h36.822c3.151,11.129,5.03,22.58,5.601,34.133h-42.423V187.733z M264.533,322.793v-32.659h30.594
				C289.794,304.726,278.747,316.518,264.533,322.793z M264.533,273.067v-34.133h42.423c-0.571,11.553-2.45,23.004-5.601,34.133
				H264.533z M302.842,311.622L302.842,311.622c4.39-6.756,8.05-13.959,10.919-21.489h14.59
				C321.189,298.752,312.551,306.028,302.842,311.622z M339.504,273.067h-20.319c2.738-11.189,4.354-22.624,4.825-34.133h25.424
				C348.35,250.844,344.978,262.433,339.504,273.067z"/>
			<path d="M136.509,170.012c-0.174-2.258-1.238-4.353-2.959-5.825c-3.578-3.059-8.957-2.645-12.025,0.925l-51.2,59.733
				c-2.742,3.195-2.742,7.913,0,11.108l51.2,59.733c3.067,3.576,8.453,3.988,12.029,0.921s3.988-8.453,0.921-12.029L88.042,230.4
				l46.433-54.179C135.951,174.504,136.683,172.27,136.509,170.012z"/>
			<path d="M390.475,165.113c-1.984-2.313-5.052-3.392-8.048-2.83c-2.996,0.562-5.464,2.679-6.475,5.554s-0.412,6.071,1.573,8.385
				l46.433,54.179l-46.433,54.179c-1.476,1.717-2.208,3.951-2.034,6.209s1.238,4.353,2.959,5.825
				c1.717,1.473,3.949,2.203,6.204,2.029c2.255-0.174,4.349-1.236,5.821-2.954l51.2-59.733c2.742-3.195,2.742-7.913,0-11.108
				L390.475,165.113z"/>
		</g>
	</g>
</g>
<g>
</g>
<g>
</g>
<g>
</g>
<g>
</g>
<g>
</g>
<g>
</g>
<g>
</g>
<g>
</g>
<g>
</g>
<g>
</g>
<g>
</g>
<g>
</g>
<g>
</g>
<g>
</g>
<g>
</g>
</svg>
