<?xml version="1.0" encoding="iso-8859-1"?>
<!-- Generator: Adobe Illustrator 19.0.0, SVG Export Plug-In . SVG Version: 6.00 Build 0)  -->
<svg version="1.1" id="Capa_1" xmlns="http://www.w3.org/2000/svg" xmlns:xlink="http://www.w3.org/1999/xlink" x="0px" y="0px"
	 viewBox="0 0 512 512" style="enable-background:new 0 0 512 512;" xml:space="preserve">
<g>
	<g>
		<g>
			<path d="M494.933,0H17.067C7.645,0.011,0.011,7.645,0,17.067v477.867c0.011,9.421,7.645,17.056,17.067,17.067h477.867
				c9.421-0.011,17.056-7.645,17.067-17.067V17.067C511.989,7.645,504.355,0.011,494.933,0z M17.067,17.067h477.867V51.2H17.067
				V17.067z M17.067,494.933V68.267h477.868l0.008,426.667H17.067z"/>
			<path d="M93.867,25.6h-51.2c-4.713,0-8.533,3.821-8.533,8.533s3.82,8.533,8.533,8.533h51.2c4.713,0,8.533-3.82,8.533-8.533
				S98.579,25.6,93.867,25.6z"/>
			<path d="M145.067,25.6H128c-4.713,0-8.533,3.821-8.533,8.533s3.82,8.533,8.533,8.533h17.067c4.713,0,8.533-3.82,8.533-8.533
				S149.779,25.6,145.067,25.6z"/>
			<path d="M196.267,25.6H179.2c-4.713,0-8.533,3.821-8.533,8.533s3.82,8.533,8.533,8.533h17.067c4.713,0,8.533-3.82,8.533-8.533
				S200.979,25.6,196.267,25.6z"/>
			<path d="M247.467,25.6H230.4c-4.713,0-8.533,3.821-8.533,8.533s3.82,8.533,8.533,8.533h17.067c4.713,0,8.533-3.82,8.533-8.533
				S252.18,25.6,247.467,25.6z"/>
			<path d="M298.667,25.6H281.6c-4.713,0-8.533,3.821-8.533,8.533s3.82,8.533,8.533,8.533h17.067c4.713,0,8.533-3.82,8.533-8.533
				S303.38,25.6,298.667,25.6z"/>
			<path d="M477.867,25.6h-8.533c-4.713,0-8.533,3.821-8.533,8.533s3.82,8.533,8.533,8.533h8.533c4.713,0,8.533-3.82,8.533-8.533
				S482.58,25.6,477.867,25.6z"/>
			<path d="M452.267,93.867H59.733c-9.421,0.011-17.056,7.645-17.067,17.067v358.4c-0.001,2.263,0.898,4.434,2.499,6.035
				c1.6,1.6,3.771,2.499,6.035,2.499h409.6c2.263,0.001,4.434-0.898,6.035-2.499c1.6-1.6,2.499-3.771,2.499-6.035v-358.4
				C469.323,101.512,461.688,93.877,452.267,93.867z M110.933,460.8h-51.2V162.133h51.2V460.8z M452.267,460.8H128V162.133h324.267
				V460.8z M452.267,145.067H59.733v-34.133h392.533V145.067z"/>
			<path d="M76.8,136.533c1.115-0.014,2.216-0.246,3.242-0.683c1.033-0.435,1.985-1.041,2.817-1.791
				c1.571-1.628,2.457-3.797,2.475-6.059c-0.013-1.116-0.245-2.219-0.683-3.246c-0.411-1.044-1.02-1.999-1.791-2.813
				c-0.831-0.754-1.783-1.361-2.817-1.796c-3.178-1.339-6.849-0.63-9.301,1.796c-0.753,0.829-1.359,1.78-1.792,2.813
				c-0.438,1.027-0.67,2.13-0.683,3.246c-0.022,2.27,0.87,4.453,2.475,6.058C72.347,135.663,74.53,136.555,76.8,136.533z"/>
			<path d="M99.158,135.85c1.012,0.478,2.122,0.712,3.242,0.683c3.45-0.014,6.556-2.096,7.879-5.282
				c1.323-3.187,0.606-6.856-1.82-9.31c-2.496-2.339-6.113-3.037-9.3-1.796c-2.636,1.084-4.557,3.411-5.123,6.204
				s0.299,5.685,2.305,7.709C97.172,134.811,98.125,135.417,99.158,135.85z"/>
			<path d="M124.758,135.85c1.026,0.438,2.127,0.67,3.242,0.683c0.573-0.016,1.144-0.073,1.708-0.171
				c0.533-0.096,1.05-0.269,1.533-0.513c0.543-0.188,1.059-0.447,1.533-0.771c0.425-0.337,0.858-0.679,1.283-1.021
				c3.3-3.365,3.3-8.752,0-12.117c-0.406-0.368-0.835-0.71-1.283-1.025c-0.474-0.324-0.99-0.583-1.533-0.771
				c-0.483-0.244-1-0.416-1.533-0.509c-1.663-0.349-3.393-0.171-4.95,0.508c-1.045,0.413-2.001,1.023-2.817,1.796
				c-3.3,3.365-3.3,8.752,0,12.117C122.758,134.829,123.714,135.437,124.758,135.85z"/>
			<path d="M435.2,136.533c3.472,0.014,6.609-2.068,7.944-5.273c1.335-3.205,0.604-6.898-1.851-9.353
				c-2.455-2.455-6.148-3.186-9.353-1.851c-3.205,1.335-5.287,4.472-5.273,7.944c0.014,2.263,0.9,4.433,2.475,6.059
				C430.778,135.616,432.941,136.5,435.2,136.533z"/>
			<path d="M85.333,204.8c4.713,0,8.533-3.82,8.533-8.533v-8.533c0.001-2.263-0.898-4.434-2.499-6.035
				c-1.6-1.6-3.771-2.499-6.035-2.499c-2.263-0.001-4.434,0.898-6.035,2.499c-1.6,1.6-2.499,3.771-2.499,6.035v8.533
				C76.8,200.979,80.62,204.8,85.333,204.8z"/>
			<path d="M85.333,247.467c4.713,0,8.533-3.82,8.533-8.533V230.4c0.001-2.263-0.898-4.434-2.499-6.035
				c-1.6-1.6-3.771-2.499-6.035-2.499c-2.263-0.001-4.434,0.898-6.035,2.499c-1.6,1.6-2.499,3.771-2.499,6.035v8.533
				C76.8,243.646,80.62,247.467,85.333,247.467z"/>
			<path d="M85.333,290.133c4.713,0,8.533-3.82,8.533-8.533v-8.533c0.001-2.263-0.898-4.434-2.499-6.035
				c-1.6-1.6-3.771-2.499-6.035-2.499c-2.263-0.001-4.434,0.898-6.035,2.499c-1.6,1.6-2.499,3.771-2.499,6.035v8.533
				C76.8,286.313,80.62,290.133,85.333,290.133z"/>
			<path d="M85.333,332.8c4.713,0,8.533-3.82,8.533-8.533v-8.533c0.001-2.263-0.898-4.434-2.499-6.035
				c-1.6-1.6-3.771-2.499-6.035-2.499c-2.263-0.001-4.434,0.898-6.035,2.499s-2.499,3.771-2.499,6.035v8.533
				C76.8,328.979,80.62,332.8,85.333,332.8z"/>
			<path d="M85.333,375.467c4.713,0,8.533-3.82,8.533-8.533V358.4c0.001-2.263-0.898-4.434-2.499-6.035
				c-1.6-1.6-3.771-2.499-6.035-2.499c-2.263-0.001-4.434,0.898-6.035,2.499c-1.6,1.6-2.499,3.771-2.499,6.035v8.533
				C76.8,371.646,80.62,375.467,85.333,375.467z"/>
			<path d="M85.333,418.133c4.713,0,8.533-3.82,8.533-8.533v-8.533c0.001-2.263-0.898-4.434-2.499-6.035
				c-1.6-1.6-3.771-2.499-6.035-2.499c-2.263-0.001-4.434,0.898-6.035,2.499c-1.6,1.6-2.499,3.771-2.499,6.035v8.533
				C76.8,414.313,80.62,418.133,85.333,418.133z"/>
			<path d="M162.133,392.533H204.8c4.713,0,8.533-3.82,8.533-8.533s-3.821-8.533-8.533-8.533h-42.667
				c-4.713,0-8.533,3.82-8.533,8.533S157.421,392.533,162.133,392.533z"/>
			<path d="M273.067,375.467h-34.133c-4.713,0-8.533,3.82-8.533,8.533s3.82,8.533,8.533,8.533h34.133
				c4.713,0,8.533-3.82,8.533-8.533S277.779,375.467,273.067,375.467z"/>
			<path d="M298.667,384c0,4.713,3.82,8.533,8.533,8.533h119.467c4.713,0,8.533-3.82,8.533-8.533s-3.82-8.533-8.533-8.533H307.2
				C302.487,375.467,298.667,379.287,298.667,384z"/>
			<path d="M162.133,443.733H204.8c4.713,0,8.533-3.82,8.533-8.533s-3.821-8.533-8.533-8.533h-42.667
				c-4.713,0-8.533,3.82-8.533,8.533S157.421,443.733,162.133,443.733z"/>
			<path d="M273.067,426.667h-34.133c-4.713,0-8.533,3.82-8.533,8.533s3.82,8.533,8.533,8.533h34.133
				c4.713,0,8.533-3.82,8.533-8.533S277.779,426.667,273.067,426.667z"/>
			<path d="M426.667,426.667H307.2c-4.713,0-8.533,3.82-8.533,8.533s3.82,8.533,8.533,8.533h119.467c4.713,0,8.533-3.82,8.533-8.533
				S431.38,426.667,426.667,426.667z"/>
			<path d="M196.267,409.6c0,4.713,3.82,8.533,8.533,8.533h34.133c4.713,0,8.533-3.82,8.533-8.533s-3.82-8.533-8.533-8.533H204.8
				C200.087,401.067,196.267,404.887,196.267,409.6z"/>
			<path d="M267.032,403.565c-1.6,1.6-2.499,3.771-2.499,6.035c-0.001,2.263,0.898,4.434,2.499,6.035
				c1.6,1.6,3.771,2.499,6.035,2.499H332.8c4.713,0,8.533-3.82,8.533-8.533s-3.821-8.533-8.533-8.533h-59.733
				C270.803,401.066,268.633,401.965,267.032,403.565z"/>
			<path d="M392.533,418.133c4.713,0,8.533-3.82,8.533-8.533s-3.821-8.533-8.533-8.533h-25.6c-4.713,0-8.533,3.82-8.533,8.533
				s3.82,8.533,8.533,8.533H392.533z"/>
			<path d="M221.867,349.867c13.36-0.04,25.922-6.362,33.915-17.067h68.703c13.181,17.833,37.867,22.516,56.662,10.747
				c18.795-11.768,25.364-36.021,15.078-55.667c-0.065-0.185-0.039-0.377-0.117-0.56L356.3,194.658
				c-0.061-0.143-0.186-0.229-0.254-0.367c-4.933-11.003-16.889-17.057-28.678-14.521c-11.789,2.536-20.197,12.972-20.169,25.03
				c0,0.218,0.033,0.433,0.04,0.651l-0.007,0.057l0.039,0.465c0.038,0.741,0.066,1.483,0.137,2.219
				c0.008,0.083,0.057,0.149,0.068,0.232l0.41,4.91h-35.504l0.41-4.91c0.01-0.083,0.06-0.148,0.068-0.232
				c0.071-0.736,0.098-1.478,0.136-2.219l0.039-0.465l-0.007-0.057c0.006-0.218,0.04-0.433,0.04-0.651
				c0.031-12.046-8.36-22.475-20.133-25.022c-11.773-2.547-23.726,3.48-28.677,14.462c-0.079,0.156-0.22,0.256-0.29,0.419
				l-39.808,92.663c-0.079,0.183-0.053,0.375-0.117,0.56c-3.135,5.96-4.796,12.585-4.841,19.319
				C179.228,330.753,198.314,349.839,221.867,349.867z M384,307.2c-0.015,14.132-11.468,25.585-25.6,25.6
				c-14.138,0-25.6-11.461-25.6-25.6s11.462-25.6,25.6-25.6S384,293.062,384,307.2z M332.8,196.267
				c3.316-0.001,6.326,1.941,7.692,4.962l0.683,1.708c0.072,0.179,0.223,0.293,0.305,0.465l26.809,62.404
				c-13.516-3.441-27.856,0.186-38.11,9.641l-4.465-53.573l0.001-0.007l-0.004-0.018l-1.428-17.139
				C324.333,200.039,328.129,196.275,332.8,196.267z M270.959,230.4h38.349l3.555,42.667h-45.459L270.959,230.4z M264.44,308.124
				c0.008-0.077,0.054-0.138,0.06-0.216l1.481-17.775h48.304l1.481,17.775c0.006,0.078,0.051,0.139,0.06,0.216
				c0.029,2.554,0.287,5.101,0.769,7.609h-52.925C264.154,313.225,264.411,310.678,264.44,308.124z M238.786,203.403
				c0.082-0.172,0.233-0.285,0.305-0.465l0.617-1.558c1.343-3.093,4.387-5.099,7.758-5.113c4.671,0.009,8.467,3.772,8.515,8.443
				l-1.428,17.139l-0.004,0.018l0.002,0.007l-4.465,53.573c-10.254-9.455-24.594-13.082-38.11-9.641L238.786,203.403z
				 M221.867,281.6c14.138,0,25.6,11.461,25.6,25.6c-0.015,14.132-11.468,25.585-25.6,25.6c-14.138,0-25.6-11.461-25.6-25.6
				S207.728,281.6,221.867,281.6z"/>
		</g>
	</g>
</g>
<g>
</g>
<g>
</g>
<g>
</g>
<g>
</g>
<g>
</g>
<g>
</g>
<g>
</g>
<g>
</g>
<g>
</g>
<g>
</g>
<g>
</g>
<g>
</g>
<g>
</g>
<g>
</g>
<g>
</g>
</svg>
