<?xml version="1.0" encoding="iso-8859-1"?>
<!-- Generator: Adobe Illustrator 19.0.0, SVG Export Plug-In . SVG Version: 6.00 Build 0)  -->
<svg version="1.1" id="Capa_1" xmlns="http://www.w3.org/2000/svg" xmlns:xlink="http://www.w3.org/1999/xlink" x="0px" y="0px"
	 viewBox="0 0 512 512" style="enable-background:new 0 0 512 512;" xml:space="preserve">
<g>
	<g>
		<g>
			<path d="M494.933,0H17.067C7.645,0.011,0.011,7.645,0,17.067v477.867c0.011,9.421,7.645,17.056,17.067,17.067h477.867
				c9.421-0.011,17.056-7.645,17.067-17.067V17.067C511.989,7.645,504.355,0.011,494.933,0z M17.067,17.067h477.867V51.2H17.067
				V17.067z M17.067,494.933V68.267h477.868l0.008,426.667H17.067z"/>
			<path d="M93.867,25.6h-51.2c-4.713,0-8.533,3.821-8.533,8.533s3.82,8.533,8.533,8.533h51.2c4.713,0,8.533-3.82,8.533-8.533
				S98.579,25.6,93.867,25.6z"/>
			<path d="M145.067,25.6H128c-4.713,0-8.533,3.821-8.533,8.533s3.82,8.533,8.533,8.533h17.067c4.713,0,8.533-3.82,8.533-8.533
				S149.779,25.6,145.067,25.6z"/>
			<path d="M196.267,25.6H179.2c-4.713,0-8.533,3.821-8.533,8.533s3.82,8.533,8.533,8.533h17.067c4.713,0,8.533-3.82,8.533-8.533
				S200.979,25.6,196.267,25.6z"/>
			<path d="M247.467,25.6H230.4c-4.713,0-8.533,3.821-8.533,8.533s3.82,8.533,8.533,8.533h17.067c4.713,0,8.533-3.82,8.533-8.533
				S252.18,25.6,247.467,25.6z"/>
			<path d="M298.667,25.6H281.6c-4.713,0-8.533,3.821-8.533,8.533s3.82,8.533,8.533,8.533h17.067c4.713,0,8.533-3.82,8.533-8.533
				S303.38,25.6,298.667,25.6z"/>
			<path d="M477.867,25.6h-8.533c-4.713,0-8.533,3.821-8.533,8.533s3.82,8.533,8.533,8.533h8.533c4.713,0,8.533-3.82,8.533-8.533
				S482.58,25.6,477.867,25.6z"/>
			<path d="M452.267,93.867H59.733c-9.421,0.011-17.056,7.645-17.067,17.067v358.4c-0.001,2.263,0.898,4.434,2.499,6.035
				c1.6,1.6,3.771,2.499,6.035,2.499h409.6c2.263,0.001,4.434-0.898,6.035-2.499c1.6-1.6,2.499-3.771,2.499-6.035v-358.4
				C469.323,101.512,461.688,93.877,452.267,93.867z M110.933,460.8h-51.2V162.133h51.2V460.8z M452.267,460.8H128V162.133h324.267
				V460.8z M452.267,145.067H59.733v-34.133h392.533V145.067z"/>
			<path d="M70.741,134.059c3.346,3.346,8.771,3.346,12.117,0c3.346-3.346,3.346-8.771,0-12.117
				c-0.831-0.754-1.783-1.361-2.817-1.796c-2.078-0.85-4.406-0.85-6.483,0c-2.141,0.78-3.828,2.467-4.608,4.608
				c-0.911,2.067-0.911,4.421,0,6.487C69.363,132.286,69.971,133.242,70.741,134.059z"/>
			<path d="M99.158,135.85c1.025,0.438,2.127,0.67,3.242,0.683c0.542-0.016,1.083-0.073,1.617-0.171
				c0.566-0.082,1.115-0.255,1.625-0.513c0.543-0.188,1.059-0.447,1.533-0.771c0.425-0.337,0.858-0.679,1.283-1.021
				c3.3-3.365,3.3-8.752,0-12.117c-0.425-0.341-0.858-0.683-1.283-1.025c-0.474-0.324-0.99-0.583-1.533-0.771
				c-0.51-0.258-1.059-0.43-1.625-0.508c-2.778-0.482-5.621,0.372-7.675,2.304c-3.3,3.365-3.3,8.752,0,12.117
				C97.144,134.847,98.104,135.457,99.158,135.85z"/>
			<path d="M123.217,135.079c0.477,0.324,0.996,0.583,1.542,0.771c0.483,0.245,1,0.418,1.533,0.513
				c0.565,0.094,1.136,0.151,1.708,0.171c0.542-0.016,1.083-0.073,1.617-0.171c0.566-0.082,1.115-0.255,1.625-0.513
				c0.543-0.188,1.059-0.447,1.533-0.771c0.425-0.337,0.858-0.679,1.283-1.021c3.3-3.365,3.3-8.752,0-12.117
				c-0.425-0.341-0.858-0.683-1.283-1.025c-0.475-0.324-0.99-0.583-1.533-0.771c-0.51-0.258-1.059-0.43-1.625-0.508
				c-1.093-0.258-2.232-0.258-3.325,0c-0.534,0.091-1.051,0.263-1.533,0.508c-0.546,0.187-1.064,0.447-1.542,0.771l-1.275,1.025
				c-3.3,3.365-3.3,8.752,0,12.117C122.367,134.4,122.792,134.741,123.217,135.079z"/>
			<path d="M435.2,136.533c0.573-0.016,1.144-0.073,1.708-0.171c0.533-0.096,1.05-0.269,1.533-0.513
				c0.543-0.188,1.059-0.447,1.533-0.771c0.449-0.313,0.877-0.654,1.284-1.021c1.557-1.637,2.44-3.8,2.475-6.059
				c-0.013-0.544-0.071-1.086-0.175-1.621c-0.076-0.567-0.248-1.116-0.508-1.625c-0.189-0.542-0.446-1.057-0.767-1.533
				c-0.341-0.429-0.683-0.854-1.025-1.279c-0.406-0.368-0.835-0.71-1.283-1.025c-0.475-0.324-0.99-0.583-1.533-0.771
				c-0.483-0.244-1-0.416-1.533-0.508c-2.811-0.575-5.724,0.289-7.767,2.304c-3.3,3.365-3.3,8.752,0,12.117
				C430.768,135.631,432.938,136.517,435.2,136.533z"/>
			<path d="M85.333,204.8c4.713,0,8.533-3.82,8.533-8.533v-8.533c0.001-2.263-0.898-4.434-2.499-6.035
				c-1.6-1.6-3.771-2.499-6.035-2.499c-2.263-0.001-4.434,0.898-6.035,2.499c-1.6,1.6-2.499,3.771-2.499,6.035v8.533
				C76.8,200.979,80.62,204.8,85.333,204.8z"/>
			<path d="M85.333,247.467c4.713,0,8.533-3.82,8.533-8.533V230.4c0.001-2.263-0.898-4.434-2.499-6.035
				c-1.6-1.6-3.771-2.499-6.035-2.499c-2.263-0.001-4.434,0.898-6.035,2.499c-1.6,1.6-2.499,3.771-2.499,6.035v8.533
				C76.8,243.646,80.62,247.467,85.333,247.467z"/>
			<path d="M85.333,290.133c4.713,0,8.533-3.82,8.533-8.533v-8.533c0.001-2.263-0.898-4.434-2.499-6.035
				c-1.6-1.6-3.771-2.499-6.035-2.499c-2.263-0.001-4.434,0.898-6.035,2.499c-1.6,1.6-2.499,3.771-2.499,6.035v8.533
				C76.8,286.313,80.62,290.133,85.333,290.133z"/>
			<path d="M85.333,332.8c4.713,0,8.533-3.82,8.533-8.533v-8.533c0.001-2.263-0.898-4.434-2.499-6.035
				c-1.6-1.6-3.771-2.499-6.035-2.499c-2.263-0.001-4.434,0.898-6.035,2.499s-2.499,3.771-2.499,6.035v8.533
				C76.8,328.979,80.62,332.8,85.333,332.8z"/>
			<path d="M85.333,375.467c4.713,0,8.533-3.82,8.533-8.533V358.4c0.001-2.263-0.898-4.434-2.499-6.035
				c-1.6-1.6-3.771-2.499-6.035-2.499c-2.263-0.001-4.434,0.898-6.035,2.499c-1.6,1.6-2.499,3.771-2.499,6.035v8.533
				C76.8,371.646,80.62,375.467,85.333,375.467z"/>
			<path d="M85.333,418.133c4.713,0,8.533-3.82,8.533-8.533v-8.533c0.001-2.263-0.898-4.434-2.499-6.035
				c-1.6-1.6-3.771-2.499-6.035-2.499c-2.263-0.001-4.434,0.898-6.035,2.499c-1.6,1.6-2.499,3.771-2.499,6.035v8.533
				C76.8,414.313,80.62,418.133,85.333,418.133z"/>
			<path d="M264.533,221.867H256c-4.713,0-8.533,3.82-8.533,8.533s3.82,8.533,8.533,8.533h8.533
				c2.263,0.001,4.434-0.898,6.035-2.499c1.6-1.6,2.499-3.771,2.499-6.035c0.001-2.263-0.898-4.434-2.499-6.035
				C268.968,222.765,266.797,221.866,264.533,221.867z"/>
			<path d="M324.267,221.867h-8.533c-4.713,0-8.533,3.82-8.533,8.533s3.82,8.533,8.533,8.533h8.533c4.713,0,8.533-3.82,8.533-8.533
				S328.979,221.867,324.267,221.867z"/>
			<path d="M180.833,400.87c-1.055,2.791-1.608,5.746-1.633,8.73c0,14.138,11.461,25.6,25.6,25.6s25.6-11.461,25.6-25.6
				S218.938,384,204.8,384c-4.049,0.028-8.032,1.028-11.614,2.916c-0.201-0.561-0.467-1.089-0.644-1.662
				c-1.607-5.07-2.422-10.357-2.417-15.675c-0.013-4.505,0.55-8.992,1.675-13.354c1.007-3.905,2.55-7.651,4.583-11.133
				c1.274-2.077,2.751-4.023,4.409-5.808c4.445,11.46,15.441,19.04,27.732,19.116c0.809,0,1.584-0.214,2.385-0.279l7.006,45.541
				c1.249,8.346,8.436,14.51,16.875,14.471h70.683c8.44,0.038,15.628-6.127,16.875-14.475l7.005-45.535
				c0.797,0.064,1.565,0.277,2.37,0.277c12.302-0.059,23.311-7.649,27.741-19.126c1.644,1.765,3.107,3.69,4.368,5.747
				c2.057,3.496,3.614,7.263,4.625,11.192c1.131,4.365,1.697,8.857,1.683,13.367c0.003,5.341-0.818,10.651-2.433,15.742
				c-0.171,0.547-0.43,1.059-0.622,1.598c-3.583-1.89-7.569-2.891-11.62-2.919c-14.138,0-25.6,11.462-25.6,25.6
				s11.461,25.6,25.6,25.6s25.6-11.461,25.6-25.6c-0.026-2.983-0.578-5.938-1.633-8.729c1.861-3.322,3.387-6.819,4.558-10.442
				c2.138-6.743,3.223-13.776,3.217-20.85c0.015-5.973-0.738-11.923-2.242-17.704c-1.424-5.503-3.618-10.777-6.517-15.667
				c-2.703-4.553-6.096-8.659-10.058-12.171c-2.653-2.257-5.581-4.169-8.714-5.691c-3.966-10.612-13.558-18.096-24.816-19.362
				c-2.972-5.477-8.714-8.877-14.945-8.851h-15.65v-17.067h25.6c6.337-0.023,12.137-3.565,15.05-9.192
				c16.035-3.104,27.616-17.142,27.616-33.474c0-16.332-11.581-30.371-27.616-33.474c-2.914-5.628-8.713-9.17-15.05-9.192H230.4
				c-6.337,0.023-12.137,3.565-15.05,9.192c-16.035,3.104-27.616,17.142-27.616,33.474c0,16.332,11.582,30.371,27.616,33.474
				c2.914,5.627,8.713,9.17,15.05,9.192H256v17.067h-15.65c-6.23-0.028-11.971,3.371-14.942,8.847
				c-11.277,1.252-20.889,8.748-24.851,19.381c-3.121,1.52-6.038,3.427-8.683,5.677c-3.982,3.534-7.392,7.663-10.108,12.242
				c-2.875,4.875-5.055,10.129-6.475,15.608c-1.498,5.778-2.248,11.723-2.233,17.692c-0.009,7.051,1.07,14.061,3.2,20.783
				C177.43,394.008,178.963,397.528,180.833,400.87z M204.8,401.067c4.711,0.005,8.529,3.822,8.533,8.533
				c0,4.713-3.821,8.533-8.533,8.533s-8.533-3.82-8.533-8.533S200.087,401.067,204.8,401.067z M375.467,418.133
				c-4.713,0-8.533-3.82-8.533-8.533s3.82-8.533,8.533-8.533S384,404.887,384,409.6
				C383.995,414.311,380.178,418.129,375.467,418.133z M355.763,316.476c5.184,1.752,8.696,6.586,8.762,12.058
				c0.015,1.196-0.162,2.386-0.525,3.525c-1.57,5.382-6.451,9.122-12.056,9.239L355.763,316.476z M366.933,215.708
				c5.262,3.024,8.513,8.623,8.533,14.692c-0.02,6.069-3.272,11.668-8.533,14.692V215.708z M213.333,245.092
				c-5.262-3.024-8.514-8.623-8.533-14.692c0.02-6.069,3.272-11.668,8.533-14.692V245.092z M230.4,256v-51.2h119.467l0.008,51.159
				L349.867,256H230.4z M307.2,273.067v17.067h-34.133v-17.067H307.2z M339.925,307.2l-14.442,93.858l-0.008,0.009h-70.692
				L240.35,307.2H339.925z M224.503,316.477l3.819,24.823c-5.698-0.137-10.634-3.986-12.156-9.479
				c-0.317-1.066-0.466-2.175-0.441-3.287C215.791,323.057,219.312,318.221,224.503,316.477z"/>
			<path d="M281.6,375.467h17.067c9.421-0.011,17.056-7.645,17.067-17.067v-17.067c-0.011-9.421-7.645-17.056-17.067-17.067H281.6
				c-9.421,0.011-17.056,7.646-17.067,17.067V358.4C264.544,367.821,272.179,375.456,281.6,375.467z M281.6,341.333h17.067V358.4
				H281.6V341.333z"/>
		</g>
	</g>
</g>
<g>
</g>
<g>
</g>
<g>
</g>
<g>
</g>
<g>
</g>
<g>
</g>
<g>
</g>
<g>
</g>
<g>
</g>
<g>
</g>
<g>
</g>
<g>
</g>
<g>
</g>
<g>
</g>
<g>
</g>
</svg>
