<?xml version="1.0" encoding="iso-8859-1"?>
<!-- Generator: Adobe Illustrator 19.0.0, SVG Export Plug-In . SVG Version: 6.00 Build 0)  -->
<svg version="1.1" id="Capa_1" xmlns="http://www.w3.org/2000/svg" xmlns:xlink="http://www.w3.org/1999/xlink" x="0px" y="0px"
	 viewBox="0 0 512 512" style="enable-background:new 0 0 512 512;" xml:space="preserve">
<g>
	<g>
		<g>
			<path d="M494.933,0H17.067C7.645,0.011,0.011,7.645,0,17.067v477.867c0.011,9.421,7.645,17.056,17.067,17.067h477.867
				c9.421-0.011,17.056-7.645,17.067-17.067V17.067C511.989,7.645,504.355,0.011,494.933,0z M494.934,17.067V51.2H435.2V25.6
				c-0.029-2.914-0.561-5.801-1.572-8.533H494.934z M256,409.6h42.667v51.2h-179.2V162.133h151.725
				c-4.265,4.663-6.639,10.748-6.658,17.067v153.6c0.015,14.132,11.468,25.585,25.6,25.6c4.711,0.005,8.529,3.822,8.533,8.533v25.6
				H256c-4.713,0-8.533,3.821-8.533,8.533S251.287,409.6,256,409.6z M51.2,145.067v-34.133h247.467v34.133H51.2z M102.4,162.133
				V460.8H51.2V162.133H102.4z M290.133,341.333c-4.711-0.005-8.529-3.823-8.533-8.533V179.2c0.005-4.711,3.822-8.529,8.533-8.533
				h153.6c4.711,0.005,8.529,3.822,8.533,8.533v153.6c-0.005,4.711-3.822,8.529-8.533,8.533H290.133z M315.733,145.067V25.6
				c0.005-4.711,3.822-8.529,8.533-8.533H409.6c4.711,0.005,8.529,3.822,8.533,8.533v25.6h-76.8c-4.713,0-8.533,3.82-8.533,8.533
				s3.821,8.533,8.533,8.533h76.8v17.067h-76.8c-4.713,0-8.533,3.821-8.533,8.533c0,4.713,3.821,8.533,8.533,8.533h76.8v17.067
				h-76.8c-4.713,0-8.533,3.82-8.533,8.533s3.821,8.533,8.533,8.533h76.8v8.533c0.029,2.914,0.561,5.801,1.573,8.533H314.161
				C315.173,150.867,315.705,147.98,315.733,145.067z M17.067,17.067h283.172c-1.012,2.733-1.544,5.62-1.572,8.533v25.6h-281.6
				V17.067z M17.067,494.933V68.267h281.6v25.6H51.2c-9.421,0.011-17.056,7.645-17.067,17.067v358.4
				c-0.001,2.263,0.898,4.434,2.499,6.035c1.6,1.6,3.771,2.499,6.035,2.499h256v8.533c0.029,2.914,0.561,5.801,1.573,8.533H17.067z
				 M418.133,366.933v8.533h-76.8c-4.713,0-8.533,3.82-8.533,8.533s3.821,8.533,8.533,8.533h76.8V409.6h-76.8
				c-4.713,0-8.533,3.82-8.533,8.533s3.821,8.533,8.533,8.533h76.8v17.067h-76.8c-4.713,0-8.533,3.821-8.533,8.533
				c0,4.713,3.821,8.533,8.533,8.533h76.8v25.6c-0.005,4.711-3.822,8.529-8.533,8.533h-85.333c-4.711-0.005-8.529-3.822-8.533-8.533
				V366.933c-0.029-2.914-0.561-5.801-1.572-8.533h105.545C418.694,361.133,418.162,364.02,418.133,366.933z M433.628,494.933
				c1.012-2.733,1.544-5.62,1.572-8.533V366.933c0.005-4.711,3.822-8.529,8.533-8.533c14.132-0.015,25.585-11.468,25.6-25.6V179.2
				c-0.015-14.132-11.468-25.585-25.6-25.6c-4.711-0.005-8.529-3.823-8.533-8.533v-76.8h59.734l0.008,426.667H433.628z"/>
			<path d="M93.867,25.6h-51.2c-4.713,0-8.533,3.821-8.533,8.533s3.82,8.533,8.533,8.533h51.2c4.713,0,8.533-3.82,8.533-8.533
				S98.579,25.6,93.867,25.6z"/>
			<path d="M145.067,25.6H128c-4.713,0-8.533,3.821-8.533,8.533s3.82,8.533,8.533,8.533h17.067c4.713,0,8.533-3.82,8.533-8.533
				S149.779,25.6,145.067,25.6z"/>
			<path d="M196.267,25.6H179.2c-4.713,0-8.533,3.821-8.533,8.533s3.82,8.533,8.533,8.533h17.067c4.713,0,8.533-3.82,8.533-8.533
				S200.979,25.6,196.267,25.6z"/>
			<path d="M247.467,25.6H230.4c-4.713,0-8.533,3.821-8.533,8.533s3.82,8.533,8.533,8.533h17.067c4.713,0,8.533-3.82,8.533-8.533
				S252.18,25.6,247.467,25.6z"/>
			<path d="M62.208,121.941c-0.772,0.814-1.38,1.769-1.792,2.813c-0.438,1.027-0.67,2.13-0.683,3.246
				c-0.022,2.27,0.87,4.453,2.475,6.058c1.605,1.605,3.788,2.497,6.058,2.475c1.115-0.014,2.216-0.246,3.242-0.683
				c1.033-0.435,1.985-1.041,2.817-1.791c3.346-3.346,3.346-8.771,0-12.117C70.979,118.595,65.554,118.595,62.208,121.941z"/>
			<path d="M99.925,121.942c-3.421-3.158-8.695-3.158-12.117,0c-0.772,0.814-1.38,1.769-1.792,2.813
				c-0.481,1.013-0.714,2.125-0.683,3.246c-0.022,2.27,0.87,4.453,2.475,6.058c1.605,1.605,3.788,2.497,6.058,2.475
				c2.27,0.022,4.453-0.87,6.058-2.475c1.605-1.605,2.497-3.788,2.475-6.058c-0.013-1.116-0.245-2.219-0.683-3.246
				C101.305,123.711,100.697,122.756,99.925,121.942z"/>
			<path d="M116.196,119.871c-3.829,1.564-6.015,5.618-5.219,9.677c0.797,4.058,4.354,6.985,8.49,6.986
				c0.542-0.016,1.083-0.073,1.617-0.171c0.566-0.082,1.115-0.255,1.625-0.513c0.524-0.171,1.015-0.432,1.45-0.771
				c0.49-0.291,0.948-0.633,1.367-1.021c2.953-2.896,3.444-7.476,1.171-10.932C124.424,119.672,120.024,118.307,116.196,119.871z"/>
			<path d="M76.8,204.8c4.713,0,8.533-3.82,8.533-8.533v-8.533c0.001-2.263-0.898-4.434-2.499-6.035
				c-1.6-1.6-3.771-2.499-6.035-2.499c-2.263-0.001-4.434,0.898-6.035,2.499c-1.6,1.6-2.499,3.771-2.499,6.035v8.533
				C68.267,200.979,72.087,204.8,76.8,204.8z"/>
			<path d="M76.8,247.467c4.713,0,8.533-3.82,8.533-8.533V230.4c0.001-2.263-0.898-4.434-2.499-6.035
				c-1.6-1.6-3.771-2.499-6.035-2.499c-2.263-0.001-4.434,0.898-6.035,2.499c-1.6,1.6-2.499,3.771-2.499,6.035v8.533
				C68.267,243.646,72.087,247.467,76.8,247.467z"/>
			<path d="M76.8,290.133c4.713,0,8.533-3.82,8.533-8.533v-8.533c0.001-2.263-0.898-4.434-2.499-6.035
				c-1.6-1.6-3.771-2.499-6.035-2.499c-2.263-0.001-4.434,0.898-6.035,2.499c-1.6,1.6-2.499,3.771-2.499,6.035v8.533
				C68.267,286.313,72.087,290.133,76.8,290.133z"/>
			<path d="M76.8,332.8c4.713,0,8.533-3.82,8.533-8.533v-8.533c0.001-2.263-0.898-4.434-2.499-6.035
				c-1.6-1.6-3.771-2.499-6.035-2.499c-2.263-0.001-4.434,0.898-6.035,2.499s-2.499,3.771-2.499,6.035v8.533
				C68.267,328.979,72.087,332.8,76.8,332.8z"/>
			<path d="M76.8,375.467c4.713,0,8.533-3.82,8.533-8.533V358.4c0.001-2.263-0.898-4.434-2.499-6.035
				c-1.6-1.6-3.771-2.499-6.035-2.499c-2.263-0.001-4.434,0.898-6.035,2.499c-1.6,1.6-2.499,3.771-2.499,6.035v8.533
				C68.267,371.646,72.087,375.467,76.8,375.467z"/>
			<path d="M76.8,418.133c4.713,0,8.533-3.82,8.533-8.533v-8.533c0.001-2.263-0.898-4.434-2.499-6.035
				c-1.6-1.6-3.771-2.499-6.035-2.499c-2.263-0.001-4.434,0.898-6.035,2.499c-1.6,1.6-2.499,3.771-2.499,6.035v8.533
				C68.267,414.313,72.087,418.133,76.8,418.133z"/>
			<path d="M145.067,196.267h25.6c4.713,0,8.533-3.82,8.533-8.533s-3.82-8.533-8.533-8.533h-25.6c-4.713,0-8.533,3.82-8.533,8.533
				S140.354,196.267,145.067,196.267z"/>
			<path d="M204.8,196.267h34.133c4.713,0,8.533-3.82,8.533-8.533s-3.82-8.533-8.533-8.533H204.8c-4.713,0-8.533,3.82-8.533,8.533
				S200.087,196.267,204.8,196.267z"/>
			<path d="M173.165,207.299c-1.6,1.6-2.499,3.771-2.499,6.035c-0.001,2.263,0.898,4.434,2.499,6.035
				c1.6,1.6,3.771,2.499,6.035,2.499h17.067c4.713,0,8.533-3.821,8.533-8.533c0-4.713-3.82-8.533-8.533-8.533H179.2
				C176.937,204.799,174.766,205.698,173.165,207.299z"/>
			<path d="M145.067,247.467h42.667c4.713,0,8.533-3.82,8.533-8.533s-3.82-8.533-8.533-8.533h-42.667
				c-4.713,0-8.533,3.82-8.533,8.533S140.354,247.467,145.067,247.467z"/>
			<path d="M238.933,230.4h-22.758c-4.713,0-8.533,3.82-8.533,8.533s3.82,8.533,8.533,8.533h22.758c4.713,0,8.533-3.82,8.533-8.533
				S243.646,230.4,238.933,230.4z"/>
			<path d="M145.067,290.133h76.8c4.713,0,8.533-3.82,8.533-8.533s-3.82-8.533-8.533-8.533h-76.8c-4.713,0-8.533,3.821-8.533,8.533
				S140.354,290.133,145.067,290.133z"/>
			<path d="M170.667,298.667c-4.713,0-8.533,3.82-8.533,8.533s3.82,8.533,8.533,8.533h17.067c4.713,0,8.533-3.82,8.533-8.533
				s-3.82-8.533-8.533-8.533H170.667z"/>
			<path d="M238.933,298.667h-22.758c-4.713,0-8.533,3.82-8.533,8.533s3.82,8.533,8.533,8.533h22.758
				c4.713,0,8.533-3.82,8.533-8.533S243.646,298.667,238.933,298.667z"/>
			<path d="M145.067,341.333h76.8c4.713,0,8.533-3.821,8.533-8.533c0-4.713-3.82-8.533-8.533-8.533h-76.8
				c-4.713,0-8.533,3.821-8.533,8.533C136.533,337.513,140.354,341.333,145.067,341.333z"/>
			<path d="M145.067,384h42.667c4.713,0,8.533-3.82,8.533-8.533s-3.82-8.533-8.533-8.533h-42.667c-4.713,0-8.533,3.82-8.533,8.533
				S140.354,384,145.067,384z"/>
			<path d="M264.533,375.467c0-4.713-3.82-8.533-8.533-8.533h-34.133c-4.713,0-8.533,3.82-8.533,8.533s3.82,8.533,8.533,8.533H256
				C260.713,384,264.533,380.18,264.533,375.467z"/>
			<path d="M187.733,418.133h-42.667c-4.713,0-8.533,3.82-8.533,8.533s3.82,8.533,8.533,8.533h42.667
				c4.713,0,8.533-3.82,8.533-8.533S192.446,418.133,187.733,418.133z"/>
			<path d="M215.832,420.632c-1.6,1.6-2.499,3.771-2.499,6.035c-0.001,2.263,0.898,4.434,2.499,6.035
				c1.6,1.6,3.771,2.499,6.035,2.499H256c4.713,0,8.533-3.82,8.533-8.533s-3.82-8.533-8.533-8.533h-34.133
				C219.603,418.133,217.432,419.032,215.832,420.632z"/>
			<path d="M181.699,395.032c-1.6,1.6-2.499,3.771-2.499,6.035c-0.001,2.263,0.898,4.434,2.499,6.035
				c1.6,1.6,3.771,2.499,6.035,2.499h34.133c4.713,0,8.533-3.82,8.533-8.533s-3.82-8.533-8.533-8.533h-34.133
				C185.47,392.533,183.299,393.432,181.699,395.032z"/>
			<path d="M366.933,213.333c-23.564,0-42.667,19.102-42.667,42.667c0.028,23.553,19.114,42.639,42.667,42.667
				c23.564,0,42.667-19.103,42.667-42.667S390.497,213.333,366.933,213.333z M366.933,281.6c-14.138,0-25.6-11.462-25.6-25.6
				c0.015-14.132,11.468-25.585,25.6-25.6c14.138,0,25.6,11.461,25.6,25.6S381.072,281.6,366.933,281.6z"/>
			<path d="M360.875,193.792c0.817,0.771,1.773,1.379,2.817,1.792c1.026,0.437,2.127,0.669,3.242,0.683
				c2.259-0.035,4.421-0.918,6.059-2.475c0.771-0.816,1.379-1.772,1.792-2.817c0.911-2.067,0.911-4.421,0-6.487
				c-0.433-1.033-1.039-1.984-1.792-2.813c-2.456-2.416-6.121-3.124-9.3-1.796c-1.045,0.413-2.002,1.022-2.817,1.795
				c-0.753,0.829-1.359,1.78-1.792,2.813c-0.911,2.067-0.911,4.421,0,6.487C359.495,192.019,360.104,192.975,360.875,193.792z"/>
			<path d="M372.992,318.208c-2.471-2.387-6.118-3.091-9.3-1.796c-1.045,0.413-2.002,1.023-2.817,1.796
				c-0.753,0.829-1.359,1.78-1.792,2.813c-0.481,1.013-0.715,2.125-0.683,3.246c0.03,2.26,0.914,4.424,2.475,6.059
				c0.817,0.771,1.773,1.379,2.817,1.792c1.026,0.437,2.127,0.669,3.242,0.683c2.27,0.022,4.453-0.87,6.058-2.475
				c1.605-1.605,2.497-3.788,2.475-6.058c-0.013-1.116-0.245-2.219-0.683-3.246C374.351,319.988,373.745,319.037,372.992,318.208z"
				/>
			<path d="M315.392,215.637c1.031,0.41,2.132,0.612,3.242,0.596c0.575,0.028,1.151-0.03,1.708-0.171
				c0.547-0.111,1.086-0.253,1.617-0.425c0.502-0.252,0.987-0.537,1.45-0.854c0.469-0.287,0.9-0.632,1.283-1.025
				c1.571-1.628,2.457-3.797,2.475-6.059c0.015-1.109-0.189-2.211-0.6-3.242c-0.474-1.006-1.107-1.929-1.875-2.733
				c-2.458-2.406-6.102-3.14-9.3-1.875c-2.055,0.911-3.697,2.553-4.608,4.608c-0.438,1.025-0.67,2.127-0.683,3.242
				c-0.006,2.283,0.917,4.471,2.558,6.059C313.441,214.554,314.369,215.192,315.392,215.637z"/>
			<path d="M409.175,298.238c-0.395,0.381-0.74,0.81-1.025,1.279c-0.317,0.466-0.603,0.952-0.858,1.454
				c-0.181,0.529-0.323,1.071-0.425,1.621c-0.138,0.557-0.194,1.131-0.167,1.704c-0.018,1.11,0.183,2.213,0.592,3.246
				c0.466,1.036,1.103,1.987,1.883,2.813c1.626,1.574,3.796,2.461,6.059,2.475c2.235-0.017,4.376-0.904,5.967-2.475
				c1.606-1.612,2.525-3.783,2.567-6.059c0.007-2.285-0.92-4.474-2.567-6.059C417.814,295.078,412.561,295.079,409.175,298.238z"/>
			<path d="M304.725,249.942c-3.421-3.158-8.695-3.158-12.117,0c-0.753,0.829-1.359,1.78-1.792,2.813
				c-0.481,1.013-0.714,2.125-0.683,3.246c0.03,2.26,0.914,4.424,2.475,6.059c0.425,0.341,0.85,0.683,1.275,1.021
				c0.477,0.324,0.996,0.583,1.542,0.771c0.483,0.245,1,0.418,1.533,0.513c0.565,0.094,1.136,0.151,1.709,0.17
				c0.542-0.016,1.083-0.073,1.617-0.171c0.566-0.082,1.115-0.255,1.625-0.513c0.524-0.171,1.015-0.432,1.45-0.771
				c0.508-0.337,0.942-0.679,1.367-1.021c1.557-1.637,2.441-3.8,2.475-6.059c-0.013-1.116-0.245-2.219-0.683-3.246
				C306.084,251.721,305.478,250.77,304.725,249.942z"/>
			<path d="M435.2,247.467c-4.713,0-8.533,3.82-8.533,8.533c0.018,0.571,0.074,1.14,0.167,1.704c0.096,0.535,0.27,1.053,0.517,1.537
				c0.184,0.545,0.442,1.062,0.767,1.538c0.317,0.446,0.659,0.873,1.025,1.279c3.365,3.3,8.752,3.3,12.117,0
				c0.341-0.429,0.683-0.854,1.025-1.279c0.321-0.477,0.579-0.994,0.767-1.538c0.247-0.483,0.419-1.002,0.508-1.538
				c0.1-0.563,0.158-1.133,0.175-1.704C443.733,251.287,439.913,247.467,435.2,247.467z"/>
			<path d="M324.692,298.238c-1.579-1.627-3.75-2.544-6.017-2.544c-2.267,0-4.438,0.918-6.017,2.544
				c-0.821,0.76-1.462,1.694-1.875,2.733c-0.43,1.057-0.661,2.184-0.683,3.325c0.011,2.255,0.934,4.41,2.558,5.975
				c0.758,0.823,1.693,1.464,2.734,1.875c1.025,0.439,2.127,0.672,3.242,0.683c0.573-0.013,1.144-0.071,1.708-0.171
				c0.558-0.102,1.101-0.275,1.617-0.513c0.502-0.218,0.987-0.474,1.45-0.767c0.45-0.343,0.878-0.713,1.283-1.108
				c1.569-1.595,2.456-3.738,2.475-5.975c0.008-1.136-0.196-2.263-0.6-3.325C326.093,299.965,325.46,299.042,324.692,298.238z"/>
			<path d="M421.2,201.725c-2.026-1.978-4.894-2.833-7.672-2.287c-2.778,0.546-5.11,2.423-6.236,5.02
				c-0.409,1.031-0.61,2.133-0.592,3.242c-0.027,0.575,0.029,1.15,0.167,1.708c0.103,0.55,0.245,1.091,0.425,1.621
				c0.255,0.501,0.542,0.985,0.858,1.45c0.284,0.469,0.629,0.899,1.025,1.279c1.604,1.607,3.788,2.499,6.059,2.475
				c2.243,0.022,4.398-0.872,5.967-2.475c1.646-1.585,2.574-3.773,2.567-6.059c-0.013-1.115-0.245-2.216-0.683-3.242
				C422.67,203.417,422.026,202.482,421.2,201.725z"/>
		</g>
	</g>
</g>
<g>
</g>
<g>
</g>
<g>
</g>
<g>
</g>
<g>
</g>
<g>
</g>
<g>
</g>
<g>
</g>
<g>
</g>
<g>
</g>
<g>
</g>
<g>
</g>
<g>
</g>
<g>
</g>
<g>
</g>
</svg>
