<?xml version="1.0" encoding="iso-8859-1"?>
<!-- Generator: Adobe Illustrator 19.0.0, SVG Export Plug-In . SVG Version: 6.00 Build 0)  -->
<svg version="1.1" id="Capa_1" xmlns="http://www.w3.org/2000/svg" xmlns:xlink="http://www.w3.org/1999/xlink" x="0px" y="0px"
	 viewBox="0 0 512 512" style="enable-background:new 0 0 512 512;" xml:space="preserve">
<g>
	<g>
		<g>
			<path d="M494.933,0H17.067C7.645,0.009,0.009,7.645,0,17.067v477.867c0.009,9.422,7.645,17.057,17.067,17.067h477.867
				c9.421-0.011,17.056-7.645,17.067-17.067V17.067C511.989,7.645,504.355,0.011,494.933,0z M17.067,17.067h477.867V51.2h-18.64
				c-3.592-10.199-13.214-17.033-24.028-17.067H256c-10.813,0.033-20.435,6.868-24.028,17.067H17.067V17.067z M247.467,392.533
				v-307.2H460.8v307.2H247.467z M460.8,409.6v42.667c-0.005,4.711-3.823,8.529-8.533,8.533H281.6H256
				c-4.71-0.006-8.527-3.823-8.533-8.533V409.6H460.8z M247.467,68.267v-8.533c0.006-4.71,3.823-8.527,8.533-8.533h196.267
				c4.711,0.005,8.529,3.822,8.533,8.533v8.533H247.467z M59.733,145.067v-34.133H230.4v34.133H59.733z M110.933,162.133V460.8
				h-51.2V162.133H110.933z M128,162.133h102.4V179.2h-17.067c-4.713,0-8.533,3.82-8.533,8.533s3.821,8.533,8.533,8.533H230.4V230.4
				c-4.713,0-8.533,3.82-8.533,8.533s3.82,8.533,8.533,8.533v25.6h-76.8c-4.713,0-8.533,3.821-8.533,8.533s3.821,8.533,8.533,8.533
				h76.8v8.533c-4.713,0-8.533,3.82-8.533,8.533s3.82,8.533,8.533,8.533v8.533h-76.8c-4.713,0-8.533,3.821-8.533,8.533
				c0,4.713,3.821,8.533,8.533,8.533h76.8v25.6c-4.713,0-8.533,3.82-8.533,8.533S225.687,384,230.4,384v8.533h-34.133
				c-4.713,0-8.533,3.821-8.533,8.533s3.82,8.533,8.533,8.533H230.4v8.533c-4.713,0-8.533,3.82-8.533,8.533s3.82,8.533,8.533,8.533
				v17.067c0.029,2.914,0.561,5.801,1.573,8.533H128V162.133z M17.067,494.933V68.267H230.4v25.6H59.733
				c-9.422,0.009-17.057,7.645-17.067,17.067v358.4c0,4.713,3.82,8.533,8.533,8.533h401.067c14.132-0.015,25.585-11.468,25.6-25.6
				v-384h17.068l0.008,426.667H17.067z"/>
			<path d="M93.867,25.6h-51.2c-4.713,0-8.533,3.821-8.533,8.533s3.82,8.533,8.533,8.533h51.2c4.713,0,8.533-3.82,8.533-8.533
				S98.579,25.6,93.867,25.6z"/>
			<path d="M145.067,25.6H128c-4.713,0-8.533,3.821-8.533,8.533s3.82,8.533,8.533,8.533h17.067c4.713,0,8.533-3.82,8.533-8.533
				S149.779,25.6,145.067,25.6z"/>
			<path d="M196.267,25.6H179.2c-4.713,0-8.533,3.821-8.533,8.533s3.82,8.533,8.533,8.533h17.067c4.713,0,8.533-3.82,8.533-8.533
				S200.979,25.6,196.267,25.6z"/>
			<path d="M82.859,121.941c-2.474-2.385-6.12-3.089-9.304-1.796c-2.139,0.784-3.824,2.469-4.608,4.608
				c-0.906,2.068-0.906,4.42,0,6.487c0.434,1.034,1.041,1.987,1.795,2.818c0.83,0.752,1.781,1.358,2.813,1.792
				c1.014,0.479,2.126,0.713,3.246,0.683c0.571-0.016,1.141-0.073,1.704-0.171c0.535-0.095,1.053-0.268,1.538-0.513
				c0.544-0.187,1.062-0.447,1.538-0.771c0.425-0.337,0.85-0.679,1.279-1.021c0.752-0.831,1.358-1.783,1.792-2.817
				c0.911-2.067,0.911-4.421,0-6.487C84.216,123.722,83.61,122.771,82.859,121.941z"/>
			<path d="M100.692,119.637c-0.535,0.091-1.053,0.263-1.538,0.508c-0.524,0.172-1.014,0.433-1.45,0.771
				c-0.513,0.341-0.938,0.683-1.363,1.025c-2.461,2.441-3.201,6.129-1.872,9.331c1.329,3.202,4.463,5.281,7.93,5.261
				c3.45-0.014,6.556-2.096,7.879-5.282c1.323-3.187,0.606-6.856-1.82-9.31C106.415,119.927,103.503,119.063,100.692,119.637z"/>
			<path d="M132.78,120.916c-0.476-0.324-0.993-0.583-1.538-0.771c-0.484-0.246-1.002-0.417-1.538-0.508
				c-2.81-0.574-5.721,0.29-7.763,2.304c-2.462,2.441-3.202,6.129-1.872,9.331c1.329,3.202,4.464,5.281,7.93,5.261
				c0.571-0.016,1.141-0.073,1.704-0.171c0.535-0.095,1.053-0.268,1.538-0.513c0.544-0.187,1.062-0.447,1.538-0.771
				c0.929-0.585,1.715-1.371,2.3-2.3c0.324-0.476,0.583-0.993,0.771-1.538c0.245-0.485,0.418-1.003,0.513-1.538
				c0.098-0.563,0.155-1.133,0.171-1.704c-0.033-2.259-0.917-4.422-2.475-6.059C133.63,121.6,133.204,121.258,132.78,120.916z"/>
			<path d="M85.333,204.8c4.713,0,8.533-3.82,8.533-8.533v-8.533c0-4.713-3.821-8.533-8.533-8.533s-8.533,3.82-8.533,8.533v8.533
				C76.8,200.979,80.62,204.8,85.333,204.8z"/>
			<path d="M85.333,247.467c4.713,0,8.533-3.82,8.533-8.533V230.4c0-4.713-3.821-8.533-8.533-8.533s-8.533,3.82-8.533,8.533v8.533
				C76.8,243.646,80.62,247.467,85.333,247.467z"/>
			<path d="M85.333,290.133c4.713,0,8.533-3.82,8.533-8.533v-8.533c0-4.713-3.821-8.533-8.533-8.533s-8.533,3.821-8.533,8.533v8.533
				C76.8,286.313,80.62,290.133,85.333,290.133z"/>
			<path d="M85.333,332.8c4.713,0,8.533-3.82,8.533-8.533v-8.533c0-4.713-3.821-8.533-8.533-8.533s-8.533,3.82-8.533,8.533v8.533
				C76.8,328.979,80.62,332.8,85.333,332.8z"/>
			<path d="M85.333,375.467c4.713,0,8.533-3.82,8.533-8.533V358.4c0-4.713-3.821-8.533-8.533-8.533s-8.533,3.82-8.533,8.533v8.533
				C76.8,371.646,80.62,375.467,85.333,375.467z"/>
			<path d="M85.333,418.133c4.713,0,8.533-3.82,8.533-8.533v-8.533c0-4.713-3.821-8.533-8.533-8.533s-8.533,3.821-8.533,8.533v8.533
				C76.8,414.313,80.62,418.133,85.333,418.133z"/>
			<path d="M153.6,196.267h25.6c4.713,0,8.533-3.82,8.533-8.533s-3.82-8.533-8.533-8.533h-25.6c-4.713,0-8.533,3.82-8.533,8.533
				S148.887,196.267,153.6,196.267z"/>
			<path d="M179.2,213.333c0,4.713,3.82,8.533,8.533,8.533H204.8c4.713,0,8.533-3.821,8.533-8.533c0-4.713-3.821-8.533-8.533-8.533
				h-17.067C183.021,204.8,179.2,208.621,179.2,213.333z"/>
			<path d="M153.6,247.467h42.667c4.713,0,8.533-3.82,8.533-8.533s-3.82-8.533-8.533-8.533H153.6c-4.713,0-8.533,3.82-8.533,8.533
				S148.887,247.467,153.6,247.467z"/>
			<path d="M179.2,315.733h17.067c4.713,0,8.533-3.82,8.533-8.533s-3.82-8.533-8.533-8.533H179.2c-4.713,0-8.533,3.82-8.533,8.533
				S174.487,315.733,179.2,315.733z"/>
			<path d="M153.6,384h42.667c4.713,0,8.533-3.82,8.533-8.533s-3.82-8.533-8.533-8.533H153.6c-4.713,0-8.533,3.82-8.533,8.533
				S148.887,384,153.6,384z"/>
			<path d="M196.267,418.133H153.6c-4.713,0-8.533,3.82-8.533,8.533s3.821,8.533,8.533,8.533h42.667c4.713,0,8.533-3.82,8.533-8.533
				S200.979,418.133,196.267,418.133z"/>
			<path d="M341.333,443.733h25.6c4.713,0,8.533-3.82,8.533-8.533s-3.82-8.533-8.533-8.533h-25.6c-4.713,0-8.533,3.82-8.533,8.533
				S336.621,443.733,341.333,443.733z"/>
			<path d="M429.167,134.033c3.341,3.281,8.701,3.256,12.012-0.054s3.335-8.671,0.054-12.012L424.166,104.9
				c-3.341-3.281-8.701-3.256-12.012,0.054s-3.335,8.671-0.054,12.012L429.167,134.033z"/>
			<path d="M381.5,104.9c-3.341-3.281-8.701-3.256-12.012,0.054s-3.335,8.671-0.054,12.012l68.267,68.267
				c3.341,3.281,8.701,3.256,12.012-0.054c3.311-3.311,3.335-8.671,0.054-12.012L381.5,104.9z"/>
		</g>
	</g>
</g>
<g>
</g>
<g>
</g>
<g>
</g>
<g>
</g>
<g>
</g>
<g>
</g>
<g>
</g>
<g>
</g>
<g>
</g>
<g>
</g>
<g>
</g>
<g>
</g>
<g>
</g>
<g>
</g>
<g>
</g>
</svg>
