<?xml version="1.0" encoding="iso-8859-1"?>
<!-- Generator: Adobe Illustrator 19.0.0, SVG Export Plug-In . SVG Version: 6.00 Build 0)  -->
<svg version="1.1" id="Capa_1" xmlns="http://www.w3.org/2000/svg" xmlns:xlink="http://www.w3.org/1999/xlink" x="0px" y="0px"
	 viewBox="0 0 512 512" style="enable-background:new 0 0 512 512;" xml:space="preserve">
<g>
	<g>
		<g>
			<path d="M238.932,477.867h34.133c4.713,0,8.533-3.82,8.533-8.533s-3.821-8.533-8.533-8.533h-34.133
				c-4.713,0-8.533,3.82-8.533,8.533S234.219,477.867,238.932,477.867z"/>
			<path d="M264.532,34.133h-17.067c-4.713,0-8.533,3.82-8.533,8.533s3.82,8.533,8.533,8.533h17.067c4.713,0,8.533-3.82,8.533-8.533
				S269.245,34.133,264.532,34.133z"/>
			<path d="M503.32,253.55c-0.098-0.87-0.24-1.735-0.425-2.592c-0.135-0.767-0.308-1.526-0.521-2.275
				c-0.208-0.696-0.475-1.367-1.004-2.654c-0.249-0.645-0.531-1.276-0.846-1.892c-0.453-0.838-0.957-1.648-1.508-2.425
				c-0.278-0.489-0.589-0.96-0.929-1.408c-0.179-0.237-0.408-0.508-0.638-0.754c-0.417-0.479-0.921-0.992-1.75-1.813
				c-0.362-0.371-0.729-0.733-1.221-1.162c-0.236-0.237-0.487-0.46-0.75-0.667l-67.063-52.946V42.667
				C426.638,19.114,407.552,0.028,383.999,0h-256C104.446,0.028,85.36,19.114,85.332,42.667v140.298l-67.104,52.977
				c-0.167,0.133-0.354,0.292-0.529,0.458c-0.513,0.446-1.05,0.979-1.912,1.854c-0.412,0.404-0.817,0.817-1.192,1.246
				c-0.208,0.221-0.417,0.458-0.579,0.667c-0.423,0.555-0.811,1.135-1.163,1.737c-0.505,0.716-0.965,1.462-1.379,2.233
				c-0.321,0.617-0.588,1.25-1.096,2.5c-0.288,0.674-0.54,1.362-0.754,2.063c-0.253,0.914-0.459,1.84-0.617,2.775
				c-0.145,0.674-0.253,1.356-0.325,2.042c-0.076,0.877-0.101,1.758-0.075,2.637c-0.021,0.766,0.003,1.532,0.071,2.295
				c0.103,0.904,0.252,1.803,0.446,2.692c0.138,0.725,0.288,1.442,0.488,2.121c0.291,0.921,0.631,1.827,1.017,2.712
				c0.258,0.638,0.525,1.271,0.846,1.888c0.461,0.85,0.972,1.672,1.529,2.462c0.306,0.53,0.648,1.038,1.025,1.521
				c0.15,0.192,0.333,0.4,0.521,0.604c0.933,1.101,1.954,2.124,3.054,3.058c0.221,0.208,0.467,0.425,0.675,0.588l67.054,52.939
				v140.298c0.028,23.553,19.114,42.639,42.667,42.667h256c23.553-0.028,42.639-19.114,42.667-42.667V329.037l67.15-53.012
				c0.154-0.121,0.325-0.275,0.492-0.429c1.133-0.957,2.182-2.008,3.138-3.142c0.167-0.175,0.329-0.358,0.462-0.529
				c0.457-0.581,0.872-1.194,1.242-1.833c0.497-0.706,0.952-1.44,1.363-2.2c0.329-0.633,0.6-1.271,1.112-2.537
				c0.286-0.672,0.537-1.357,0.754-2.054c0.252-0.914,0.457-1.84,0.613-2.775c0.145-0.674,0.253-1.356,0.325-2.042
				c0.075-0.915,0.101-1.833,0.079-2.75C503.408,255.005,503.383,254.276,503.32,253.55z M102.399,42.667
				c0.015-14.132,11.468-25.585,25.6-25.6h256c14.132,0.015,25.585,11.468,25.6,25.6v25.6h-307.2V42.667z M29.145,262.933
				c-0.129-0.117-0.258-0.225-0.371-0.321c-0.462-0.379-0.885-0.804-1.262-1.267c-0.204-0.321-0.5-0.779-0.575-0.892l-0.621-1.208
				l-0.417-1.258l-0.229-1.125l0.15-2.442l0.317-1.229l0.45-1.121l0.533-0.796c0.067-0.1,0.183-0.292,0.287-0.462
				c0.125-0.137,0.242-0.267,0.325-0.371l0.704-0.796c0.236-0.175,0.462-0.361,0.679-0.558l161.871-127.792
				c1.766-1.409,4.024-2.049,6.267-1.775c3.43,0.401,6.281,2.83,7.223,6.153s-0.212,6.886-2.922,9.027L56.386,249.304
				c-2.05,1.617-3.246,4.085-3.246,6.696s1.196,5.078,3.246,6.696L201.553,377.3c3.682,2.925,4.305,8.279,1.391,11.971
				c-2.914,3.692-8.265,4.331-11.966,1.429L29.145,262.933z M85.332,248.194v15.611L75.445,256L85.332,248.194z M409.599,469.333
				c-0.015,14.132-11.468,25.585-25.6,25.6h-256c-14.132-0.015-25.585-11.468-25.6-25.6v-25.6h307.2V469.333z M409.599,426.667
				h-307.2v-84.158l78.008,61.587c11.096,8.758,27.191,6.863,35.95-4.233c4.208-5.328,6.127-12.11,5.333-18.853
				c-0.793-6.743-4.233-12.895-9.563-17.101L102.399,277.28V234.72l109.729-86.629c7.178-5.667,10.788-14.733,9.469-23.783
				s-7.366-16.709-15.862-20.092s-18.153-1.976-25.331,3.691l-78.004,61.582V85.333h307.2v84.156l-77.996-61.577
				c-7.173-5.724-16.861-7.171-25.393-3.793c-8.532,3.379-14.604,11.066-15.913,20.149s2.343,18.172,9.573,23.823l109.729,86.629
				v42.559L299.87,363.908c-8.56,6.756-11.9,18.194-8.321,28.495s13.291,17.204,24.196,17.197c5.751-0.011,11.332-1.95,15.85-5.508
				l78.004-61.581V426.667z M486.107,257.967l-0.237,0.821c-0.021,0.046-0.346,0.85-0.367,0.896l-0.438,0.767l-0.446,0.742
				l-0.129,0.154c-0.304,0.375-0.636,0.728-0.992,1.054c-0.212,0.158-0.442,0.35-0.662,0.55L321.024,390.696
				c-3.699,2.921-9.066,2.291-11.987-1.408c-2.921-3.699-2.291-9.066,1.408-11.987l145.167-114.604
				c2.05-1.617,3.246-4.085,3.246-6.696s-1.196-5.078-3.246-6.696L310.445,134.7c-2.711-2.14-3.865-5.703-2.924-9.027
				c0.941-3.323,3.793-5.752,7.224-6.152c0.335-0.038,0.671-0.057,1.008-0.058c1.913,0,3.769,0.647,5.267,1.838l161.763,127.708
				c0.258,0.25,0.542,0.517,0.704,0.654l0.946,0.917l0.046,0.058c0.2,0.317,0.504,0.792,0.583,0.908l0.446,0.779l0.5,1.196
				l0.162,0.858l0.158,1.258l0.009,1.121l8.442,1.267L486.107,257.967z M426.666,263.806v-15.611l9.888,7.806L426.666,263.806z"/>
		</g>
	</g>
</g>
<g>
</g>
<g>
</g>
<g>
</g>
<g>
</g>
<g>
</g>
<g>
</g>
<g>
</g>
<g>
</g>
<g>
</g>
<g>
</g>
<g>
</g>
<g>
</g>
<g>
</g>
<g>
</g>
<g>
</g>
</svg>
