<?xml version="1.0" encoding="iso-8859-1"?>
<!-- Generator: Adobe Illustrator 19.0.0, SVG Export Plug-In . SVG Version: 6.00 Build 0)  -->
<svg version="1.1" id="Capa_1" xmlns="http://www.w3.org/2000/svg" xmlns:xlink="http://www.w3.org/1999/xlink" x="0px" y="0px"
	 viewBox="0 0 512 512" style="enable-background:new 0 0 512 512;" xml:space="preserve">
<g>
	<g>
		<g>
			<path d="M494.933,0H17.067C7.645,0.009,0.009,7.645,0,17.067v477.867c0.009,9.422,7.645,17.057,17.067,17.067h477.867
				c9.422-0.009,17.057-7.645,17.067-17.067V17.067C511.991,7.645,504.355,0.009,494.933,0z M401.067,170.667h8.533V256h-34.133
				V136.533H409.6V153.6h-8.533c-4.713,0-8.533,3.82-8.533,8.533S396.354,170.667,401.067,170.667z M375.467,119.467V102.4H409.6
				v17.067H375.467z M337.066,85.333l-12.8-17.067h46.935l12.8,17.067H337.066z M349.867,136.533h8.533V256
				c-4.713,0-8.533,3.82-8.533,8.533s3.82,8.533,8.533,8.533v17.067h-25.6V102.4h25.6v17.067h-8.533
				c-4.713,0-8.533,3.82-8.533,8.533S345.154,136.533,349.867,136.533z M371.201,307.2l12.8,17.067h-46.935l-12.8-17.067H371.201z
				 M375.467,290.133v-17.067H409.6v17.067H375.467z M494.941,307.2v17.068l-0.008-0.002h-89.601l-12.8-17.067H494.941z
				 M426.667,256v-85.333h25.6v17.067c-4.713,0-8.533,3.82-8.533,8.533s3.821,8.533,8.533,8.533v17.067
				c-4.713,0-8.533,3.82-8.533,8.533s3.821,8.533,8.533,8.533v51.2h-25.6v-17.067c4.713,0,8.533-3.82,8.533-8.533
				S431.38,256,426.667,256z M435.2,119.467h-8.533V102.4h25.6v51.2h-25.6v-17.067h8.533c4.713,0,8.533-3.82,8.533-8.533
				S439.913,119.467,435.2,119.467z M494.941,290.133h-25.607v-51.2c4.713,0,8.533-3.82,8.533-8.533s-3.82-8.533-8.533-8.533V204.8
				c4.713,0,8.533-3.82,8.533-8.533s-3.82-8.533-8.533-8.533v-17.067c4.713,0,8.533-3.82,8.533-8.533s-3.82-8.533-8.533-8.533
				v-51.201l25.6,0.001l0.002-0.001L494.941,290.133z M494.935,85.334l-0.002-0.001h-89.601l-12.8-17.067h102.403V85.334z
				 M17.067,17.067h477.868V51.2H17.067V17.067z M302.934,307.2l12.8,17.067H256V307.2H302.934z M256,290.133V102.4h59.733v187.733
				H256z M256,85.333V68.267h46.934l12.8,17.067H256z M238.933,494.933H17.067V68.267h221.867V494.933z M256,494.933V341.332
				l238.933,0.002l0.009-0.002l0.004,153.602H256z"/>
			<path d="M93.867,25.6h-51.2c-4.713,0-8.533,3.821-8.533,8.533s3.82,8.533,8.533,8.533h51.2c4.713,0,8.533-3.82,8.533-8.533
				S98.579,25.6,93.867,25.6z"/>
			<path d="M145.067,25.6H128c-4.713,0-8.533,3.821-8.533,8.533s3.82,8.533,8.533,8.533h17.067c4.713,0,8.533-3.82,8.533-8.533
				S149.779,25.6,145.067,25.6z"/>
			<path d="M196.267,25.6H179.2c-4.713,0-8.533,3.821-8.533,8.533s3.82,8.533,8.533,8.533h17.067c4.713,0,8.533-3.82,8.533-8.533
				S200.979,25.6,196.267,25.6z"/>
			<path d="M247.467,25.6H230.4c-4.713,0-8.533,3.821-8.533,8.533s3.82,8.533,8.533,8.533h17.067c4.713,0,8.533-3.82,8.533-8.533
				S252.18,25.6,247.467,25.6z"/>
			<path d="M298.667,25.6H281.6c-4.713,0-8.533,3.821-8.533,8.533s3.82,8.533,8.533,8.533h17.067c4.713,0,8.533-3.82,8.533-8.533
				S303.38,25.6,298.667,25.6z"/>
			<path d="M477.867,25.6h-8.533c-4.713,0-8.533,3.821-8.533,8.533s3.82,8.533,8.533,8.533h8.533c4.713,0,8.533-3.82,8.533-8.533
				S482.58,25.6,477.867,25.6z"/>
			<path d="M51.2,230.4h153.6c9.422-0.009,17.057-7.645,17.067-17.067v-102.4c-0.009-9.422-7.645-17.057-17.067-17.067H51.2
				c-9.422,0.009-17.057,7.645-17.067,17.067v102.4C34.143,222.755,41.778,230.391,51.2,230.4z M51.2,110.933h153.6l0.012,102.4
				H51.2V110.933z"/>
			<path d="M157.992,154.817l-42.667-25.6c-2.636-1.582-5.92-1.623-8.595-0.109c-2.675,1.515-4.329,4.351-4.33,7.425v51.2
				c0,3.075,1.654,5.912,4.33,7.426s5.959,1.473,8.595-0.11l42.667-25.6c2.57-1.542,4.142-4.32,4.142-7.317
				S160.561,156.359,157.992,154.817z M119.467,172.663v-21.058l17.546,10.529L119.467,172.663z"/>
			<path d="M34.812,259.242c0.188,0.544,0.447,1.062,0.771,1.538c0.316,0.447,0.658,0.874,1.025,1.279
				c0.404,0.368,0.831,0.709,1.279,1.021c0.475,0.323,0.991,0.582,1.533,0.771c0.485,0.245,1.003,0.418,1.538,0.512
				c0.565,0.098,1.135,0.155,1.708,0.171c1.115-0.014,2.216-0.246,3.242-0.683c1.033-0.434,1.986-1.04,2.817-1.791
				c0.341-0.429,0.683-0.854,1.021-1.279c0.324-0.476,0.583-0.993,0.771-1.538c0.245-0.485,0.418-1.003,0.512-1.538
				c0.098-0.563,0.155-1.133,0.171-1.704c0.03-1.12-0.205-2.232-0.683-3.246c-0.434-1.032-1.04-1.983-1.791-2.813
				c-0.83-0.754-1.782-1.362-2.817-1.796c-1.557-0.679-3.287-0.857-4.95-0.508c-0.535,0.091-1.053,0.263-1.538,0.508
				c-0.543,0.188-1.058,0.448-1.533,0.771c-0.448,0.314-0.876,0.656-1.279,1.025c-0.754,0.828-1.362,1.78-1.796,2.813
				c-0.436,1.027-0.667,2.13-0.679,3.246c0.013,0.572,0.07,1.141,0.171,1.704C34.395,258.239,34.567,258.758,34.812,259.242z"/>
			<path d="M61.183,260.779c0.316,0.447,0.658,0.874,1.025,1.279c0.83,0.752,1.781,1.358,2.813,1.792
				c1.027,0.438,2.13,0.67,3.246,0.683c0.571-0.016,1.141-0.073,1.704-0.171c0.535-0.095,1.053-0.268,1.538-0.513
				c0.544-0.187,1.062-0.447,1.538-0.771c0.447-0.314,0.874-0.655,1.279-1.021c0.366-0.405,0.707-0.833,1.021-1.279
				c0.324-0.476,0.583-0.993,0.771-1.538c0.245-0.485,0.418-1.003,0.512-1.538c0.098-0.563,0.155-1.133,0.171-1.704
				c-0.013-1.116-0.245-2.219-0.683-3.246c-0.434-1.032-1.04-1.983-1.791-2.813c-0.405-0.367-0.833-0.709-1.279-1.025
				c-0.476-0.324-0.993-0.583-1.538-0.771c-0.484-0.245-1.003-0.417-1.538-0.508c-1.663-0.348-3.393-0.171-4.95,0.508
				c-2.139,0.784-3.824,2.469-4.608,4.608c-0.437,1.027-0.668,2.13-0.68,3.246c0.013,0.572,0.071,1.141,0.171,1.704
				c0.091,0.535,0.263,1.053,0.508,1.538C60.6,259.786,60.859,260.303,61.183,260.779z"/>
			<path d="M219.392,249.941c-0.405-0.367-0.833-0.709-1.279-1.025c-0.476-0.324-0.993-0.583-1.538-0.771
				c-0.484-0.246-1.002-0.417-1.538-0.508c-1.663-0.348-3.393-0.171-4.95,0.508c-2.139,0.784-3.824,2.469-4.608,4.608
				c-0.476,1.015-0.709,2.126-0.68,3.246c0.013,0.572,0.071,1.141,0.171,1.704c0.091,0.535,0.263,1.053,0.508,1.538
				c0.187,0.544,0.447,1.062,0.771,1.538c0.316,0.447,0.658,0.874,1.025,1.279c0.83,0.752,1.781,1.358,2.813,1.792
				c1.027,0.438,2.13,0.67,3.246,0.683c0.571-0.016,1.141-0.073,1.704-0.171c0.535-0.095,1.053-0.268,1.538-0.513
				c0.544-0.187,1.062-0.447,1.538-0.771c0.929-0.585,1.715-1.371,2.3-2.3c0.324-0.476,0.583-0.993,0.771-1.538
				c0.245-0.485,0.418-1.003,0.513-1.538c0.098-0.563,0.155-1.133,0.171-1.704c-0.013-1.116-0.245-2.219-0.683-3.246
				C220.749,251.722,220.144,250.771,219.392,249.941z"/>
			<path d="M179.2,264.533c4.713,0,8.533-3.82,8.533-8.533s-3.82-8.533-8.533-8.533H93.867c-4.713,0-8.533,3.82-8.533,8.533
				s3.821,8.533,8.533,8.533H179.2z"/>
			<path d="M102.4,281.6H59.733c-9.422,0.009-17.057,7.645-17.067,17.067V332.8c0.009,9.422,7.645,17.057,17.067,17.067H102.4
				c9.422-0.009,17.057-7.645,17.067-17.067v-34.133C119.457,289.245,111.822,281.609,102.4,281.6z M59.733,332.8v-34.133H102.4
				l0.012,34.133H59.733z"/>
			<path d="M110.933,366.933H51.2c-4.713,0-8.533,3.82-8.533,8.533S46.487,384,51.2,384h59.733c4.713,0,8.533-3.82,8.533-8.533
				S115.646,366.933,110.933,366.933z"/>
			<path d="M196.267,281.6H153.6c-9.422,0.009-17.057,7.645-17.067,17.067V332.8c0.009,9.422,7.645,17.057,17.067,17.067h42.667
				c9.422-0.009,17.057-7.645,17.067-17.067v-34.133C213.324,289.245,205.688,281.609,196.267,281.6z M153.6,332.8v-34.133h42.667
				l0.012,34.133H153.6z"/>
			<path d="M204.8,366.933h-59.733c-4.713,0-8.533,3.82-8.533,8.533s3.82,8.533,8.533,8.533H204.8c4.713,0,8.533-3.82,8.533-8.533
				S209.513,366.933,204.8,366.933z"/>
			<path d="M102.4,401.067H59.733c-9.422,0.009-17.057,7.645-17.067,17.067v34.133c0.009,9.422,7.645,17.057,17.067,17.067H102.4
				c9.422-0.009,17.057-7.645,17.067-17.067v-34.133C119.457,408.712,111.822,401.076,102.4,401.067z M59.733,452.267v-34.133H102.4
				l0.012,34.133H59.733z"/>
			<path d="M196.267,401.067H153.6c-9.422,0.009-17.057,7.645-17.067,17.067v34.133c0.009,9.422,7.645,17.057,17.067,17.067h42.667
				c9.422-0.009,17.057-7.645,17.067-17.067v-34.133C213.324,408.712,205.688,401.076,196.267,401.067z M153.6,452.267v-34.133
				h42.667l0.012,34.133H153.6z"/>
			<path d="M290.133,119.467H281.6c-4.713,0-8.533,3.82-8.533,8.533s3.82,8.533,8.533,8.533h8.533c4.713,0,8.533-3.82,8.533-8.533
				S294.846,119.467,290.133,119.467z"/>
			<path d="M290.133,153.6H281.6c-4.713,0-8.533,3.82-8.533,8.533s3.82,8.533,8.533,8.533h8.533c4.713,0,8.533-3.82,8.533-8.533
				S294.846,153.6,290.133,153.6z"/>
			<path d="M290.133,187.733H281.6c-4.713,0-8.533,3.82-8.533,8.533s3.82,8.533,8.533,8.533h8.533c4.713,0,8.533-3.82,8.533-8.533
				S294.846,187.733,290.133,187.733z"/>
			<path d="M290.133,221.867H281.6c-4.713,0-8.533,3.82-8.533,8.533s3.82,8.533,8.533,8.533h8.533c4.713,0,8.533-3.82,8.533-8.533
				S294.846,221.867,290.133,221.867z"/>
			<path d="M290.133,256H281.6c-4.713,0-8.533,3.82-8.533,8.533s3.82,8.533,8.533,8.533h8.533c4.713,0,8.533-3.82,8.533-8.533
				S294.846,256,290.133,256z"/>
			<path d="M281.6,418.133h51.2c3.074,0,5.911-1.655,7.425-4.33s1.473-5.959-0.109-8.595l-25.6-42.667
				c-1.654-2.413-4.391-3.856-7.317-3.856s-5.663,1.443-7.317,3.856l-25.6,42.667c-1.582,2.636-1.623,5.919-0.109,8.595
				S278.526,418.133,281.6,418.133z M307.2,383.521l10.529,17.546h-21.058L307.2,383.521z"/>
			<path d="M358.4,384h8.533c4.713,0,8.533-3.82,8.533-8.533s-3.82-8.533-8.533-8.533H358.4c-4.713,0-8.533,3.82-8.533,8.533
				S353.687,384,358.4,384z"/>
			<path d="M401.067,384h17.067c4.713,0,8.533-3.82,8.533-8.533s-3.82-8.533-8.533-8.533h-17.067c-4.713,0-8.533,3.82-8.533,8.533
				S396.354,384,401.067,384z"/>
			<path d="M469.333,366.933h-17.067c-4.713,0-8.533,3.82-8.533,8.533s3.821,8.533,8.533,8.533h17.067
				c4.713,0,8.533-3.82,8.533-8.533S474.046,366.933,469.333,366.933z"/>
			<path d="M418.133,401.067h-42.667c-4.713,0-8.533,3.82-8.533,8.533s3.82,8.533,8.533,8.533h42.667
				c4.713,0,8.533-3.82,8.533-8.533S422.846,401.067,418.133,401.067z"/>
			<path d="M307.2,435.2h-25.6c-4.713,0-8.533,3.82-8.533,8.533s3.82,8.533,8.533,8.533h25.6c4.713,0,8.533-3.82,8.533-8.533
				S311.913,435.2,307.2,435.2z"/>
			<path d="M384,435.2h-42.667c-4.713,0-8.533,3.82-8.533,8.533s3.821,8.533,8.533,8.533H384c4.713,0,8.533-3.82,8.533-8.533
				S388.713,435.2,384,435.2z"/>
			<path d="M460.8,435.2h-42.667c-4.713,0-8.533,3.82-8.533,8.533s3.82,8.533,8.533,8.533H460.8c4.713,0,8.533-3.82,8.533-8.533
				S465.513,435.2,460.8,435.2z"/>
			<path d="M469.333,401.067h-17.067c-4.713,0-8.533,3.82-8.533,8.533s3.821,8.533,8.533,8.533h17.067
				c4.713,0,8.533-3.82,8.533-8.533S474.046,401.067,469.333,401.067z"/>
		</g>
	</g>
</g>
<g>
</g>
<g>
</g>
<g>
</g>
<g>
</g>
<g>
</g>
<g>
</g>
<g>
</g>
<g>
</g>
<g>
</g>
<g>
</g>
<g>
</g>
<g>
</g>
<g>
</g>
<g>
</g>
<g>
</g>
</svg>
