<?xml version="1.0" encoding="iso-8859-1"?>
<!-- Generator: Adobe Illustrator 19.0.0, SVG Export Plug-In . SVG Version: 6.00 Build 0)  -->
<svg version="1.1" id="Capa_1" xmlns="http://www.w3.org/2000/svg" xmlns:xlink="http://www.w3.org/1999/xlink" x="0px" y="0px"
	 viewBox="0 0 512 512" style="enable-background:new 0 0 512 512;" xml:space="preserve">
<g>
	<g>
		<g>
			<path d="M494.933,0H17.067C7.645,0.009,0.009,7.645,0,17.067v477.867c0.009,9.422,7.645,17.057,17.067,17.067h477.867
				c9.422-0.009,17.057-7.645,17.067-17.067V17.067C511.991,7.645,504.355,0.009,494.933,0z M17.067,17.067h477.868V51.2H17.067
				V17.067z M17.067,494.933V68.267h477.868l0.011,426.667H17.067z"/>
			<path d="M93.867,25.6h-51.2c-4.713,0-8.533,3.821-8.533,8.533s3.82,8.533,8.533,8.533h51.2c4.713,0,8.533-3.82,8.533-8.533
				S98.579,25.6,93.867,25.6z"/>
			<path d="M145.067,25.6H128c-4.713,0-8.533,3.821-8.533,8.533s3.82,8.533,8.533,8.533h17.067c4.713,0,8.533-3.82,8.533-8.533
				S149.779,25.6,145.067,25.6z"/>
			<path d="M196.267,25.6H179.2c-4.713,0-8.533,3.821-8.533,8.533s3.82,8.533,8.533,8.533h17.067c4.713,0,8.533-3.82,8.533-8.533
				S200.979,25.6,196.267,25.6z"/>
			<path d="M247.467,25.6H230.4c-4.713,0-8.533,3.821-8.533,8.533s3.82,8.533,8.533,8.533h17.067c4.713,0,8.533-3.82,8.533-8.533
				S252.18,25.6,247.467,25.6z"/>
			<path d="M298.667,25.6H281.6c-4.713,0-8.533,3.821-8.533,8.533s3.82,8.533,8.533,8.533h17.067c4.713,0,8.533-3.82,8.533-8.533
				S303.38,25.6,298.667,25.6z"/>
			<path d="M477.867,25.6h-8.533c-4.713,0-8.533,3.821-8.533,8.533s3.82,8.533,8.533,8.533h8.533c4.713,0,8.533-3.82,8.533-8.533
				S482.58,25.6,477.867,25.6z"/>
			<path d="M452.267,332.8h-25.6v-51.2c-0.015-14.132-11.468-25.585-25.6-25.6H264.533v-42.667h25.6
				c14.132-0.015,25.585-11.468,25.6-25.6v-51.2c-0.015-14.132-11.468-25.585-25.6-25.6h-68.267
				c-14.132,0.015-25.585,11.468-25.6,25.6v51.2c0.015,14.132,11.468,25.585,25.6,25.6h25.6V256H110.933
				c-14.132,0.015-25.585,11.468-25.6,25.6v51.2h-25.6c-14.132,0.015-25.585,11.468-25.6,25.6v51.2
				c0.015,14.132,11.468,25.585,25.6,25.6H128c14.132-0.015,25.585-11.468,25.6-25.6v-51.2c-0.015-14.132-11.468-25.585-25.6-25.6
				h-25.6v-51.2c0.006-4.71,3.823-8.527,8.533-8.533h136.533V332.8h-25.6c-14.132,0.015-25.585,11.468-25.6,25.6v51.2
				c0.015,14.132,11.468,25.585,25.6,25.6h68.267c14.132-0.015,25.585-11.468,25.6-25.6v-51.2
				c-0.015-14.132-11.468-25.585-25.6-25.6h-25.6v-59.733h136.533c4.71,0.006,8.527,3.823,8.533,8.533v51.2H384
				c-14.132,0.015-25.585,11.468-25.6,25.6v51.2c0.015,14.132,11.468,25.585,25.6,25.6h68.267c14.132-0.015,25.585-11.468,25.6-25.6
				v-51.2C477.851,344.268,466.399,332.815,452.267,332.8z M128,349.867c4.71,0.006,8.527,3.823,8.533,8.533v51.2
				c-0.006,4.71-3.823,8.527-8.533,8.533H59.733c-4.71-0.006-8.527-3.823-8.533-8.533v-51.2c0.006-4.71,3.823-8.527,8.533-8.533
				h25.6v25.6c0,4.713,3.821,8.533,8.533,8.533c4.713,0,8.533-3.82,8.533-8.533v-25.6H128z M290.133,349.867
				c4.71,0.006,8.527,3.823,8.533,8.533v51.2c-0.006,4.71-3.823,8.527-8.533,8.533h-68.267c-4.71-0.006-8.527-3.823-8.533-8.533
				v-51.2c0.006-4.71,3.823-8.527,8.533-8.533h25.6v25.6c0,4.713,3.82,8.533,8.533,8.533s8.533-3.82,8.533-8.533v-25.6H290.133z
				 M256,162.133c-4.713,0-8.533,3.82-8.533,8.533v25.6h-25.6c-4.71-0.006-8.527-3.823-8.533-8.533v-51.2
				c0.006-4.71,3.823-8.527,8.533-8.533h68.267c4.71,0.006,8.527,3.823,8.533,8.533v51.2c-0.006,4.71-3.823,8.527-8.533,8.533h-25.6
				v-25.6C264.533,165.954,260.713,162.133,256,162.133z M460.8,409.6c-0.006,4.71-3.823,8.527-8.533,8.533H384
				c-4.71-0.006-8.527-3.823-8.533-8.533v-51.2c0.006-4.71,3.823-8.527,8.533-8.533h25.6v25.6c0,4.713,3.82,8.533,8.533,8.533
				s8.533-3.82,8.533-8.533v-25.6h25.6c4.71,0.006,8.527,3.823,8.533,8.533V409.6z"/>
		</g>
	</g>
</g>
<g>
</g>
<g>
</g>
<g>
</g>
<g>
</g>
<g>
</g>
<g>
</g>
<g>
</g>
<g>
</g>
<g>
</g>
<g>
</g>
<g>
</g>
<g>
</g>
<g>
</g>
<g>
</g>
<g>
</g>
</svg>
