<?xml version="1.0" encoding="iso-8859-1"?>
<!-- Generator: Adobe Illustrator 19.0.0, SVG Export Plug-In . SVG Version: 6.00 Build 0)  -->
<svg version="1.1" id="Capa_1" xmlns="http://www.w3.org/2000/svg" xmlns:xlink="http://www.w3.org/1999/xlink" x="0px" y="0px"
	 viewBox="0 0 512.001 512.001" style="enable-background:new 0 0 512.001 512.001;" xml:space="preserve">
<g>
	<g>
		<g>
			<path d="M206.451,34.134h-95.517v-8.329c0.478-13.727-10.226-25.259-23.95-25.804H23.701C10.49,0.146-0.111,10.956,0.001,24.167
				v147.934c-0.112,13.211,10.489,24.021,23.7,24.166h183c13.211-0.146,23.812-10.955,23.7-24.166V59.938
				C230.879,46.212,220.175,34.679,206.451,34.134z M17.068,24.167c-0.121-3.789,2.845-6.963,6.633-7.1h63.283
				c4.252,0.621,7.275,4.459,6.884,8.738v8.329h-76.8V24.167z M213.334,59.938v112.163c0.121,3.789-2.845,6.963-6.633,7.1h-183
				c-3.789-0.137-6.754-3.31-6.633-7.1v-120.9h189.383C210.702,51.822,213.726,55.659,213.334,59.938z"/>
			<path d="M495.48,321.312c-0.367-0.965-0.908-1.854-1.596-2.623c-22.97-38.853-64.749-62.687-109.884-62.687
				c-45.135,0-86.914,23.835-109.883,62.688c-0.687,0.769-1.228,1.657-1.594,2.621c-22.029,38.891-22.029,86.49,0,125.38
				c0.366,0.964,0.906,1.853,1.594,2.621C297.087,488.165,338.866,512,384.001,512c45.135,0,86.914-23.834,109.884-62.687
				c0.688-0.769,1.229-1.659,1.596-2.623C517.508,407.8,517.508,360.202,495.48,321.312z M333.722,285.244
				c-6.737,9.386-12.169,19.643-16.148,30.49h-20.831C306.713,303.011,319.331,292.607,333.722,285.244z M285.688,332.801h26.408
				c-3.546,13.964-5.579,28.268-6.066,42.667H273.5C274.623,360.565,278.77,346.048,285.688,332.801z M285.688,435.201
				c-6.919-13.247-11.066-27.764-12.189-42.667h32.531c0.487,14.399,2.52,28.703,6.066,42.667H285.688z M296.743,452.267h20.831
				c3.979,10.847,9.411,21.104,16.148,30.49C319.331,475.395,306.713,464.991,296.743,452.267z M375.468,493.667
				c-15.669-4.18-29.619-19.538-39.215-41.4h39.215V493.667z M375.468,435.201h-45.435c-4.025-13.89-6.357-28.217-6.944-42.667
				h52.379V435.201z M375.468,375.467h-52.379c0.587-14.45,2.918-28.776,6.944-42.667h45.435V375.467z M375.468,315.734h-39.215
				c9.596-21.862,23.546-37.219,39.215-41.399V315.734z M482.313,332.801c6.919,13.247,11.066,27.764,12.188,42.667h-32.531
				c-0.487-14.398-2.52-28.703-6.066-42.667H482.313z M471.259,315.734h-20.831c-3.979-10.847-9.411-21.104-16.148-30.49
				C448.671,292.607,461.288,303.011,471.259,315.734z M392.534,274.335c15.67,4.18,29.619,19.538,39.216,41.399h-39.216V274.335z
				 M392.534,332.801h45.435c4.025,13.891,6.357,28.217,6.944,42.667h-52.379V332.801z M392.534,392.534h52.379
				c-0.587,14.45-2.918,28.776-6.944,42.667h-45.435V392.534z M392.534,493.667v-41.4h39.216
				C422.153,474.129,408.203,489.487,392.534,493.667z M434.28,482.758c6.737-9.386,12.169-19.643,16.148-30.49h20.831
				C461.288,464.991,448.671,475.395,434.28,482.758z M482.313,435.201h-26.408c3.546-13.964,5.579-28.268,6.066-42.667h32.531
				C493.379,407.437,489.232,421.954,482.313,435.201z"/>
			<path d="M334.009,122.888c8.755,8.016,14.23,18.992,15.367,30.808h-33.642c-3.451-0.001-6.563,2.078-7.883,5.267
				c-1.324,3.189-0.593,6.861,1.85,9.3l59.733,59.733c1.6,1.601,3.77,2.5,6.033,2.5s4.433-0.899,6.033-2.5l59.733-59.733
				c2.441-2.44,3.171-6.11,1.85-9.299s-4.432-5.268-7.883-5.268h-34.292c-1.575-42.629-15.133-76.213-40.35-99.904
				C317.943,13.759,257.976,17.03,255.468,17.18c-4.497,0.28-8.001,4.01-8,8.516v68.267c0.002,2.386,1.001,4.662,2.757,6.278
				c1.756,1.616,4.107,2.423,6.485,2.226C257.209,102.409,307.551,98.534,334.009,122.888z M264.534,34.238
				c16.65,0.625,55.808,5.108,84.45,32.096c23.233,21.896,35.017,54.158,35.017,95.896c-0.001,2.263,0.898,4.434,2.499,6.035
				c1.6,1.6,3.771,2.499,6.035,2.499h22.067l-39.133,39.133l-39.133-39.133h22.067c2.263,0.001,4.434-0.898,6.035-2.499
				c1.6-1.6,2.499-3.771,2.499-6.035c0.754-19.582-7.045-38.524-21.367-51.9c-24.283-22.346-62.517-25.2-80.45-25.2h-0.583V34.238z"
				/>
		</g>
	</g>
</g>
<g>
</g>
<g>
</g>
<g>
</g>
<g>
</g>
<g>
</g>
<g>
</g>
<g>
</g>
<g>
</g>
<g>
</g>
<g>
</g>
<g>
</g>
<g>
</g>
<g>
</g>
<g>
</g>
<g>
</g>
</svg>
