<?xml version="1.0" encoding="iso-8859-1"?>
<!-- Generator: Adobe Illustrator 19.0.0, SVG Export Plug-In . SVG Version: 6.00 Build 0)  -->
<svg version="1.1" id="Capa_1" xmlns="http://www.w3.org/2000/svg" xmlns:xlink="http://www.w3.org/1999/xlink" x="0px" y="0px"
	 viewBox="0 0 512 512" style="enable-background:new 0 0 512 512;" xml:space="preserve">
<g>
	<g>
		<g>
			<path d="M481.875,290.133H332.8v-12.546c-0.021-16.628-13.497-30.102-30.125-30.121h-93.35
				c-16.628,0.019-30.104,13.493-30.125,30.121v204.292c0.021,16.628,13.497,30.102,30.125,30.121h272.55
				c16.628-0.019,30.104-13.493,30.125-30.121V320.254C511.979,303.626,498.503,290.152,481.875,290.133z M196.267,277.587
				c0.009-7.208,5.851-13.048,13.058-13.054h93.35c7.208,0.007,13.05,5.847,13.058,13.054v12.546H196.267V277.587z M494.933,481.879
				c-0.009,7.208-5.851,13.048-13.058,13.054h-272.55c-7.208-0.006-13.049-5.847-13.058-13.054V307.2h285.608
				c7.208,0.006,13.05,5.847,13.058,13.054V481.879z"/>
			<path d="M206.368,167.204c0.507-0.615,0.924-1.299,1.236-2.033c19.017-33.658,19.017-74.817,0-108.476
				c-0.313-0.733-0.729-1.418-1.236-2.033C186.506,20.801,150.189,0,110.932,0S35.359,20.803,15.498,54.665
				c-0.507,0.614-0.922,1.297-1.234,2.029c-19.018,33.659-19.018,74.819,0,108.478c0.312,0.732,0.728,1.415,1.234,2.029
				c19.861,33.862,56.177,54.665,95.434,54.665C150.189,221.867,186.506,201.066,206.368,167.204z M64.092,29.711
				c-4.39,6.756-8.05,13.959-10.919,21.489h-14.59C45.744,42.581,54.382,35.305,64.092,29.711z M27.429,68.266h20.32
				C45.01,79.456,43.394,90.89,42.923,102.4H17.499C18.584,90.489,21.956,78.9,27.429,68.266z M27.429,153.6
				c-5.474-10.634-8.845-22.223-9.93-34.133h25.424c0.471,11.51,2.088,22.944,4.826,34.133H27.429z M38.583,170.666h14.59
				c2.869,7.529,6.529,14.732,10.919,21.489C54.382,186.561,45.744,179.285,38.583,170.666z M102.4,203.326
				c-14.214-6.274-25.26-18.066-30.594-32.659H102.4V203.326z M102.4,153.6H65.578c-3.151-11.13-5.03-22.58-5.601-34.133H102.4
				V153.6z M102.4,102.4H59.977c0.571-11.553,2.45-23.004,5.601-34.133H102.4V102.4z M102.4,51.2H71.806
				C77.14,36.607,88.186,24.815,102.4,18.54V51.2z M194.437,153.6h-20.319c2.738-11.189,4.354-22.624,4.825-34.133h25.424
				C203.283,131.377,199.911,142.966,194.437,153.6z M194.438,68.266c5.474,10.634,8.845,22.223,9.93,34.133h-25.424
				c-0.471-11.51-2.087-22.944-4.825-34.133H194.438z M183.283,51.2h-14.59c-2.869-7.529-6.529-14.732-10.919-21.489
				C167.485,35.305,176.122,42.581,183.283,51.2z M119.467,18.54c14.214,6.274,25.26,18.066,30.594,32.659h-30.594V18.54z
				 M119.467,68.266h36.822c3.151,11.129,5.03,22.58,5.601,34.133h-42.423V68.266z M119.467,203.326v-32.659h30.594
				C144.727,185.26,133.681,197.052,119.467,203.326z M119.467,153.6v-34.133h42.423c-0.571,11.553-2.45,23.004-5.601,34.133
				H119.467z M157.775,192.155L157.775,192.155c4.39-6.756,8.05-13.959,10.919-21.489h14.59
				C176.122,179.285,167.485,186.561,157.775,192.155z"/>
			<path d="M256.708,145.037c0.5-0.046,50.833-3.933,77.3,20.421c8.755,8.016,14.23,18.992,15.367,30.808h-33.642
				c-3.451-0.001-6.563,2.078-7.883,5.267c-1.323,3.189-0.593,6.861,1.85,9.3l59.733,59.733c1.6,1.601,3.77,2.5,6.033,2.5
				c2.263,0,4.433-0.899,6.033-2.5l59.733-59.733c2.441-2.44,3.171-6.11,1.85-9.299c-1.321-3.189-4.432-5.268-7.884-5.267h-34.292
				c-1.575-42.629-15.133-76.212-40.35-99.904C317.95,56.329,257.992,59.579,255.467,59.75c-4.497,0.28-8.001,4.01-8,8.516v68.267
				c0.002,2.386,1.001,4.662,2.757,6.278C251.979,144.426,254.331,145.234,256.708,145.037z M264.533,76.808
				c16.65,0.625,55.808,5.108,84.45,32.096C372.217,130.8,384,163.062,384,204.8c-0.001,2.263,0.898,4.434,2.499,6.035
				c1.6,1.6,3.771,2.499,6.035,2.499H414.6l-39.133,39.133l-39.133-39.133H358.4c2.263,0.001,4.434-0.898,6.035-2.499
				c1.6-1.6,2.499-3.771,2.499-6.035c0.754-19.582-7.045-38.524-21.367-51.9c-24.542-22.583-63.333-25.287-81.033-25.2V76.808z"/>
		</g>
	</g>
</g>
<g>
</g>
<g>
</g>
<g>
</g>
<g>
</g>
<g>
</g>
<g>
</g>
<g>
</g>
<g>
</g>
<g>
</g>
<g>
</g>
<g>
</g>
<g>
</g>
<g>
</g>
<g>
</g>
<g>
</g>
</svg>
