<?xml version="1.0" encoding="iso-8859-1"?>
<!-- Generator: Adobe Illustrator 19.0.0, SVG Export Plug-In . SVG Version: 6.00 Build 0)  -->
<svg version="1.1" id="Capa_1" xmlns="http://www.w3.org/2000/svg" xmlns:xlink="http://www.w3.org/1999/xlink" x="0px" y="0px"
	 viewBox="0 0 512 512" style="enable-background:new 0 0 512 512;" xml:space="preserve">
<g>
	<g>
		<g>
			<path d="M469.333,85.333H42.667C19.114,85.361,0.028,104.447,0,128v256c0.028,23.553,19.114,42.639,42.667,42.667h426.667
				C492.886,426.639,511.972,407.553,512,384V128C511.972,104.447,492.886,85.361,469.333,85.333z M76.8,409.6H42.667
				c-14.132-0.015-25.585-11.468-25.6-25.6V128c0.015-14.132,11.468-25.585,25.6-25.6H76.8V409.6z M110.933,409.6H97.4
				l13.533-13.533V409.6z M110.933,371.934L93.867,389v-27.067l17.067-17.067V371.934z M110.933,320.734L93.867,337.8v-27.067
				l17.067-17.067V320.734z M110.933,269.534L93.867,286.6v-27.067l17.067-17.067V269.534z M110.933,218.334L93.867,235.4v-27.067
				l17.067-17.067V218.334z M110.933,167.134L93.867,184.2v-27.067l17.067-17.067V167.134z M110.933,115.934L93.867,133v-30.6
				h17.067V115.934z M153.6,409.6H128V102.4h25.6V409.6z M187.733,409.6H174.2l13.533-13.533V409.6z M187.733,371.934L170.667,389
				v-27.067l17.067-17.067V371.934z M187.733,320.734L170.667,337.8v-27.067l17.067-17.067V320.734z M187.733,269.534L170.667,286.6
				v-27.067l17.067-17.067V269.534z M187.733,218.334L170.667,235.4v-27.067l17.067-17.067V218.334z M187.733,167.134L170.667,184.2
				v-27.067l17.067-17.067V167.134z M187.733,115.934L170.667,133v-30.6h17.067V115.934z M230.4,409.6h-25.6V102.4h25.6V409.6z
				 M264.533,409.6H251l13.533-13.533V409.6z M264.533,371.934L247.467,389v-27.067l17.067-17.067V371.934z M264.533,320.734
				L247.467,337.8v-27.067l17.067-17.067V320.734z M264.533,269.534L247.467,286.6v-27.067l17.067-17.067V269.534z M264.533,218.334
				L247.467,235.4v-27.067l17.067-17.067V218.334z M264.533,167.134L247.467,184.2v-27.067l17.067-17.067V167.134z M264.533,115.934
				L247.467,133v-30.6h17.067V115.934z M307.2,409.6h-25.6V102.4h25.6V409.6z M341.333,409.6H327.8l13.533-13.533V409.6z
				 M341.333,371.933L324.267,389v-27.067l17.067-17.067V371.933z M341.333,320.733L324.267,337.8v-27.067l17.067-17.067V320.733z
				 M341.333,269.533L324.267,286.6v-27.067l17.067-17.067V269.533z M341.333,218.333L324.267,235.4v-27.067l17.067-17.067V218.333z
				 M341.333,167.133L324.267,184.2v-27.067l17.067-17.067V167.133z M341.333,115.934L324.267,133v-30.6h17.067V115.934z M384,409.6
				h-25.6V102.4H384V409.6z M418.133,409.6H404.6l13.533-13.533V409.6z M418.133,371.933L401.067,389v-27.067l17.067-17.067V371.933
				z M418.133,320.733L401.067,337.8v-27.067l17.067-17.067V320.733z M418.133,269.533L401.067,286.6v-27.067l17.067-17.067V269.533
				z M418.133,218.333L401.067,235.4v-27.067l17.067-17.067V218.333z M418.133,167.133L401.067,184.2v-27.067l17.067-17.067V167.133
				z M418.133,115.933L401.067,133v-30.6h17.067V115.933z M494.933,384c-0.015,14.132-11.468,25.585-25.6,25.6H435.2V102.4h34.133
				c14.132,0.015,25.585,11.468,25.6,25.6V384z"/>
			<path d="M469.333,230.4c-2.263-0.001-4.434,0.898-6.035,2.499c-1.6,1.6-2.499,3.771-2.499,6.035v34.133
				c0,4.713,3.82,8.533,8.533,8.533s8.533-3.82,8.533-8.533v-34.133c0.001-2.263-0.898-4.434-2.499-6.035
				C473.768,231.298,471.597,230.399,469.333,230.4z"/>
			<path d="M36.632,241.432c-1.6,1.6-2.499,3.771-2.499,6.035v17.067c0,4.713,3.82,8.533,8.533,8.533s8.533-3.82,8.533-8.533
				v-17.067c0.001-2.263-0.898-4.434-2.499-6.035c-1.6-1.6-3.771-2.499-6.035-2.499C40.403,238.933,38.232,239.832,36.632,241.432z"
				/>
		</g>
	</g>
</g>
<g>
</g>
<g>
</g>
<g>
</g>
<g>
</g>
<g>
</g>
<g>
</g>
<g>
</g>
<g>
</g>
<g>
</g>
<g>
</g>
<g>
</g>
<g>
</g>
<g>
</g>
<g>
</g>
<g>
</g>
</svg>
