<?xml version="1.0" encoding="iso-8859-1"?>
<!-- Generator: Adobe Illustrator 19.0.0, SVG Export Plug-In . SVG Version: 6.00 Build 0)  -->
<svg version="1.1" id="Capa_1" xmlns="http://www.w3.org/2000/svg" xmlns:xlink="http://www.w3.org/1999/xlink" x="0px" y="0px"
	 viewBox="0 0 512.022 512.022" style="enable-background:new 0 0 512.022 512.022;" xml:space="preserve">
<g>
	<g>
		<path d="M512.011,44.299c0.417-14.574-11.027-26.743-25.6-27.221h-460.8c-14.573,0.478-26.017,12.646-25.6,27.221v355.158
			c-0.417,14.574,11.027,26.743,25.6,27.221H190.61l-17.5,51.2h-10.965c-4.713,0-8.533,3.82-8.533,8.533s3.82,8.533,8.533,8.533
			h187.733c4.713,0,8.533-3.82,8.533-8.533s-3.82-8.533-8.533-8.533h-10.965l-17.5-51.2h164.999
			c14.573-0.478,26.017-12.646,25.6-27.221V44.299z M392.544,34.144h25.6v307.2h-25.6V34.144z M358.411,34.144h17.067v13.533
			l-17.067,17.067V34.144z M358.411,88.878l17.067-17.067v27.067l-17.067,17.067V88.878z M358.411,140.078l17.067-17.067v27.067
			l-17.067,17.067V140.078z M358.411,191.278l17.067-17.067v27.067l-17.067,17.067V191.278z M358.411,242.478l17.067-17.067v27.067
			l-17.067,17.067V242.478z M358.411,293.678l17.067-17.067v27.067l-17.067,17.067V293.678z M375.478,327.811v13.533h-13.533
			L375.478,327.811z M315.744,34.144h25.6v307.2h-25.6V34.144z M281.611,34.144h17.067v13.533l-17.067,17.067V34.144z
			 M281.611,88.878l17.067-17.067v27.067l-17.067,17.067V88.878z M281.611,140.078l17.067-17.067v27.067l-17.067,17.067V140.078z
			 M281.611,191.278l17.067-17.067v27.067l-17.067,17.067V191.278z M281.611,242.478l17.067-17.067v27.067l-17.067,17.067V242.478z
			 M281.611,293.678l17.067-17.067v27.067l-17.067,17.067V293.678z M298.678,327.811v13.533h-13.533L298.678,327.811z
			 M238.944,34.144h25.6v307.2h-25.6V34.144z M204.811,34.144h17.067v13.533l-17.067,17.067V34.144z M204.811,88.878l17.067-17.067
			v27.067l-17.067,17.067V88.878z M204.811,140.078l17.067-17.067v27.067l-17.067,17.067V140.078z M204.811,191.278l17.067-17.067
			v27.067l-17.067,17.067V191.278z M204.811,242.478l17.067-17.067v27.067l-17.067,17.067V242.478z M204.811,293.678l17.067-17.067
			v27.067l-17.067,17.067V293.678z M221.878,327.811v13.533h-13.533L221.878,327.811z M162.144,34.144h25.6v307.2h-25.6V34.144z
			 M128.011,34.144h17.067v13.533l-17.067,17.067V34.144z M128.011,88.878l17.067-17.067v27.067l-17.067,17.067V88.878z
			 M128.011,140.078l17.067-17.067v27.067l-17.067,17.067V140.078z M128.011,191.278l17.067-17.067v27.067l-17.067,17.067V191.278z
			 M128.011,242.478l17.067-17.067v27.067l-17.067,17.067V242.478z M128.011,293.678l17.067-17.067v27.067l-17.067,17.067V293.678z
			 M145.078,327.811v13.533h-13.533L145.078,327.811z M85.344,34.144h25.6v307.2h-25.6V34.144z M25.611,34.144h42.667v307.2h-51.2
			V44.299C16.74,39.173,20.504,34.694,25.611,34.144z M191.144,477.878l17.5-51.2h94.733l17.5,51.2H191.144z M486.411,409.611
			h-460.8c-5.107-0.55-8.871-5.029-8.533-10.154v-41.046h477.867v41.046C495.282,404.582,491.518,409.061,486.411,409.611z
			 M494.944,44.299v297.046h-59.733v-307.2h51.2C491.518,34.694,495.282,39.173,494.944,44.299z"/>
	</g>
</g>
<g>
</g>
<g>
</g>
<g>
</g>
<g>
</g>
<g>
</g>
<g>
</g>
<g>
</g>
<g>
</g>
<g>
</g>
<g>
</g>
<g>
</g>
<g>
</g>
<g>
</g>
<g>
</g>
<g>
</g>
</svg>
