<?xml version="1.0" encoding="iso-8859-1"?>
<!-- Generator: Adobe Illustrator 19.0.0, SVG Export Plug-In . SVG Version: 6.00 Build 0)  -->
<svg version="1.1" id="Capa_1" xmlns="http://www.w3.org/2000/svg" xmlns:xlink="http://www.w3.org/1999/xlink" x="0px" y="0px"
	 viewBox="0 0 512.022 512.022" style="enable-background:new 0 0 512.022 512.022;" xml:space="preserve">
<g transform="translate(-1)">
	<g>
		<g>
			<path d="M513.011,61.361c0.417-14.574-11.027-26.743-25.6-27.221H353.38c-2.66-2.138-5.329-4.268-8.144-6.233
				c-3.387-2.383-7.999-1.976-10.917,0.963l-16.95,16.938c-8.458-4.773-17.462-8.504-26.817-11.113V10.74
				c0.001-4.134-2.963-7.674-7.033-8.4c-17.536-3.1-35.48-3.1-53.017,0c-4.07,0.726-7.034,4.266-7.033,8.4v23.954
				c-9.355,2.608-18.359,6.339-26.817,11.113l-16.95-16.938c-2.918-2.938-7.529-3.344-10.917-0.963
				c-2.815,1.965-5.483,4.095-8.144,6.233H26.611c-14.573,0.478-26.017,12.646-25.6,27.221v355.158
				c-0.417,14.574,11.027,26.743,25.6,27.221H191.61l-17.5,51.2h-10.965c-4.713,0-8.533,3.82-8.533,8.533s3.82,8.533,8.533,8.533
				h187.733c4.713,0,8.533-3.82,8.533-8.533s-3.82-8.533-8.533-8.533h-10.965l-17.5-51.2h164.999
				c14.573-0.478,26.017-12.646,25.6-27.221V61.361z M172.828,46.128l16.475,16.467c2.837,2.842,7.273,3.319,10.65,1.146
				c10.368-6.662,21.843-11.42,33.883-14.05c3.913-0.861,6.7-4.327,6.7-8.333V18.078c10.943-1.333,22.007-1.333,32.95,0v23.279
				c0,4.006,2.787,7.473,6.7,8.333c12.04,2.63,23.515,7.388,33.883,14.05c3.379,2.164,7.808,1.687,10.65-1.146l16.475-16.467
				c8.695,6.777,16.521,14.602,23.3,23.296l-16.475,16.471c-2.841,2.838-3.317,7.274-1.142,10.65
				c6.661,10.368,11.419,21.84,14.05,33.879c0.857,3.915,4.325,6.705,8.333,6.704h23.275c1.344,10.945,1.344,22.013,0,32.958
				h-23.275c-4.008-0.001-7.476,2.789-8.333,6.704c-2.631,12.039-7.389,23.512-14.05,33.88c-2.175,3.376-1.7,7.812,1.142,10.65
				l16.475,16.471c-6.779,8.694-14.605,16.519-23.3,23.296l-16.475-16.467c-2.841-2.834-7.271-3.311-10.65-1.146
				c-10.368,6.662-21.843,11.42-33.883,14.05c-3.913,0.861-6.7,4.327-6.7,8.333v23.279c-10.943,1.333-22.007,1.333-32.95,0v-23.279
				c0-4.006-2.787-7.473-6.7-8.333c-12.041-2.63-23.515-7.388-33.883-14.05c-3.376-2.176-7.814-1.699-10.65,1.146l-16.475,16.467
				c-8.695-6.777-16.521-14.602-23.3-23.296l16.475-16.47c2.841-2.838,3.317-7.274,1.142-10.65
				c-6.661-10.368-11.419-21.84-14.05-33.879c-0.857-3.915-4.325-6.705-8.333-6.704h-23.275c-1.344-10.945-1.344-22.013,0-32.958
				h23.275c4.008,0.001,7.476-2.789,8.333-6.704c2.631-12.039,7.389-23.512,14.05-33.88c2.175-3.376,1.7-7.812-1.142-10.65
				l-16.475-16.471C156.307,60.729,164.132,52.905,172.828,46.128z M192.144,494.94l17.5-51.2h94.733l17.5,51.2H192.144z
				 M487.411,426.674h-460.8c-5.107-0.55-8.871-5.029-8.533-10.154v-41.046h477.867v41.046
				C496.282,421.645,492.518,426.124,487.411,426.674z M495.944,61.361v297.046H18.078V61.361
				c-0.338-5.125,3.427-9.605,8.533-10.154h116.083c-4.077,4.493-7.882,9.226-11.392,14.175c-2.366,3.394-1.959,7.996,0.967,10.921
				l16.942,16.942c-4.773,8.458-8.506,17.462-11.117,26.817h-23.95c-4.133-0.001-7.672,2.961-8.4,7.029
				c-3.111,17.541-3.111,35.492,0,53.033c0.728,4.068,4.267,7.03,8.4,7.029h23.95c2.611,9.354,6.344,18.359,11.117,26.817
				l-16.942,16.942c-2.926,2.925-3.333,7.527-0.967,10.921c10.189,14.603,22.878,27.29,37.483,37.475
				c3.39,2.373,7.995,1.968,10.917-0.962l16.95-16.937c8.458,4.773,17.462,8.504,26.817,11.113v23.954
				c-0.001,4.134,2.963,7.674,7.033,8.4c17.535,3.111,35.481,3.111,53.017,0c4.07-0.726,7.034-4.266,7.033-8.4v-23.954
				c9.355-2.608,18.359-6.339,26.817-11.112l16.95,16.937c2.922,2.931,7.527,3.337,10.917,0.962
				c14.605-10.185,27.295-22.872,37.483-37.475c2.366-3.394,1.959-7.996-0.967-10.921l-16.942-16.942
				c4.773-8.458,8.506-17.462,11.117-26.817h23.95c4.133,0.001,7.672-2.961,8.4-7.029c3.111-17.541,3.111-35.492,0-53.033
				c-0.728-4.068-4.267-7.03-8.4-7.029h-23.95c-2.611-9.354-6.344-18.359-11.117-26.817l16.942-16.942
				c2.926-2.925,3.333-7.527,0.967-10.921c-3.51-4.948-7.314-9.682-11.392-14.175h116.083
				C492.518,51.756,496.282,56.236,495.944,61.361z"/>
			<path d="M120.478,294.407h-8.145c-0.672-2.378-1.625-4.667-2.836-6.82l5.765-5.767c3.332-3.332,3.332-8.734,0-12.067
				c-3.332-3.332-8.735-3.332-12.067,0l-5.766,5.768c-2.153-1.211-4.441-2.163-6.818-2.835v-8.145c0-4.713-3.821-8.533-8.533-8.533
				s-8.533,3.82-8.533,8.533v8.145c-2.377,0.672-4.666,1.624-6.818,2.835l-5.766-5.768c-2.149-2.185-5.306-3.049-8.269-2.264
				c-2.963,0.785-5.277,3.099-6.062,6.062c-0.785,2.963,0.079,6.119,2.265,8.268l5.765,5.767c-1.212,2.153-2.164,4.443-2.836,6.82
				h-8.145c-4.713,0-8.533,3.82-8.533,8.533s3.82,8.533,8.533,8.533h8.145c0.672,2.378,1.625,4.667,2.836,6.82l-5.765,5.767
				c-2.156,2.156-2.997,5.297-2.208,8.242c0.789,2.944,3.089,5.244,6.033,6.033c2.944,0.789,6.086-0.053,8.242-2.208l5.766-5.768
				c2.153,1.211,4.441,2.163,6.818,2.835v8.145c0,4.713,3.82,8.533,8.533,8.533s8.533-3.82,8.533-8.533v-8.145
				c2.377-0.672,4.666-1.624,6.818-2.835l5.766,5.768c3.332,3.332,8.734,3.332,12.067,0c3.332-3.332,3.332-8.735,0-12.067
				l-5.765-5.767c1.212-2.153,2.164-4.443,2.836-6.82h8.144c4.713,0,8.533-3.82,8.533-8.533S125.191,294.407,120.478,294.407z
				 M82.078,317.449c-8.013,0-14.508-6.496-14.508-14.508s6.496-14.508,14.508-14.508c8.009,0.009,14.499,6.499,14.508,14.508
				C96.586,310.953,90.09,317.449,82.078,317.449z"/>
			<path d="M470.344,285.874H462.2c-0.672-2.378-1.625-4.667-2.836-6.82l5.765-5.767c2.155-2.156,2.997-5.297,2.208-8.242
				c-0.789-2.944-3.089-5.244-6.033-6.033c-2.944-0.789-6.086,0.053-8.242,2.208l-5.766,5.768c-2.153-1.211-4.441-2.163-6.818-2.835
				v-8.145c0-4.713-3.82-8.533-8.533-8.533s-8.533,3.82-8.533,8.533v8.145c-2.377,0.672-4.666,1.624-6.818,2.835l-5.766-5.768
				c-2.156-2.156-5.297-2.997-8.242-2.208c-2.944,0.789-5.244,3.089-6.033,6.033c-0.789,2.944,0.053,6.086,2.208,8.242l5.765,5.767
				c-1.212,2.153-2.164,4.443-2.836,6.82h-8.144c-4.713,0-8.533,3.82-8.533,8.533s3.821,8.533,8.533,8.533h8.145
				c0.672,2.378,1.625,4.667,2.836,6.82l-5.765,5.767c-2.155,2.156-2.997,5.297-2.208,8.242c0.789,2.944,3.089,5.244,6.033,6.033
				c2.944,0.789,6.086-0.053,8.242-2.208l5.766-5.768c2.153,1.211,4.441,2.163,6.818,2.835v8.145c0,4.713,3.82,8.533,8.533,8.533
				s8.533-3.821,8.533-8.533v-8.145c2.377-0.672,4.666-1.624,6.818-2.835l5.766,5.768c3.332,3.332,8.735,3.332,12.067,0
				c3.332-3.332,3.332-8.735,0-12.067l-5.765-5.767c1.212-2.153,2.164-4.443,2.836-6.82h8.144c4.713,0,8.533-3.82,8.533-8.533
				S475.057,285.874,470.344,285.874z M431.944,308.915c-8.013,0-14.508-6.496-14.508-14.508s6.496-14.508,14.508-14.508
				c8.009,0.009,14.499,6.499,14.508,14.508C446.453,302.42,439.957,308.915,431.944,308.915z"/>
			<path d="M257.011,221.24c37.353,0,67.633-30.28,67.633-67.633c0-37.353-30.28-67.633-67.633-67.633
				c-37.353,0-67.633,30.28-67.633,67.633C189.421,190.942,219.676,221.197,257.011,221.24z M257.011,103.04
				c27.927,0,50.567,22.639,50.567,50.567c0,27.927-22.64,50.567-50.567,50.567s-50.567-22.639-50.567-50.567
				C206.475,125.693,229.097,103.071,257.011,103.04z"/>
		</g>
	</g>
</g>
<g>
</g>
<g>
</g>
<g>
</g>
<g>
</g>
<g>
</g>
<g>
</g>
<g>
</g>
<g>
</g>
<g>
</g>
<g>
</g>
<g>
</g>
<g>
</g>
<g>
</g>
<g>
</g>
<g>
</g>
</svg>
