<?xml version="1.0" encoding="iso-8859-1"?>
<!-- Generator: Adobe Illustrator 19.0.0, SVG Export Plug-In . SVG Version: 6.00 Build 0)  -->
<svg version="1.1" id="Capa_1" xmlns="http://www.w3.org/2000/svg" xmlns:xlink="http://www.w3.org/1999/xlink" x="0px" y="0px"
	 viewBox="0 0 512 512" style="enable-background:new 0 0 512 512;" xml:space="preserve">
<g>
	<g>
		<g>
			<path d="M494.933,0H17.067C7.645,0.011,0.011,7.645,0,17.067v477.867c0.011,9.421,7.645,17.056,17.067,17.067h477.867
				c9.421-0.011,17.056-7.645,17.067-17.067V17.067C511.989,7.645,504.355,0.011,494.933,0z M17.067,17.067h477.867V51.2H17.067
				V17.067z M17.067,494.933V68.267h477.868l0.008,426.667H17.067z"/>
			<path d="M93.867,25.6h-51.2c-4.713,0-8.533,3.821-8.533,8.533s3.82,8.533,8.533,8.533h51.2c4.713,0,8.533-3.82,8.533-8.533
				S98.579,25.6,93.867,25.6z"/>
			<path d="M145.067,25.6H128c-4.713,0-8.533,3.821-8.533,8.533s3.82,8.533,8.533,8.533h17.067c4.713,0,8.533-3.82,8.533-8.533
				S149.779,25.6,145.067,25.6z"/>
			<path d="M196.267,25.6H179.2c-4.713,0-8.533,3.821-8.533,8.533s3.82,8.533,8.533,8.533h17.067c4.713,0,8.533-3.82,8.533-8.533
				S200.979,25.6,196.267,25.6z"/>
			<path d="M247.467,25.6H230.4c-4.713,0-8.533,3.821-8.533,8.533s3.82,8.533,8.533,8.533h17.067c4.713,0,8.533-3.82,8.533-8.533
				S252.18,25.6,247.467,25.6z"/>
			<path d="M298.667,25.6H281.6c-4.713,0-8.533,3.821-8.533,8.533s3.82,8.533,8.533,8.533h17.067c4.713,0,8.533-3.82,8.533-8.533
				S303.38,25.6,298.667,25.6z"/>
			<path d="M477.867,25.6h-8.533c-4.713,0-8.533,3.821-8.533,8.533s3.82,8.533,8.533,8.533h8.533c4.713,0,8.533-3.82,8.533-8.533
				S482.58,25.6,477.867,25.6z"/>
			<path d="M460.8,102.4H349.867c-9.421,0.011-17.056,7.645-17.067,17.067v34.622c-25.87,2.597-63.391,17.259-67.777,59.485
				c-1.579-0.103-3.151-0.241-4.756-0.241c-4.688,0.007-9.365,0.469-13.965,1.379c-1.842-16.24-9.455-31.279-21.452-42.379
				c-15.291-12.479-34.474-19.202-54.21-18.996c-0.145-9.311-7.727-16.788-17.04-16.804h-42.667v-17.067
				c-0.011-9.421-7.646-17.056-17.067-17.067H51.2c-9.421,0.011-17.056,7.645-17.067,17.067v102.4
				c0.011,9.421,7.645,17.056,17.067,17.067h102.4c9.421-0.011,17.056-7.646,17.067-17.067v-51.443
				c15.559-0.175,30.703,5.015,42.883,14.697c9.609,9.226,15.404,21.724,16.237,35.019c-21.498,10.002-36.764,29.865-40.897,53.213
				c-21.427,0.184-41.869,9.028-56.674,24.518c-14.044,17.03-21.652,38.456-21.493,60.529H51.2
				c-9.421,0.011-17.056,7.645-17.067,17.067V460.8c0.011,9.421,7.645,17.056,17.067,17.067h110.933
				c9.421-0.011,17.056-7.646,17.067-17.067v-85.333c-0.011-9.421-7.646-17.056-17.067-17.067h-34.317
				c-0.136-17.871,5.915-35.24,17.125-49.158c11.333-11.647,26.777-18.394,43.023-18.796c2.274,36.518,31.416,65.61,67.937,67.822
				c36.522,2.212,68.961-23.152,75.625-59.128c16.611,1.783,55.8,10.426,60.434,51.211c-25.644,1.802-50.628,9.031-50.628,25.116
				v68.267c0,20.208,40.233,25.6,64,25.6c23.767,0,64-5.392,64-25.6v-68.267c0-18.098-31.616-24.995-60.227-25.546
				c-4.531-48.775-47.573-65.268-76.5-67.881c-1.612-30.211-21.783-56.258-50.629-65.378c3.006-34.736,35.07-43.267,50.823-45.309
				V204.8c0.011,9.421,7.646,17.056,17.067,17.067H460.8c9.421-0.011,17.056-7.646,17.067-17.067v-85.333
				C477.856,110.045,470.221,102.411,460.8,102.4z M51.2,119.467h42.667v17.067H51.2V119.467z M51.2,221.867V153.6h102.4
				l0.008,68.267H51.2z M162.142,460.8H51.2v-5l25.6-25.6l9.623,9.623c-1.771,3.263-1.198,7.301,1.411,9.943
				c1.6,1.601,3.77,2.5,6.033,2.5c2.263,0,4.433-0.899,6.033-2.5l28.1-28.1l34.142,34.141V460.8z M162.133,375.467l0.006,56.206
				l-28.107-28.105c-1.6-1.601-3.77-2.5-6.033-2.5s-4.433,0.899-6.033,2.5l-23.834,23.834l-15.3-15.3c-1.6-1.601-3.77-2.5-6.033-2.5
				s-4.433,0.899-6.033,2.5L51.2,431.667v-56.2H162.133z M452.267,442.782c-2.929,3.067-19.088,9.485-46.933,9.485
				c-27.846,0-44.004-6.418-46.933-9.485v-14.712c15.106,5.108,30.992,7.522,46.933,7.131c15.941,0.391,31.828-2.022,46.933-7.131
				V442.782z M452.267,408.675c-3.107,3.405-19.531,9.458-46.933,9.458c-27.402,0-43.826-6.054-46.933-9.458v-14.739
				c15.106,5.108,30.992,7.522,46.933,7.131c15.941,0.391,31.828-2.022,46.933-7.131V408.675z M451.191,375.467
				c-4.908,3.471-20.8,8.533-45.858,8.533c-25.058,0-40.95-5.063-45.858-8.533c4.908-3.471,20.8-8.533,45.858-8.533
				C430.391,366.933,446.283,371.996,451.191,375.467z M314.183,273.067c1.014,4.192,1.534,8.488,1.55,12.8
				c-0.016,4.313-0.536,8.608-1.55,12.8h-16.102c0.36-4.145,0.585-8.4,0.585-12.8s-0.225-8.655-0.585-12.8H314.183z M306.931,256
				h-11.455c-1.265-5.755-3.059-11.38-5.357-16.806C296.864,243.525,302.598,249.256,306.931,256z M295.476,315.733h11.455
				c-4.333,6.744-10.067,12.476-16.813,16.806C292.418,327.114,294.211,321.488,295.476,315.733z M260.267,230.4
				c5.743,0,13.179,9.46,17.585,25.6h-35.171C247.088,239.86,254.524,230.4,260.267,230.4z M206.35,298.667
				c-1.014-4.192-1.534-8.487-1.55-12.8c0.016-4.313,0.536-8.608,1.55-12.8h16.102c-0.36,4.145-0.585,8.4-0.585,12.8
				s0.225,8.655,0.585,12.8H206.35z M213.602,315.733h11.455c1.265,5.755,3.058,11.38,5.357,16.806
				C223.669,328.209,217.935,322.477,213.602,315.733z M225.057,256h-11.455c4.333-6.744,10.067-12.475,16.813-16.806
				C228.116,244.62,226.322,250.245,225.057,256z M260.267,341.333c-5.743,0-13.179-9.46-17.585-25.6h35.171
				C273.446,331.873,266.01,341.333,260.267,341.333z M280.957,298.667h-41.381c-0.857-8.512-0.857-17.088,0-25.6h41.381
				c0.429,4.253,0.643,8.525,0.643,12.8C281.601,290.141,281.386,294.414,280.957,298.667z M349.867,204.8v-85.333H460.8
				l0.008,85.333H349.867z"/>
			<path d="M392.533,145.067c0-2.263-0.899-4.433-2.5-6.033c-1.6-1.601-3.77-2.5-6.033-2.5s-4.433,0.899-6.033,2.5L360.9,156.1
				c-1.601,1.6-2.5,3.77-2.5,6.033s0.899,4.433,2.5,6.033l17.067,17.067c2.156,2.156,5.297,2.997,8.242,2.208
				c2.944-0.789,5.244-3.089,6.033-6.033c0.789-2.944-0.053-6.086-2.208-8.242L379,162.133l11.034-11.034
				C391.634,149.5,392.533,147.33,392.533,145.067z"/>
			<path d="M432.7,139.034c-3.341-3.281-8.701-3.256-12.012,0.054c-3.311,3.311-3.335,8.671-0.054,12.012l11.033,11.034
				l-11.034,11.034c-2.178,2.151-3.037,5.304-2.251,8.262s3.097,5.269,6.055,6.055s6.111-0.073,8.262-2.251l17.067-17.067
				c1.601-1.6,2.5-3.77,2.5-6.033c0-2.263-0.899-4.433-2.5-6.033L432.7,139.034z"/>
			<path d="M76.8,401.067c4.024-0.039,7.462-2.911,8.218-6.863c0.756-3.953-1.38-7.89-5.105-9.412
				c-3.725-1.522-8.007-0.206-10.235,3.146c-2.227,3.352-1.783,7.809,1.063,10.654C72.379,400.148,74.541,401.032,76.8,401.067z"/>
		</g>
	</g>
</g>
<g>
</g>
<g>
</g>
<g>
</g>
<g>
</g>
<g>
</g>
<g>
</g>
<g>
</g>
<g>
</g>
<g>
</g>
<g>
</g>
<g>
</g>
<g>
</g>
<g>
</g>
<g>
</g>
<g>
</g>
</svg>
