<?xml version="1.0" encoding="iso-8859-1"?>
<!-- Generator: Adobe Illustrator 19.0.0, SVG Export Plug-In . SVG Version: 6.00 Build 0)  -->
<svg version="1.1" id="Capa_1" xmlns="http://www.w3.org/2000/svg" xmlns:xlink="http://www.w3.org/1999/xlink" x="0px" y="0px"
	 viewBox="0 0 512 512" style="enable-background:new 0 0 512 512;" xml:space="preserve">
<g>
	<g>
		<g>
			<path d="M494.933,0H17.067C7.645,0.011,0.011,7.645,0,17.067v477.867c0.011,9.421,7.645,17.056,17.067,17.067h477.867
				c9.421-0.011,17.056-7.645,17.067-17.067V17.067C511.989,7.645,504.355,0.011,494.933,0z M17.067,17.067h477.867V51.2H17.067
				V17.067z M247.467,494.933h-230.4V460.8h230.4V494.933z M247.467,443.733h-230.4V179.2h230.4V443.733z M247.467,162.133h-230.4
				V68.267h230.4V162.133z M264.533,494.933V68.267h230.401l0.008,426.667H264.533z"/>
			<path d="M93.867,25.6h-51.2c-4.713,0-8.533,3.821-8.533,8.533s3.82,8.533,8.533,8.533h51.2c4.713,0,8.533-3.82,8.533-8.533
				S98.579,25.6,93.867,25.6z"/>
			<path d="M145.067,25.6H128c-4.713,0-8.533,3.821-8.533,8.533s3.82,8.533,8.533,8.533h17.067c4.713,0,8.533-3.82,8.533-8.533
				S149.779,25.6,145.067,25.6z"/>
			<path d="M196.267,25.6H179.2c-4.713,0-8.533,3.821-8.533,8.533s3.82,8.533,8.533,8.533h17.067c4.713,0,8.533-3.82,8.533-8.533
				S200.979,25.6,196.267,25.6z"/>
			<path d="M247.467,25.6H230.4c-4.713,0-8.533,3.821-8.533,8.533s3.82,8.533,8.533,8.533h17.067c4.713,0,8.533-3.82,8.533-8.533
				S252.18,25.6,247.467,25.6z"/>
			<path d="M298.667,25.6H281.6c-4.713,0-8.533,3.821-8.533,8.533s3.82,8.533,8.533,8.533h17.067c4.713,0,8.533-3.82,8.533-8.533
				S303.38,25.6,298.667,25.6z"/>
			<path d="M477.867,25.6h-8.533c-4.713,0-8.533,3.821-8.533,8.533s3.82,8.533,8.533,8.533h8.533c4.713,0,8.533-3.82,8.533-8.533
				S482.58,25.6,477.867,25.6z"/>
			<path d="M51.2,247.467h162.133c9.421-0.011,17.056-7.645,17.067-17.067v-17.067c-0.011-9.421-7.646-17.056-17.067-17.067H51.2
				c-9.421,0.011-17.056,7.646-17.067,17.067V230.4C34.144,239.821,41.779,247.456,51.2,247.467z M51.2,213.333h162.133
				l0.008,17.067H51.2V213.333z"/>
			<path d="M51.2,324.267h25.6c9.421-0.011,17.056-7.645,17.067-17.067v-25.6c-0.011-9.421-7.646-17.056-17.067-17.067H51.2
				c-9.421,0.011-17.056,7.646-17.067,17.067v25.6C34.144,316.621,41.779,324.256,51.2,324.267z M51.2,281.6h25.6l0.009,25.6H51.2
				V281.6z"/>
			<path d="M145.067,264.533h-25.6c-9.421,0.011-17.056,7.646-17.067,17.067v25.6c0.011,9.421,7.645,17.056,17.067,17.067h25.6
				c9.421-0.011,17.056-7.645,17.067-17.067v-25.6C162.123,272.179,154.488,264.544,145.067,264.533z M119.467,307.2v-25.6h25.6
				l0.009,25.6H119.467z"/>
			<path d="M213.333,264.533h-25.6c-9.421,0.011-17.056,7.646-17.067,17.067v25.6c0.011,9.421,7.645,17.056,17.067,17.067h25.6
				c9.421-0.011,17.056-7.645,17.067-17.067v-25.6C230.389,272.179,222.755,264.544,213.333,264.533z M187.733,307.2v-25.6h25.6
				l0.008,25.6H187.733z"/>
			<path d="M42.667,358.4h42.667c4.713,0,8.533-3.82,8.533-8.533s-3.821-8.533-8.533-8.533H42.667c-4.713,0-8.533,3.82-8.533,8.533
				S37.954,358.4,42.667,358.4z"/>
			<path d="M153.6,341.333h-42.667c-4.713,0-8.533,3.82-8.533,8.533s3.82,8.533,8.533,8.533H153.6c4.713,0,8.533-3.82,8.533-8.533
				S158.313,341.333,153.6,341.333z"/>
			<path d="M221.867,341.333H179.2c-4.713,0-8.533,3.82-8.533,8.533s3.82,8.533,8.533,8.533h42.667c4.713,0,8.533-3.82,8.533-8.533
				S226.58,341.333,221.867,341.333z"/>
			<path d="M42.667,392.533h42.667c4.713,0,8.533-3.82,8.533-8.533s-3.821-8.533-8.533-8.533H42.667
				c-4.713,0-8.533,3.82-8.533,8.533S37.954,392.533,42.667,392.533z"/>
			<path d="M153.6,375.467h-42.667c-4.713,0-8.533,3.82-8.533,8.533s3.82,8.533,8.533,8.533H153.6c4.713,0,8.533-3.82,8.533-8.533
				S158.313,375.467,153.6,375.467z"/>
			<path d="M221.867,375.467H179.2c-4.713,0-8.533,3.82-8.533,8.533s3.82,8.533,8.533,8.533h42.667c4.713,0,8.533-3.82,8.533-8.533
				S226.58,375.467,221.867,375.467z"/>
			<path d="M42.667,426.667h42.667c4.713,0,8.533-3.82,8.533-8.533s-3.821-8.533-8.533-8.533H42.667
				c-4.713,0-8.533,3.82-8.533,8.533S37.954,426.667,42.667,426.667z"/>
			<path d="M153.6,409.6h-42.667c-4.713,0-8.533,3.82-8.533,8.533s3.82,8.533,8.533,8.533H153.6c4.713,0,8.533-3.82,8.533-8.533
				S158.313,409.6,153.6,409.6z"/>
			<path d="M221.867,409.6H179.2c-4.713,0-8.533,3.82-8.533,8.533s3.82,8.533,8.533,8.533h42.667c4.713,0,8.533-3.82,8.533-8.533
				S226.58,409.6,221.867,409.6z"/>
			<path d="M42.667,486.4h42.667c4.713,0,8.533-3.82,8.533-8.533s-3.821-8.533-8.533-8.533H42.667c-4.713,0-8.533,3.82-8.533,8.533
				S37.954,486.4,42.667,486.4z"/>
			<path d="M179.2,486.4c4.713,0,8.533-3.82,8.533-8.533c-0.017-0.573-0.076-1.144-0.175-1.708c-0.09-0.536-0.261-1.054-0.508-1.537
				c-0.189-0.542-0.446-1.057-0.767-1.533c-0.341-0.429-0.683-0.854-1.025-1.279c-3.421-3.158-8.695-3.158-12.117,0
				c-0.368,0.405-0.71,0.832-1.025,1.279c-0.324,0.474-0.581,0.99-0.767,1.533c-0.246,0.485-0.42,1.003-0.517,1.538
				c-0.093,0.565-0.148,1.136-0.167,1.708C170.667,482.58,174.487,486.4,179.2,486.4z"/>
			<path d="M200.016,484.946c0.477,0.324,0.996,0.583,1.542,0.771c0.483,0.245,1,0.418,1.533,0.513
				c0.565,0.098,1.136,0.155,1.709,0.171c3.45-0.014,6.556-2.096,7.879-5.282s0.606-6.856-1.82-9.31
				c-0.817-0.771-1.773-1.381-2.817-1.796c-1.557-0.679-3.287-0.857-4.95-0.508c-0.534,0.091-1.051,0.263-1.533,0.508
				c-0.546,0.187-1.064,0.447-1.542,0.771c-0.446,0.315-0.872,0.657-1.275,1.025c-3.3,3.365-3.3,8.752,0,12.117
				C199.145,484.291,199.57,484.632,200.016,484.946z"/>
			<path d="M227.149,485.746c3.187,1.323,6.856,0.606,9.31-1.82c0.771-0.816,1.379-1.772,1.792-2.817
				c0.437-1.026,0.669-2.127,0.683-3.242c-0.017-0.573-0.076-1.144-0.175-1.708c-0.089-0.536-0.261-1.054-0.508-1.538
				c-0.189-0.542-0.446-1.057-0.767-1.533c-0.341-0.429-0.683-0.854-1.025-1.279c-3.421-3.158-8.695-3.158-12.117,0
				c-0.368,0.405-0.71,0.832-1.025,1.279c-0.324,0.474-0.582,0.99-0.767,1.533c-0.246,0.485-0.42,1.003-0.517,1.538
				c-0.093,0.565-0.148,1.136-0.167,1.708C221.88,481.317,223.962,484.423,227.149,485.746z"/>
			<path d="M76.8,145.067c0,2.263,0.899,4.433,2.5,6.033c1.6,1.601,3.77,2.5,6.033,2.5c2.263,0,4.433-0.899,6.033-2.5l19.566-19.566
				L130.5,151.1c3.338,3.296,8.711,3.279,12.029-0.038c3.317-3.317,3.334-8.69,0.038-12.029L131.533,128l22.067-22.067l28.1,28.1
				c3.338,3.296,8.711,3.279,12.029-0.038s3.334-8.69,0.038-12.029l-34.133-34.133c-1.6-1.601-3.77-2.5-6.033-2.5
				c-2.263,0-4.433,0.899-6.033,2.5l-28.1,28.1l-2.5-2.5c-1.6-1.601-3.77-2.5-6.033-2.5c-2.263,0-4.433,0.899-6.033,2.5l-25.6,25.6
				C77.699,140.633,76.8,142.803,76.8,145.067z"/>
			<path d="M79.275,91.392c0.425,0.341,0.85,0.683,1.275,1.021c0.477,0.324,0.996,0.583,1.542,0.771
				c0.483,0.245,1,0.418,1.534,0.512c0.565,0.098,1.136,0.155,1.708,0.171c0.542-0.016,1.083-0.073,1.617-0.171
				c0.566-0.082,1.115-0.255,1.625-0.513c0.524-0.171,1.015-0.432,1.45-0.771c0.46-0.297,0.89-0.639,1.283-1.021
				c0.823-0.791,1.463-1.752,1.875-2.817c0.911-2.067,0.911-4.421,0-6.487c-0.411-1.064-1.051-2.025-1.875-2.813
				c-0.394-0.382-0.824-0.725-1.283-1.025c-0.435-0.339-0.926-0.6-1.45-0.771c-0.51-0.258-1.059-0.43-1.625-0.508
				c-1.093-0.258-2.232-0.258-3.325,0c-0.534,0.091-1.051,0.263-1.533,0.508c-0.546,0.187-1.064,0.447-1.542,0.771l-1.275,1.025
				c-0.753,0.829-1.359,1.78-1.792,2.813c-0.911,2.067-0.911,4.421,0,6.487C77.895,89.619,78.504,90.575,79.275,91.392z"/>
			<path d="M285.35,100.946c0.477,0.324,0.996,0.583,1.542,0.771c0.508,0.257,1.054,0.431,1.617,0.513
				c0.537,0.098,1.08,0.155,1.625,0.171c3.45-0.014,6.556-2.096,7.879-5.282c1.323-3.187,0.606-6.856-1.82-9.31
				c-2.045-1.953-4.901-2.81-7.684-2.304c-0.563,0.079-1.11,0.25-1.617,0.508c-0.546,0.187-1.064,0.447-1.542,0.771l-1.275,1.025
				c-0.772,0.814-1.38,1.769-1.792,2.813c-0.438,1.027-0.67,2.13-0.683,3.246c0.03,2.26,0.914,4.424,2.475,6.059
				C284.5,100.267,284.925,100.609,285.35,100.946z"/>
			<path d="M285.35,135.08c0.477,0.324,0.996,0.583,1.542,0.771c0.508,0.257,1.054,0.431,1.617,0.513
				c0.537,0.098,1.08,0.155,1.625,0.17c3.45-0.014,6.556-2.096,7.879-5.282c1.323-3.187,0.606-6.856-1.82-9.31
				c-2.045-1.953-4.901-2.81-7.684-2.304c-0.563,0.079-1.11,0.25-1.617,0.508c-0.546,0.187-1.064,0.447-1.542,0.771l-1.275,1.025
				c-0.753,0.829-1.359,1.78-1.792,2.813c-0.438,1.027-0.67,2.13-0.683,3.246c0.014,2.263,0.9,4.433,2.475,6.059
				C284.5,134.4,284.925,134.742,285.35,135.08z"/>
			<path d="M284.075,168.192c0.403,0.367,0.829,0.708,1.275,1.021c0.477,0.324,0.996,0.583,1.542,0.771
				c0.508,0.257,1.054,0.431,1.617,0.513c0.536,0.098,1.08,0.155,1.625,0.171c3.45-0.014,6.556-2.096,7.879-5.282
				c1.323-3.187,0.606-6.856-1.82-9.31c-2.039-1.964-4.901-2.822-7.684-2.304c-0.563,0.079-1.11,0.25-1.617,0.508
				c-0.546,0.187-1.064,0.447-1.542,0.771c-0.446,0.315-0.872,0.657-1.275,1.025c-1.561,1.634-2.445,3.799-2.475,6.059
				c0.014,1.115,0.246,2.216,0.683,3.242C282.696,166.419,283.304,167.375,284.075,168.192z"/>
			<path d="M285.35,203.346c0.477,0.324,0.996,0.583,1.542,0.771c0.508,0.257,1.054,0.431,1.617,0.513
				c0.537,0.098,1.08,0.155,1.625,0.17c3.45-0.014,6.556-2.096,7.879-5.282c1.323-3.187,0.606-6.856-1.82-9.31
				c-2.045-1.953-4.901-2.81-7.684-2.304c-0.563,0.079-1.11,0.25-1.617,0.508c-0.546,0.187-1.064,0.447-1.542,0.771l-1.275,1.025
				c-1.574,1.625-2.461,3.796-2.475,6.059c0.03,2.26,0.914,4.424,2.475,6.059C284.5,202.667,284.925,203.009,285.35,203.346z"/>
			<path d="M285.35,237.479c0.477,0.324,0.996,0.583,1.542,0.771c0.508,0.257,1.054,0.431,1.617,0.513
				c0.537,0.098,1.08,0.155,1.625,0.171c3.45-0.014,6.556-2.096,7.879-5.282c1.323-3.187,0.606-6.856-1.82-9.31
				c-2.023-1.991-4.899-2.853-7.684-2.304c-0.563,0.079-1.11,0.25-1.617,0.508c-0.546,0.187-1.064,0.447-1.542,0.771l-1.275,1.025
				c-3.3,3.365-3.3,8.752,0,12.117C284.5,236.799,284.925,237.141,285.35,237.479z"/>
			<path d="M285.35,271.612c0.477,0.324,0.996,0.583,1.542,0.771c0.508,0.257,1.054,0.431,1.617,0.513
				c0.537,0.098,1.08,0.155,1.625,0.171c3.45-0.014,6.556-2.096,7.879-5.282c1.323-3.187,0.606-6.856-1.82-9.31
				c-2.039-1.964-4.901-2.822-7.684-2.304c-0.563,0.079-1.11,0.25-1.617,0.508c-0.546,0.187-1.064,0.447-1.542,0.771
				c-0.446,0.315-0.872,0.657-1.275,1.025c-3.3,3.365-3.3,8.752,0,12.117C284.478,270.958,284.904,271.299,285.35,271.612z"/>
			<path d="M296.192,292.608c-2.045-1.953-4.901-2.81-7.684-2.304c-0.563,0.079-1.11,0.25-1.617,0.508
				c-0.546,0.187-1.064,0.447-1.542,0.771l-1.275,1.025c-1.574,1.625-2.461,3.796-2.475,6.059c0.014,1.115,0.246,2.216,0.683,3.242
				c0.433,1.034,1.039,1.987,1.792,2.817c0.425,0.341,0.85,0.683,1.275,1.021c0.477,0.324,0.996,0.583,1.542,0.771
				c0.508,0.257,1.054,0.431,1.617,0.513c0.536,0.098,1.08,0.155,1.625,0.171c3.45-0.014,6.556-2.096,7.879-5.282
				C299.336,298.731,298.618,295.062,296.192,292.608z"/>
			<path d="M296.192,326.741c-2.045-1.953-4.901-2.81-7.684-2.304c-0.563,0.079-1.11,0.25-1.617,0.508
				c-0.546,0.187-1.064,0.447-1.542,0.771l-1.275,1.025c-1.561,1.634-2.445,3.799-2.475,6.059c0.014,2.263,0.9,4.433,2.475,6.059
				c0.425,0.341,0.85,0.683,1.275,1.021c0.477,0.324,0.996,0.583,1.542,0.771c0.508,0.257,1.054,0.431,1.617,0.513
				c0.537,0.098,1.08,0.155,1.625,0.171c3.45-0.014,6.556-2.096,7.879-5.282C299.336,332.864,298.618,329.195,296.192,326.741z"/>
			<path d="M296.192,360.875c-2.039-1.964-4.901-2.822-7.684-2.304c-0.563,0.079-1.11,0.25-1.617,0.508
				c-0.546,0.187-1.064,0.447-1.542,0.771c-0.446,0.315-0.872,0.657-1.275,1.025c-0.772,0.814-1.38,1.769-1.792,2.813
				c-0.438,1.027-0.67,2.13-0.683,3.246c0.03,2.26,0.914,4.424,2.475,6.059c0.403,0.367,0.829,0.708,1.275,1.021
				c0.477,0.324,0.996,0.583,1.542,0.771c0.508,0.257,1.054,0.431,1.617,0.513c0.537,0.098,1.08,0.155,1.625,0.17
				c3.45-0.014,6.556-2.096,7.879-5.282C299.336,366.998,298.618,363.328,296.192,360.875z"/>
			<path d="M294.825,393.983c-0.435-0.339-0.926-0.6-1.45-0.771c-0.51-0.258-1.059-0.43-1.625-0.508
				c-1.065-0.258-2.177-0.258-3.242,0c-0.563,0.079-1.11,0.25-1.617,0.508c-0.546,0.187-1.064,0.447-1.542,0.771
				c-0.446,0.315-0.872,0.657-1.275,1.025c-1.561,1.634-2.445,3.799-2.475,6.059c0.014,1.115,0.246,2.216,0.683,3.242
				c0.433,1.034,1.039,1.987,1.792,2.817c0.425,0.341,0.85,0.683,1.275,1.021c0.477,0.324,0.996,0.583,1.542,0.771
				c0.508,0.257,1.054,0.431,1.617,0.513c0.536,0.098,1.08,0.155,1.625,0.171c3.45-0.014,6.556-2.096,7.879-5.282
				c1.323-3.187,0.606-6.856-1.82-9.31C295.774,394.619,295.315,394.276,294.825,393.983z"/>
			<path d="M288.508,426.837c-0.563,0.079-1.11,0.25-1.617,0.508c-0.546,0.187-1.064,0.447-1.542,0.771l-1.275,1.025
				c-1.561,1.634-2.445,3.799-2.475,6.059c0.014,0.571,0.07,1.141,0.167,1.704c0.096,0.535,0.27,1.053,0.517,1.538
				c0.184,0.545,0.442,1.062,0.767,1.538c0.341,0.425,0.683,0.85,1.025,1.279c0.425,0.341,0.85,0.683,1.275,1.021
				c0.477,0.324,0.996,0.583,1.542,0.771c0.508,0.257,1.054,0.431,1.617,0.512c0.537,0.098,1.08,0.155,1.625,0.171
				c2.259-0.035,4.421-0.918,6.059-2.475c0.341-0.429,0.683-0.854,1.025-1.279c0.321-0.477,0.579-0.994,0.767-1.538
				c0.247-0.483,0.419-1.002,0.508-1.538c0.104-0.563,0.162-1.133,0.175-1.704c-0.033-2.259-0.917-4.422-2.475-6.059
				C294.147,427.188,291.291,426.332,288.508,426.837z"/>
			<path d="M288.508,460.971c-0.563,0.079-1.11,0.25-1.617,0.508c-0.546,0.187-1.064,0.447-1.542,0.771
				c-0.446,0.315-0.872,0.657-1.275,1.025c-3.3,3.365-3.3,8.752,0,12.117c0.425,0.341,0.85,0.683,1.275,1.021
				c0.477,0.324,0.996,0.583,1.542,0.771c0.508,0.257,1.054,0.431,1.617,0.513c0.537,0.098,1.08,0.155,1.625,0.171
				c0.542-0.016,1.083-0.073,1.617-0.171c0.566-0.082,1.115-0.255,1.625-0.513c0.524-0.171,1.015-0.432,1.45-0.771
				c0.508-0.337,0.942-0.679,1.367-1.021c3.3-3.365,3.3-8.752,0-12.117C294.175,461.274,291.294,460.41,288.508,460.971z"/>
			<path d="M324.267,102.4h42.667c4.713,0,8.533-3.821,8.533-8.533c0-4.713-3.82-8.533-8.533-8.533h-42.667
				c-4.713,0-8.533,3.821-8.533,8.533C315.733,98.579,319.554,102.4,324.267,102.4z"/>
			<path d="M401.067,102.4H435.2c4.713,0,8.533-3.821,8.533-8.533c0-4.713-3.82-8.533-8.533-8.533h-34.133
				c-4.713,0-8.533,3.821-8.533,8.533C392.533,98.579,396.354,102.4,401.067,102.4z"/>
			<path d="M349.867,136.533h8.533c4.713,0,8.533-3.82,8.533-8.533s-3.82-8.533-8.533-8.533h-8.533c-4.713,0-8.533,3.82-8.533,8.533
				S345.154,136.533,349.867,136.533z"/>
			<path d="M392.533,136.533H409.6c4.713,0,8.533-3.82,8.533-8.533s-3.82-8.533-8.533-8.533h-17.067
				c-4.713,0-8.533,3.82-8.533,8.533S387.821,136.533,392.533,136.533z"/>
			<path d="M460.8,119.467h-25.6c-2.263-0.001-4.434,0.898-6.035,2.499c-1.6,1.6-2.499,3.771-2.499,6.035
				c-0.001,2.263,0.898,4.434,2.499,6.035c1.6,1.6,3.771,2.499,6.035,2.499h25.6c4.713,0,8.533-3.82,8.533-8.533
				S465.513,119.467,460.8,119.467z"/>
			<path d="M349.867,153.6c-4.713,0-8.533,3.82-8.533,8.533s3.82,8.533,8.533,8.533h25.6c4.713,0,8.533-3.82,8.533-8.533
				s-3.82-8.533-8.533-8.533H349.867z"/>
			<path d="M406.358,169.983c0.483,0.245,1,0.418,1.533,0.513c0.565,0.098,1.135,0.155,1.708,0.171
				c0.542-0.016,1.083-0.073,1.617-0.171c0.566-0.082,1.115-0.255,1.625-0.513c0.543-0.188,1.059-0.447,1.533-0.771
				c0.425-0.338,0.858-0.679,1.283-1.021c3.3-3.365,3.3-8.752,0-12.117c-0.425-0.341-0.858-0.683-1.283-1.025
				c-0.474-0.324-0.99-0.583-1.533-0.771c-0.51-0.258-1.059-0.43-1.625-0.508c-1.093-0.258-2.232-0.258-3.325,0
				c-0.534,0.091-1.051,0.263-1.533,0.508c-0.546,0.187-1.064,0.447-1.542,0.771l-1.275,1.025c-0.772,0.814-1.38,1.769-1.792,2.813
				c-0.481,1.013-0.715,2.125-0.683,3.246c0.03,2.26,0.914,4.424,2.475,6.059c0.425,0.341,0.85,0.683,1.275,1.021
				C405.294,169.537,405.812,169.796,406.358,169.983z"/>
			<path d="M460.8,153.6h-17.067c-4.713,0-8.533,3.82-8.533,8.533s3.82,8.533,8.533,8.533H460.8c4.713,0,8.533-3.82,8.533-8.533
				S465.513,153.6,460.8,153.6z"/>
			<path d="M324.267,204.8h42.667c4.713,0,8.533-3.82,8.533-8.533s-3.82-8.533-8.533-8.533h-42.667c-4.713,0-8.533,3.82-8.533,8.533
				S319.554,204.8,324.267,204.8z"/>
			<path d="M441.235,202.301c1.6-1.6,2.499-3.771,2.499-6.035c0.001-2.263-0.898-4.434-2.499-6.035
				c-1.6-1.6-3.771-2.499-6.035-2.499h-34.133c-4.713,0-8.533,3.82-8.533,8.533s3.821,8.533,8.533,8.533H435.2
				C437.463,204.801,439.634,203.902,441.235,202.301z"/>
			<path d="M349.867,238.933h8.533c4.713,0,8.533-3.82,8.533-8.533s-3.82-8.533-8.533-8.533h-8.533c-4.713,0-8.533,3.82-8.533,8.533
				S345.154,238.933,349.867,238.933z"/>
			<path d="M392.533,238.933H409.6c4.713,0,8.533-3.82,8.533-8.533s-3.82-8.533-8.533-8.533h-17.067
				c-4.713,0-8.533,3.82-8.533,8.533S387.821,238.933,392.533,238.933z"/>
			<path d="M460.8,221.867h-25.6c-4.713,0-8.533,3.82-8.533,8.533s3.82,8.533,8.533,8.533h25.6c4.713,0,8.533-3.82,8.533-8.533
				S465.513,221.867,460.8,221.867z"/>
			<path d="M375.467,256h-25.6c-4.713,0-8.533,3.82-8.533,8.533s3.82,8.533,8.533,8.533h25.6c4.713,0,8.533-3.82,8.533-8.533
				S380.18,256,375.467,256z"/>
			<path d="M406.329,256.404c-3.829,1.564-6.015,5.618-5.219,9.677s4.354,6.985,8.49,6.986c2.259-0.034,4.422-0.918,6.059-2.475
				c2.953-2.896,3.444-7.476,1.171-10.932C414.558,256.205,410.158,254.841,406.329,256.404z"/>
			<path d="M460.8,256h-17.067c-4.713,0-8.533,3.82-8.533,8.533s3.82,8.533,8.533,8.533H460.8c4.713,0,8.533-3.82,8.533-8.533
				S465.513,256,460.8,256z"/>
			<path d="M324.267,307.2h42.667c4.713,0,8.533-3.82,8.533-8.533s-3.82-8.533-8.533-8.533h-42.667c-4.713,0-8.533,3.82-8.533,8.533
				S319.554,307.2,324.267,307.2z"/>
			<path d="M441.235,304.701c1.6-1.6,2.499-3.771,2.499-6.035c0.001-2.263-0.898-4.434-2.499-6.035
				c-1.6-1.6-3.771-2.499-6.035-2.499h-34.133c-4.713,0-8.533,3.82-8.533,8.533s3.821,8.533,8.533,8.533H435.2
				C437.463,307.201,439.634,306.302,441.235,304.701z"/>
			<path d="M349.867,341.333h8.533c4.713,0,8.533-3.821,8.533-8.533c0-4.713-3.82-8.533-8.533-8.533h-8.533
				c-4.713,0-8.533,3.821-8.533,8.533C341.333,337.513,345.154,341.333,349.867,341.333z"/>
			<path d="M409.6,324.267h-17.067c-4.713,0-8.533,3.821-8.533,8.533c0,4.713,3.821,8.533,8.533,8.533H409.6
				c4.713,0,8.533-3.821,8.533-8.533C418.133,328.087,414.313,324.267,409.6,324.267z"/>
			<path d="M460.8,324.267h-25.6c-4.713,0-8.533,3.821-8.533,8.533c0,4.713,3.82,8.533,8.533,8.533h25.6
				c4.713,0,8.533-3.821,8.533-8.533C469.333,328.087,465.513,324.267,460.8,324.267z"/>
			<path d="M349.867,375.467h25.6c4.713,0,8.533-3.82,8.533-8.533s-3.82-8.533-8.533-8.533h-25.6c-4.713,0-8.533,3.82-8.533,8.533
				S345.154,375.467,349.867,375.467z"/>
			<path d="M415.659,372.992c1.557-1.637,2.44-3.8,2.475-6.059c-0.013-1.116-0.245-2.219-0.683-3.246
				c-0.433-1.033-1.039-1.984-1.792-2.813c-3.421-3.158-8.695-3.158-12.117,0c-0.753,0.829-1.359,1.78-1.792,2.813
				c-0.481,1.013-0.714,2.125-0.683,3.246c-0.022,2.27,0.87,4.453,2.475,6.058c1.605,1.605,3.788,2.497,6.058,2.475
				C411.859,375.432,414.021,374.548,415.659,372.992z"/>
			<path d="M460.8,358.4h-17.067c-4.713,0-8.533,3.82-8.533,8.533s3.82,8.533,8.533,8.533H460.8c4.713,0,8.533-3.82,8.533-8.533
				S465.513,358.4,460.8,358.4z"/>
			<path d="M372.968,407.101c1.6-1.6,2.499-3.771,2.499-6.035c0.001-2.263-0.898-4.434-2.499-6.035
				c-1.6-1.6-3.771-2.499-6.035-2.499h-42.667c-4.713,0-8.533,3.821-8.533,8.533s3.82,8.533,8.533,8.533h42.667
				C369.197,409.601,371.368,408.702,372.968,407.101z"/>
			<path d="M395.032,395.032c-1.6,1.6-2.499,3.771-2.499,6.035c-0.001,2.263,0.898,4.434,2.499,6.035
				c1.6,1.6,3.771,2.499,6.035,2.499H435.2c4.713,0,8.533-3.82,8.533-8.533s-3.82-8.533-8.533-8.533h-34.133
				C398.803,392.533,396.633,393.432,395.032,395.032z"/>
			<path d="M349.867,426.667c-4.713,0-8.533,3.82-8.533,8.533s3.82,8.533,8.533,8.533h8.533c4.713,0,8.533-3.82,8.533-8.533
				s-3.82-8.533-8.533-8.533H349.867z"/>
			<path d="M409.6,426.667h-17.067c-4.713,0-8.533,3.82-8.533,8.533s3.821,8.533,8.533,8.533H409.6c4.713,0,8.533-3.82,8.533-8.533
				S414.313,426.667,409.6,426.667z"/>
			<path d="M460.8,426.667h-25.6c-4.713,0-8.533,3.82-8.533,8.533s3.82,8.533,8.533,8.533h25.6c4.713,0,8.533-3.82,8.533-8.533
				S465.513,426.667,460.8,426.667z"/>
			<path d="M375.467,460.8h-25.6c-4.713,0-8.533,3.82-8.533,8.533s3.82,8.533,8.533,8.533h25.6c4.713,0,8.533-3.82,8.533-8.533
				S380.18,460.8,375.467,460.8z"/>
			<path d="M412.872,461.403c-3.202-1.329-6.89-0.59-9.331,1.872c-1.561,1.634-2.445,3.799-2.475,6.059
				c-0.031,1.119,0.203,2.23,0.683,3.242c0.433,1.034,1.039,1.987,1.792,2.817c3.365,3.3,8.752,3.3,12.117,0
				c0.753-0.83,1.359-1.783,1.792-2.817c0.437-1.026,0.669-2.127,0.683-3.242C418.154,465.867,416.074,462.732,412.872,461.403z"/>
			<path d="M460.8,460.8h-17.067c-4.713,0-8.533,3.82-8.533,8.533s3.82,8.533,8.533,8.533H460.8c4.713,0,8.533-3.82,8.533-8.533
				S465.513,460.8,460.8,460.8z"/>
		</g>
	</g>
</g>
<g>
</g>
<g>
</g>
<g>
</g>
<g>
</g>
<g>
</g>
<g>
</g>
<g>
</g>
<g>
</g>
<g>
</g>
<g>
</g>
<g>
</g>
<g>
</g>
<g>
</g>
<g>
</g>
<g>
</g>
</svg>
