<?xml version="1.0" encoding="iso-8859-1"?>
<!-- Generator: Adobe Illustrator 19.0.0, SVG Export Plug-In . SVG Version: 6.00 Build 0)  -->
<svg version="1.1" id="Capa_1" xmlns="http://www.w3.org/2000/svg" xmlns:xlink="http://www.w3.org/1999/xlink" x="0px" y="0px"
	 viewBox="0 0 512 512" style="enable-background:new 0 0 512 512;" xml:space="preserve">
<g>
	<g>
		<g>
			<path d="M486.4,0H25.6C11.468,0.015,0.015,11.468,0,25.6v392.533c0.015,14.132,11.468,25.585,25.6,25.6h164.999l-17.5,51.2
				h-10.965c-4.713,0-8.533,3.82-8.533,8.533s3.82,8.533,8.533,8.533h187.733c4.713,0,8.533-3.82,8.533-8.533
				s-3.82-8.533-8.533-8.533h-10.965l-17.5-51.2H486.4c14.132-0.015,25.585-11.468,25.6-25.6V25.6
				C511.985,11.468,500.532,0.015,486.4,0z M191.133,494.933l17.5-51.2h94.733l17.5,51.2H191.133z M494.933,418.133
				c-0.005,4.711-3.822,8.529-8.533,8.533H25.6c-4.711-0.005-8.529-3.822-8.533-8.533v-42.667h477.867V418.133z M494.933,358.4
				H17.067V25.6c0.005-4.711,3.822-8.529,8.533-8.533h460.8c4.711,0.005,8.529,3.822,8.533,8.533V358.4z"/>
			<path d="M469.333,34.133H42.667c-2.263-0.001-4.434,0.898-6.035,2.499c-1.6,1.6-2.499,3.771-2.499,6.035V332.8
				c-0.001,2.263,0.898,4.434,2.499,6.035c1.6,1.6,3.771,2.499,6.035,2.499h426.667c2.263,0.001,4.434-0.898,6.035-2.499
				c1.6-1.6,2.499-3.771,2.499-6.035V42.667c0.001-2.263-0.898-4.434-2.499-6.035C473.768,35.032,471.597,34.133,469.333,34.133z
				 M51.2,51.2h34.133v34.133H51.2V51.2z M145.067,324.267H51.2V102.4h93.867V324.267z M460.8,324.267H162.133V204.8H460.8V324.267z
				 M460.8,187.733H165.667l15.217-15.217l11.567,5.783c2.889,1.453,6.352,1.14,8.933-0.808l28.217-21.158l11.834,11.833
				c0.935,0.938,2.077,1.644,3.333,2.063l25.6,8.533c2.498,0.837,5.243,0.469,7.433-0.996l24.65-16.433l21.158-7.054l13.908,6.954
				c2.025,1.013,4.369,1.179,6.517,0.462l22.242-7.417l30.975,15.487c3.287,1.633,7.249,0.989,9.85-1.6l16.467-16.467l20.166-13.446
				l17.067,11.379V187.733z M460.8,129.122l-12.333-8.222c-2.867-1.908-6.6-1.908-9.467,0l-25.6,17.067
				c-0.467,0.312-0.903,0.669-1.3,1.067l-12.717,12.716l-28.633-14.317c-2.028-1.001-4.368-1.167-6.517-0.463l-22.242,7.417
				l-13.908-6.954c-2.028-1.002-4.368-1.168-6.517-0.463l-25.6,8.533c-0.718,0.242-1.402,0.577-2.033,0.996l-22.125,14.75
				l-19.734-6.575l-15.642-15.642c-3.002-3.002-7.754-3.339-11.15-0.792l-29.916,22.433l-12.35-6.175
				c-3.285-1.643-7.253-0.998-9.85,1.6l-11.033,11.033V102.4H460.8V129.122z M460.8,85.333H102.4V51.2h358.4V85.333z"/>
			<path d="M128,76.8h34.133c4.713,0,8.533-3.82,8.533-8.533s-3.82-8.533-8.533-8.533H128c-4.713,0-8.533,3.82-8.533,8.533
				S123.287,76.8,128,76.8z"/>
			<path d="M307.2,76.8h34.133c4.713,0,8.533-3.82,8.533-8.533s-3.82-8.533-8.533-8.533H307.2c-4.713,0-8.533,3.82-8.533,8.533
				S302.487,76.8,307.2,76.8z"/>
			<path d="M196.267,76.8h76.8c4.713,0,8.533-3.82,8.533-8.533s-3.821-8.533-8.533-8.533h-76.8c-4.713,0-8.533,3.82-8.533,8.533
				S191.554,76.8,196.267,76.8z"/>
			<path d="M62.209,134.058c3.347,3.339,8.766,3.335,12.109-0.008s3.346-8.762,0.007-12.109c-0.831-0.753-1.783-1.361-2.817-1.796
				c-2.078-0.85-4.406-0.85-6.483,0c-3.25,1.233-5.37,4.38-5.292,7.854c0.014,1.115,0.246,2.216,0.683,3.242
				C60.849,132.276,61.455,133.228,62.209,134.058z"/>
			<path d="M93.867,136.533h25.6c4.713,0,8.533-3.82,8.533-8.533s-3.82-8.533-8.533-8.533h-25.6c-4.713,0-8.533,3.82-8.533,8.533
				S89.154,136.533,93.867,136.533z"/>
			<path d="M62.209,168.192c3.347,3.339,8.766,3.335,12.109-0.008c3.343-3.343,3.346-8.762,0.007-12.109
				c-0.831-0.753-1.783-1.361-2.817-1.796c-2.078-0.85-4.406-0.85-6.483,0c-1.045,0.413-2.001,1.022-2.817,1.796
				c-1.561,1.634-2.445,3.799-2.475,6.059c0.014,1.115,0.246,2.216,0.683,3.242C60.809,166.43,61.42,167.389,62.209,168.192z"/>
			<path d="M93.867,170.667h25.6c4.713,0,8.533-3.82,8.533-8.533s-3.82-8.533-8.533-8.533h-25.6c-4.713,0-8.533,3.82-8.533,8.533
				S89.154,170.667,93.867,170.667z"/>
			<path d="M65.025,204.117c2.065,0.911,4.418,0.911,6.483,0c1.033-0.435,1.985-1.041,2.817-1.791c3.346-3.346,3.346-8.771,0-12.117
				c-3.346-3.346-8.771-3.346-12.117,0c-0.753,0.829-1.359,1.78-1.792,2.813c-0.438,1.027-0.67,2.13-0.683,3.246
				C59.652,199.741,61.774,202.888,65.025,204.117z"/>
			<path d="M93.867,204.8h25.6c4.713,0,8.533-3.82,8.533-8.533s-3.82-8.533-8.533-8.533h-25.6c-4.713,0-8.533,3.82-8.533,8.533
				S89.154,204.8,93.867,204.8z"/>
			<path d="M62.209,236.458c2.441,2.461,6.129,3.201,9.33,1.871c3.202-1.329,5.281-4.463,5.261-7.93
				c-0.013-0.544-0.071-1.086-0.175-1.621c-0.076-0.567-0.248-1.116-0.508-1.625c-0.189-0.542-0.446-1.057-0.767-1.533
				c-0.341-0.429-0.683-0.854-1.025-1.279c-2.441-2.461-6.129-3.201-9.331-1.872s-5.281,4.463-5.261,7.93
				c0.014,1.115,0.246,2.216,0.683,3.242C60.829,234.686,61.438,235.642,62.209,236.458z"/>
			<path d="M93.867,238.933h25.6c4.713,0,8.533-3.82,8.533-8.533s-3.82-8.533-8.533-8.533h-25.6c-4.713,0-8.533,3.82-8.533,8.533
				S89.154,238.933,93.867,238.933z"/>
			<path d="M65.016,272.412c3.187,1.323,6.856,0.606,9.31-1.82c0.341-0.429,0.683-0.854,1.025-1.279
				c0.321-0.477,0.579-0.994,0.767-1.538c0.26-0.508,0.432-1.056,0.508-1.621c0.103-0.535,0.162-1.077,0.175-1.621
				c0.02-3.467-2.059-6.601-5.261-7.931s-6.89-0.59-9.331,1.872c-0.772,0.814-1.38,1.769-1.792,2.813
				c-0.438,1.027-0.67,2.13-0.683,3.246C59.747,267.984,61.829,271.089,65.016,272.412z"/>
			<path d="M93.867,273.067h25.6c4.713,0,8.533-3.82,8.533-8.533S124.18,256,119.467,256h-25.6c-4.713,0-8.533,3.82-8.533,8.533
				S89.154,273.067,93.867,273.067z"/>
			<path d="M414.329,306.308c22.855-16.969,27.682-49.226,10.797-72.143c-0.075-0.111-0.086-0.244-0.168-0.352
				c-0.08-0.107-0.203-0.154-0.287-0.256c-17.22-22.666-49.528-27.138-72.258-10.001c-22.729,17.137-27.32,49.428-10.266,72.221
				C359.2,318.568,391.474,323.277,414.329,306.308z M392.533,231.612c4.619,1.207,8.931,3.378,12.652,6.369l-12.652,9.486V231.612z
				 M375.467,231.612v32.922c-0.002,3.232,1.824,6.187,4.715,7.633c2.891,1.445,6.35,1.133,8.935-0.808l26.419-19.814
				c4.363,10.524,3.178,22.532-3.158,32c-6.336,9.468-16.985,15.143-28.378,15.123c-17.176,0.036-31.692-12.723-33.86-29.761
				S358.829,235.879,375.467,231.612z"/>
			<path d="M290.133,273.067c2.263,0.001,4.434-0.898,6.035-2.499c1.6-1.6,2.499-3.771,2.499-6.035v-42.667
				c0-4.713-3.82-8.533-8.533-8.533s-8.533,3.82-8.533,8.533v42.667c-0.001,2.263,0.898,4.434,2.499,6.035
				C285.699,272.168,287.87,273.067,290.133,273.067z"/>
			<path d="M179.191,273.067c2.839,0.004,5.495-1.405,7.083-3.758l2.692-3.992l8.192,6.075c2.076,1.537,4.737,2.052,7.237,1.399
				c2.5-0.652,4.57-2.402,5.63-4.757l10.317-22.933l14.3,14.125c1.807,1.784,4.315,2.671,6.842,2.421
				c2.527-0.25,4.812-1.613,6.233-3.717l15.358-22.754c1.706-2.528,1.934-5.773,0.598-8.515c-1.336-2.741-4.033-4.561-7.075-4.775
				c-3.042-0.214-5.967,1.212-7.673,3.74l-9.6,14.234L223.6,224.329c-1.99-1.964-4.815-2.83-7.564-2.317
				c-2.749,0.513-5.072,2.339-6.22,4.888l-11.008,24.471l-6.842-5.075c-1.872-1.386-4.228-1.948-6.524-1.554
				s-4.331,1.707-5.634,3.638l-7.683,11.379c-1.763,2.615-1.94,5.989-0.461,8.775C173.143,271.319,176.038,273.062,179.191,273.067z
				"/>
			<path d="M179.2,307.2h119.467c4.713,0,8.533-3.82,8.533-8.533s-3.82-8.533-8.533-8.533H179.2c-4.713,0-8.533,3.82-8.533,8.533
				S174.487,307.2,179.2,307.2z"/>
		</g>
	</g>
</g>
<g>
</g>
<g>
</g>
<g>
</g>
<g>
</g>
<g>
</g>
<g>
</g>
<g>
</g>
<g>
</g>
<g>
</g>
<g>
</g>
<g>
</g>
<g>
</g>
<g>
</g>
<g>
</g>
<g>
</g>
</svg>
