<?xml version="1.0" encoding="iso-8859-1"?>
<!-- Generator: Adobe Illustrator 19.0.0, SVG Export Plug-In . SVG Version: 6.00 Build 0)  -->
<svg version="1.1" id="Capa_1" xmlns="http://www.w3.org/2000/svg" xmlns:xlink="http://www.w3.org/1999/xlink" x="0px" y="0px"
	 viewBox="0 0 512 512" style="enable-background:new 0 0 512 512;" xml:space="preserve">
<g>
	<g>
		<g>
			<path d="M494.933,0H17.067C7.645,0.011,0.011,7.645,0,17.067v477.867c0.011,9.421,7.645,17.056,17.067,17.067h477.867
				c9.421-0.011,17.056-7.645,17.067-17.067V17.067C511.989,7.645,504.355,0.011,494.933,0z M494.939,281.6v34.133H332.8V281.6
				H494.939z M332.8,264.533V119.467h162.135l0.003,145.067H332.8z M494.935,102.4H332.8V68.267h162.135V102.4z M17.067,17.067
				h477.867V51.2H17.067V17.067z M145.067,494.933h-128V68.267h128V494.933z M315.733,494.933h-153.6V68.267h153.6V494.933z
				 M332.8,494.933V332.8h162.139l0.003,162.133H332.8z"/>
			<path d="M93.867,25.6h-51.2c-4.713,0-8.533,3.821-8.533,8.533s3.82,8.533,8.533,8.533h51.2c4.713,0,8.533-3.82,8.533-8.533
				S98.579,25.6,93.867,25.6z"/>
			<path d="M145.067,25.6H128c-4.713,0-8.533,3.821-8.533,8.533s3.82,8.533,8.533,8.533h17.067c4.713,0,8.533-3.82,8.533-8.533
				S149.779,25.6,145.067,25.6z"/>
			<path d="M196.267,25.6H179.2c-4.713,0-8.533,3.821-8.533,8.533s3.82,8.533,8.533,8.533h17.067c4.713,0,8.533-3.82,8.533-8.533
				S200.979,25.6,196.267,25.6z"/>
			<path d="M247.467,25.6H230.4c-4.713,0-8.533,3.821-8.533,8.533s3.82,8.533,8.533,8.533h17.067c4.713,0,8.533-3.82,8.533-8.533
				S252.18,25.6,247.467,25.6z"/>
			<path d="M298.667,25.6H281.6c-4.713,0-8.533,3.821-8.533,8.533s3.82,8.533,8.533,8.533h17.067c4.713,0,8.533-3.82,8.533-8.533
				S303.38,25.6,298.667,25.6z"/>
			<path d="M477.867,25.6h-8.533c-4.713,0-8.533,3.821-8.533,8.533s3.82,8.533,8.533,8.533h8.533c4.713,0,8.533-3.82,8.533-8.533
				S482.58,25.6,477.867,25.6z"/>
			<path d="M42.667,102.4c3.45-0.014,6.556-2.096,7.879-5.282c1.323-3.187,0.606-6.856-1.82-9.31c-3.422-3.159-8.696-3.159-12.117,0
				c-2.461,2.441-3.201,6.129-1.872,9.331S39.2,102.42,42.667,102.4z"/>
			<path d="M76.8,102.4h42.667c4.713,0,8.533-3.821,8.533-8.533c0-4.713-3.82-8.533-8.533-8.533H76.8
				c-4.713,0-8.533,3.821-8.533,8.533C68.267,98.579,72.087,102.4,76.8,102.4z"/>
			<path d="M46.935,120.567c-3.356-1.933-7.592-1.369-10.327,1.374c-0.79,0.8-1.4,1.759-1.792,2.813
				c-0.438,1.027-0.67,2.13-0.683,3.246c-0.022,2.27,0.87,4.453,2.475,6.058c1.605,1.605,3.788,2.497,6.058,2.475
				c3.873,0,7.263-2.603,8.263-6.345C51.93,126.447,50.291,122.5,46.935,120.567z"/>
			<path d="M76.8,136.533h42.667c4.713,0,8.533-3.82,8.533-8.533s-3.82-8.533-8.533-8.533H76.8c-4.713,0-8.533,3.82-8.533,8.533
				S72.087,136.533,76.8,136.533z"/>
			<path d="M46.935,154.701c-3.356-1.933-7.592-1.369-10.327,1.374c-0.79,0.8-1.4,1.759-1.792,2.813
				c-0.438,1.027-0.67,2.13-0.683,3.246c-0.022,2.27,0.87,4.453,2.475,6.058c1.605,1.605,3.788,2.497,6.058,2.475
				c3.873,0,7.263-2.603,8.263-6.345C51.93,160.58,50.291,156.634,46.935,154.701z"/>
			<path d="M76.8,170.667h42.667c4.713,0,8.533-3.82,8.533-8.533s-3.82-8.533-8.533-8.533H76.8c-4.713,0-8.533,3.82-8.533,8.533
				S72.087,170.667,76.8,170.667z"/>
			<path d="M37.884,203.346c0.477,0.324,0.996,0.583,1.542,0.771c0.483,0.245,1,0.418,1.533,0.513
				c0.565,0.098,1.135,0.155,1.708,0.171c3.45-0.014,6.556-2.096,7.879-5.282c1.323-3.187,0.606-6.856-1.82-9.31
				c-0.831-0.753-1.783-1.361-2.817-1.795c-3.186-1.252-6.809-0.552-9.3,1.795c-1.561,1.634-2.445,3.799-2.475,6.059
				c0.014,1.115,0.246,2.216,0.683,3.242c0.393,1.055,1.003,2.014,1.792,2.817C37.012,202.692,37.438,203.033,37.884,203.346z"/>
			<path d="M76.8,204.8h42.667c4.713,0,8.533-3.82,8.533-8.533s-3.82-8.533-8.533-8.533H76.8c-4.713,0-8.533,3.82-8.533,8.533
				S72.087,204.8,76.8,204.8z"/>
			<path d="M34.817,233.642c0.393,1.055,1.003,2.014,1.792,2.817c0.403,0.367,0.829,0.708,1.275,1.021
				c0.477,0.324,0.996,0.583,1.542,0.771c0.483,0.245,1,0.418,1.533,0.513c0.565,0.098,1.135,0.155,1.708,0.171
				c3.45-0.014,6.556-2.096,7.879-5.282s0.606-6.856-1.82-9.31c-0.831-0.753-1.783-1.361-2.817-1.796
				c-3.186-1.251-6.809-0.552-9.3,1.796c-1.561,1.634-2.445,3.799-2.475,6.059C34.147,231.515,34.379,232.616,34.817,233.642z"/>
			<path d="M76.8,238.933h42.667c4.713,0,8.533-3.82,8.533-8.533s-3.82-8.533-8.533-8.533H76.8c-4.713,0-8.533,3.82-8.533,8.533
				S72.087,238.933,76.8,238.933z"/>
			<path d="M46.935,257.101c-3.356-1.933-7.592-1.369-10.327,1.374c-3.3,3.365-3.3,8.752,0,12.117
				c0.403,0.367,0.829,0.708,1.275,1.021c0.477,0.324,0.996,0.583,1.542,0.771c0.483,0.245,1,0.418,1.534,0.513
				c0.565,0.098,1.135,0.155,1.708,0.171c3.873,0,7.263-2.603,8.263-6.345S50.291,259.034,46.935,257.101z"/>
			<path d="M76.8,273.067h42.667c4.713,0,8.533-3.82,8.533-8.533S124.18,256,119.467,256H76.8c-4.713,0-8.533,3.82-8.533,8.533
				S72.087,273.067,76.8,273.067z"/>
			<path d="M46.935,291.234c-3.356-1.933-7.592-1.369-10.327,1.374c-3.3,3.365-3.3,8.752,0,12.117
				c0.403,0.367,0.829,0.708,1.275,1.021c0.477,0.324,0.996,0.583,1.542,0.771c0.483,0.245,1,0.418,1.534,0.513
				c0.565,0.098,1.135,0.155,1.708,0.171c3.873,0,7.263-2.603,8.263-6.345C51.93,297.114,50.291,293.167,46.935,291.234z"/>
			<path d="M76.8,307.2h42.667c4.713,0,8.533-3.82,8.533-8.533s-3.82-8.533-8.533-8.533H76.8c-4.713,0-8.533,3.82-8.533,8.533
				S72.087,307.2,76.8,307.2z"/>
			<path d="M46.935,325.367c-3.356-1.933-7.592-1.369-10.327,1.374c-3.3,3.365-3.3,8.752,0,12.117
				c0.403,0.367,0.829,0.708,1.275,1.021c0.477,0.324,0.996,0.583,1.542,0.771c0.483,0.245,1,0.418,1.534,0.513
				c0.565,0.098,1.135,0.155,1.708,0.171c3.873,0,7.263-2.603,8.263-6.345S50.291,327.3,46.935,325.367z"/>
			<path d="M76.8,341.333h42.667c4.713,0,8.533-3.821,8.533-8.533c0-4.713-3.82-8.533-8.533-8.533H76.8
				c-4.713,0-8.533,3.821-8.533,8.533C68.267,337.513,72.087,341.333,76.8,341.333z"/>
			<path d="M46.935,359.501c-3.356-1.933-7.592-1.369-10.327,1.374c-3.3,3.365-3.3,8.752,0,12.117
				c0.403,0.367,0.829,0.708,1.275,1.021c0.477,0.324,0.996,0.583,1.542,0.771c0.483,0.245,1,0.418,1.534,0.513
				c0.565,0.098,1.135,0.155,1.708,0.171c3.873,0,7.263-2.603,8.263-6.345C51.93,365.38,50.291,361.434,46.935,359.501z"/>
			<path d="M76.8,375.467h42.667c4.713,0,8.533-3.82,8.533-8.533s-3.82-8.533-8.533-8.533H76.8c-4.713,0-8.533,3.82-8.533,8.533
				S72.087,375.467,76.8,375.467z"/>
			<path d="M196.267,477.867H281.6c9.421-0.011,17.056-7.646,17.067-17.067v-68.267c-0.011-9.421-7.646-17.056-17.067-17.067
				h-34.133V332.8H281.6c9.421-0.011,17.056-7.645,17.067-17.067v-68.267c-0.011-9.421-7.646-17.056-17.067-17.067h-34.133v-42.667
				H281.6c9.421-0.011,17.056-7.645,17.067-17.067V102.4c-0.011-9.421-7.646-17.056-17.067-17.067h-85.333
				c-9.421,0.011-17.056,7.646-17.067,17.067v68.267c0.011,9.421,7.645,17.056,17.067,17.067H230.4V230.4h-34.133
				c-9.421,0.011-17.056,7.645-17.067,17.067v68.267c0.011,9.421,7.645,17.056,17.067,17.067H230.4v42.667h-34.133
				c-9.421,0.011-17.056,7.646-17.067,17.067V460.8C179.211,470.221,186.845,477.856,196.267,477.867z M196.267,102.4H281.6
				l0.002,17.067h-85.335V102.4z M196.267,170.667v-34.133h85.338l0.004,34.133H196.267z M196.267,247.467H281.6l0.002,17.067
				h-85.335V247.467z M196.267,315.733V281.6h85.338l0.004,34.133H196.267z M196.267,392.533H281.6l0.002,17.067h-85.335V392.533z
				 M196.267,426.667h85.338l0.004,34.133h-85.342V426.667z"/>
			<path d="M349.867,93.867h8.533c4.713,0,8.533-3.821,8.533-8.533s-3.82-8.533-8.533-8.533h-8.533c-4.713,0-8.533,3.82-8.533,8.533
				S345.154,93.867,349.867,93.867z"/>
			<path d="M349.867,307.2h8.533c4.713,0,8.533-3.82,8.533-8.533s-3.82-8.533-8.533-8.533h-8.533c-4.713,0-8.533,3.82-8.533,8.533
				S345.154,307.2,349.867,307.2z"/>
			<path d="M349.867,153.6H384c4.713,0,8.533-3.821,8.533-8.533s-3.82-8.533-8.533-8.533h-34.133c-4.713,0-8.533,3.82-8.533,8.533
				S345.154,153.6,349.867,153.6z"/>
			<path d="M469.333,136.533h-51.2c-4.713,0-8.533,3.82-8.533,8.533s3.82,8.533,8.533,8.533h51.2c4.713,0,8.533-3.821,8.533-8.533
				S474.046,136.533,469.333,136.533z"/>
			<path d="M384,204.8h-34.133c-4.713,0-8.533,3.821-8.533,8.533c0,4.713,3.82,8.533,8.533,8.533H384
				c4.713,0,8.533-3.821,8.533-8.533C392.533,208.621,388.713,204.8,384,204.8z"/>
			<path d="M469.333,204.8h-51.2c-4.713,0-8.533,3.821-8.533,8.533c0,4.713,3.82,8.533,8.533,8.533h51.2
				c4.713,0,8.533-3.821,8.533-8.533C477.867,208.621,474.046,204.8,469.333,204.8z"/>
			<path d="M349.867,187.733h8.533c4.713,0,8.533-3.82,8.533-8.533s-3.82-8.533-8.533-8.533h-8.533c-4.713,0-8.533,3.82-8.533,8.533
				S345.154,187.733,349.867,187.733z"/>
			<path d="M469.333,170.667H460.8c-4.713,0-8.533,3.82-8.533,8.533s3.821,8.533,8.533,8.533h8.533c4.713,0,8.533-3.82,8.533-8.533
				S474.046,170.667,469.333,170.667z"/>
			<path d="M432.701,185.235c1.6-1.6,2.499-3.771,2.499-6.035c0.001-2.263-0.898-4.434-2.499-6.035
				c-1.6-1.6-3.771-2.499-6.035-2.499h-34.133c-4.713,0-8.533,3.82-8.533,8.533s3.821,8.533,8.533,8.533h34.133
				C428.93,187.734,431.101,186.835,432.701,185.235z"/>
			<path d="M460.8,349.867h-93.867c-9.421,0.011-17.056,7.645-17.067,17.067V384c0.011,9.421,7.645,17.056,17.067,17.067H460.8
				c9.421-0.011,17.056-7.646,17.067-17.067v-17.067C477.856,357.512,470.221,349.877,460.8,349.867z M392.533,384h-25.6v-17.067
				h25.6V384z M409.6,384v-17.067h51.2L460.809,384H409.6z"/>
			<path d="M460.8,418.133h-93.867c-9.421,0.011-17.056,7.645-17.067,17.067v17.067c0.011,9.421,7.645,17.056,17.067,17.067H460.8
				c9.421-0.011,17.056-7.646,17.067-17.067V435.2C477.856,425.779,470.221,418.144,460.8,418.133z M392.533,452.267h-25.6V435.2
				h25.6V452.267z M409.6,452.267V435.2h51.2l0.008,17.067H409.6z"/>
		</g>
	</g>
</g>
<g>
</g>
<g>
</g>
<g>
</g>
<g>
</g>
<g>
</g>
<g>
</g>
<g>
</g>
<g>
</g>
<g>
</g>
<g>
</g>
<g>
</g>
<g>
</g>
<g>
</g>
<g>
</g>
<g>
</g>
</svg>
