<?xml version="1.0" encoding="iso-8859-1"?>
<!-- Generator: Adobe Illustrator 19.0.0, SVG Export Plug-In . SVG Version: 6.00 Build 0)  -->
<svg version="1.1" id="Capa_1" xmlns="http://www.w3.org/2000/svg" xmlns:xlink="http://www.w3.org/1999/xlink" x="0px" y="0px"
	 viewBox="0 0 512 512" style="enable-background:new 0 0 512 512;" xml:space="preserve">
<g>
	<g>
		<g>
			<path d="M494.933,0H17.067C7.645,0.009,0.009,7.645,0,17.067v477.867c0.009,9.422,7.645,17.057,17.067,17.067h477.867
				c9.422-0.009,17.057-7.645,17.067-17.067V17.067C511.991,7.645,504.355,0.009,494.933,0z M17.067,17.067h477.868V51.2H17.067
				V17.067z M196.267,494.933H59.733v-25.6h136.533V494.933z M196.267,452.267H59.733v-8.533c0.006-4.71,3.823-8.527,8.533-8.533
				h119.467c4.71,0.006,8.527,3.823,8.533,8.533V452.267z M375.467,494.933h-34.133V460.8h34.133V494.933z M452.267,494.933h-59.733
				v-42.667c0-4.713-3.82-8.533-8.533-8.533h-51.2c-4.713,0-8.533,3.821-8.533,8.533v42.667h-8.533v-68.267h136.533V494.933z
				 M452.267,409.6H315.733v-8.533c0.006-4.71,3.823-8.527,8.533-8.533h119.467c4.71,0.006,8.527,3.823,8.533,8.533V409.6z
				 M469.333,494.933v-93.867c-0.015-14.132-11.468-25.585-25.6-25.6H324.267c-14.132,0.015-25.585,11.468-25.6,25.6v93.867h-85.333
				v-51.2c-0.015-14.132-11.468-25.585-25.6-25.6H68.267c-14.132,0.015-25.585,11.468-25.6,25.6v51.2h-25.6V68.267h477.868
				l0.011,426.667H469.333z"/>
			<path d="M93.867,25.6h-51.2c-4.713,0-8.533,3.821-8.533,8.533s3.82,8.533,8.533,8.533h51.2c4.713,0,8.533-3.82,8.533-8.533
				S98.579,25.6,93.867,25.6z"/>
			<path d="M145.067,25.6H128c-4.713,0-8.533,3.821-8.533,8.533s3.82,8.533,8.533,8.533h17.067c4.713,0,8.533-3.82,8.533-8.533
				S149.779,25.6,145.067,25.6z"/>
			<path d="M196.267,25.6H179.2c-4.713,0-8.533,3.821-8.533,8.533s3.82,8.533,8.533,8.533h17.067c4.713,0,8.533-3.82,8.533-8.533
				S200.979,25.6,196.267,25.6z"/>
			<path d="M247.467,25.6H230.4c-4.713,0-8.533,3.821-8.533,8.533s3.82,8.533,8.533,8.533h17.067c4.713,0,8.533-3.82,8.533-8.533
				S252.18,25.6,247.467,25.6z"/>
			<path d="M298.667,25.6H281.6c-4.713,0-8.533,3.821-8.533,8.533s3.82,8.533,8.533,8.533h17.067c4.713,0,8.533-3.82,8.533-8.533
				S303.38,25.6,298.667,25.6z"/>
			<path d="M477.867,25.6h-8.533c-4.713,0-8.533,3.821-8.533,8.533s3.82,8.533,8.533,8.533h8.533c4.713,0,8.533-3.82,8.533-8.533
				S482.58,25.6,477.867,25.6z"/>
			<path d="M443.733,85.333H324.267c-14.132,0.015-25.585,11.468-25.6,25.6v44.239c-10.199,3.592-17.033,13.215-17.067,24.028
				c0,0.465,0.113,0.899,0.137,1.358c-22.724,14.427-35.842,40.038-34.271,66.908c0,21.855-7.316,36.967-21.718,45.098
				c-3.064-4.343-7.403-7.625-12.415-9.392V153.6c-0.015-14.132-11.468-25.585-25.6-25.6H68.267
				c-14.132,0.015-25.585,11.468-25.6,25.6v213.333c0.015,14.132,11.468,25.585,25.6,25.6h119.467
				c14.132-0.015,25.585-11.468,25.6-25.6v-35.706c9.372-3.34,15.946-11.827,16.835-21.737
				c14.883-7.107,34.365-23.723,34.365-62.024c-1.406-19.981,7.677-39.255,23.98-50.891c2.8,3.001,6.283,5.283,10.153,6.652v121.04
				c0.015,14.132,11.468,25.585,25.6,25.6h119.467c14.132-0.015,25.585-11.468,25.6-25.6V110.933
				C469.318,96.801,457.865,85.349,443.733,85.333z M59.733,153.6c0.006-4.71,3.823-8.527,8.533-8.533h119.467
				c4.71,0.006,8.527,3.823,8.533,8.533v8.533H59.733V153.6z M196.267,366.933c-0.006,4.71-3.823,8.527-8.533,8.533H68.267
				c-4.71-0.006-8.527-3.823-8.533-8.533V179.2h136.533v103.972c-10.22,3.564-17.068,13.203-17.068,24.027
				c0,10.824,6.847,20.463,17.068,24.027V366.933z M204.8,315.733c-4.713,0-8.533-3.82-8.533-8.533s3.82-8.533,8.533-8.533
				s8.533,3.82,8.533,8.533C213.327,311.91,209.51,315.727,204.8,315.733z M307.2,187.733c-4.713,0-8.533-3.82-8.533-8.533
				c0.006-4.71,3.823-8.527,8.533-8.533c4.713,0,8.533,3.82,8.533,8.533S311.913,187.733,307.2,187.733z M375.467,332.8h-34.133
				v-8.533h34.133V332.8z M452.267,324.267c-0.006,4.71-3.823,8.527-8.533,8.533h-51.2v-17.067c0-4.713-3.82-8.533-8.533-8.533
				h-51.2c-4.713,0-8.533,3.82-8.533,8.533V332.8c-4.71-0.006-8.527-3.823-8.533-8.533V203.228
				c10.22-3.565,17.067-13.204,17.067-24.028s-6.847-20.463-17.067-24.028v-18.639h136.533V324.267z M452.267,119.467H315.733
				v-8.533c0.006-4.71,3.823-8.527,8.533-8.533h119.467c4.71,0.006,8.527,3.823,8.533,8.533V119.467z"/>
			<path d="M170.667,273.067c0-23.564-19.103-42.667-42.667-42.667s-42.667,19.103-42.667,42.667
				c0,23.564,19.103,42.667,42.667,42.667C151.553,315.706,170.639,296.619,170.667,273.067z M128,298.667
				c-14.138,0-25.6-11.462-25.6-25.6s11.461-25.6,25.6-25.6s25.6,11.461,25.6,25.6C153.585,287.199,142.132,298.651,128,298.667z"/>
			<path d="M110.933,332.8h-25.6c-4.713,0-8.533,3.821-8.533,8.533s3.82,8.533,8.533,8.533h25.6c4.713,0,8.533-3.82,8.533-8.533
				S115.646,332.8,110.933,332.8z"/>
			<path d="M170.667,332.8h-25.6c-4.713,0-8.533,3.821-8.533,8.533s3.82,8.533,8.533,8.533h25.6c4.713,0,8.533-3.82,8.533-8.533
				S175.38,332.8,170.667,332.8z"/>
			<path d="M85.333,213.333h85.333c4.713,0,8.533-3.821,8.533-8.533s-3.82-8.533-8.533-8.533H85.333
				c-4.713,0-8.533,3.82-8.533,8.533S80.62,213.333,85.333,213.333z"/>
			<path d="M349.867,213.333H384c4.713,0,8.533-3.821,8.533-8.533v-42.667c0-4.713-3.82-8.533-8.533-8.533h-25.6
				c-4.713,0-8.533,3.82-8.533,8.533s3.82,8.533,8.533,8.533h17.067v25.6h-25.6c-4.713,0-8.533,3.82-8.533,8.533
				S345.154,213.333,349.867,213.333z"/>
			<path d="M384,230.4h-51.2c-4.713,0-8.533,3.82-8.533,8.533V281.6c0,4.713,3.821,8.533,8.533,8.533H384
				c4.713,0,8.533-3.82,8.533-8.533v-42.667C392.533,234.221,388.713,230.4,384,230.4z M375.467,273.067h-34.133v-25.6h34.133
				V273.067z"/>
			<path d="M409.6,170.667h17.067c4.713,0,8.533-3.82,8.533-8.533s-3.82-8.533-8.533-8.533H409.6c-4.713,0-8.533,3.82-8.533,8.533
				S404.887,170.667,409.6,170.667z"/>
			<path d="M409.6,196.267h17.067c4.713,0,8.533-3.82,8.533-8.533s-3.82-8.533-8.533-8.533H409.6c-4.713,0-8.533,3.82-8.533,8.533
				S404.887,196.267,409.6,196.267z"/>
			<path d="M409.6,247.467h17.067c4.713,0,8.533-3.82,8.533-8.533s-3.82-8.533-8.533-8.533H409.6c-4.713,0-8.533,3.82-8.533,8.533
				S404.887,247.467,409.6,247.467z"/>
			<path d="M409.6,273.067h17.067c4.713,0,8.533-3.82,8.533-8.533S431.38,256,426.667,256H409.6c-4.713,0-8.533,3.82-8.533,8.533
				S404.887,273.067,409.6,273.067z"/>
			<path d="M409.6,460.8h17.067c4.713,0,8.533-3.821,8.533-8.533c0-4.713-3.82-8.533-8.533-8.533H409.6
				c-4.713,0-8.533,3.821-8.533,8.533C401.067,456.979,404.887,460.8,409.6,460.8z"/>
			<path d="M409.6,486.4h17.067c4.713,0,8.533-3.82,8.533-8.533s-3.82-8.533-8.533-8.533H409.6c-4.713,0-8.533,3.82-8.533,8.533
				S404.887,486.4,409.6,486.4z"/>
			<path d="M409.6,324.267h17.067c4.713,0,8.533-3.82,8.533-8.533s-3.82-8.533-8.533-8.533H409.6c-4.713,0-8.533,3.82-8.533,8.533
				S404.887,324.267,409.6,324.267z"/>
		</g>
	</g>
</g>
<g>
</g>
<g>
</g>
<g>
</g>
<g>
</g>
<g>
</g>
<g>
</g>
<g>
</g>
<g>
</g>
<g>
</g>
<g>
</g>
<g>
</g>
<g>
</g>
<g>
</g>
<g>
</g>
<g>
</g>
</svg>
